<?xml version="1.0" encoding="UTF-8"?>
<svg width="1280px" height="1024px" viewBox="0 0 1280 1024" version="1.1" xmlns="http://www.w3.org/2000/svg" xmlns:xlink="http://www.w3.org/1999/xlink" style="background: #FFFFFF;">
    <!-- Generator: Sketch 46.2 (44496) - http://www.bohemiancoding.com/sketch -->
    <title>403@1x</title>
    <desc>Created with Sketch.</desc>
    <defs>
        <linearGradient x1="75.376666%" y1="-80.6396271%" x2="50%" y2="100%" id="linearGradient-1">
            <stop stop-color="#7F7F7F" offset="0%"></stop>
            <stop stop-color="#5B5B5B" offset="100%"></stop>
        </linearGradient>
        <linearGradient x1="50%" y1="0%" x2="50%" y2="100%" id="linearGradient-2">
            <stop stop-color="#7F7F7F" offset="0%"></stop>
            <stop stop-color="#5B5B5B" offset="100%"></stop>
        </linearGradient>
        <linearGradient x1="50%" y1="0%" x2="50%" y2="100%" id="linearGradient-3">
            <stop stop-color="#FF8E1C" offset="0%"></stop>
            <stop stop-color="#F47C20" offset="100%"></stop>
        </linearGradient>
        <rect id="path-4" x="67.1612903" y="53.575592" width="168.702765" height="94.3570128" rx="11.2"></rect>
        <filter x="-3.3%" y="-3.7%" width="106.5%" height="111.7%" filterUnits="objectBoundingBox" id="filter-5">
            <feOffset dx="0" dy="2" in="SourceAlpha" result="shadowOffsetOuter1"></feOffset>
            <feGaussianBlur stdDeviation="1.5" in="shadowOffsetOuter1" result="shadowBlurOuter1"></feGaussianBlur>
            <feColorMatrix values="0 0 0 0 0   0 0 0 0 0   0 0 0 0 0  0 0 0 0.1 0" type="matrix" in="shadowBlurOuter1"></feColorMatrix>
        </filter>
        <path d="M78.3612903,171.12204 L224.664055,171.12204 L224.664055,171.12204 C230.849644,171.12204 235.864055,176.136451 235.864055,182.32204 L235.864055,299.845537 L235.864055,299.845537 C235.864055,321.4951 218.313617,339.045537 196.664055,339.045537 L106.36129,339.045537 L106.36129,339.045537 C84.7117281,339.045537 67.1612903,321.4951 67.1612903,299.845537 L67.1612903,182.32204 L67.1612903,182.32204 C67.1612903,176.136451 72.1757011,171.12204 78.3612903,171.12204 Z" id="path-6"></path>
        <filter x="-3.3%" y="-2.1%" width="106.5%" height="106.6%" filterUnits="objectBoundingBox" id="filter-7">
            <feOffset dx="0" dy="2" in="SourceAlpha" result="shadowOffsetOuter1"></feOffset>
            <feGaussianBlur stdDeviation="1.5" in="shadowOffsetOuter1" result="shadowBlurOuter1"></feGaussianBlur>
            <feColorMatrix values="0 0 0 0 0   0 0 0 0 0   0 0 0 0 0  0 0 0 0.1 0" type="matrix" in="shadowBlurOuter1"></feColorMatrix>
        </filter>
        <linearGradient x1="82.7473306%" y1="20.0300925%" x2="18.3464081%" y2="79.1651171%" id="linearGradient-8">
            <stop stop-color="#F9F9F9" offset="0%"></stop>
            <stop stop-color="#DFDFDF" offset="100%"></stop>
        </linearGradient>
        <radialGradient cx="77.2360623%" cy="10.850962%" fx="77.2360623%" fy="10.850962%" r="95.6095226%" gradientTransform="translate(0.772361,0.108510),scale(1.000000,0.999879),rotate(130.595375),translate(-0.772361,-0.108510)" id="radialGradient-9">
            <stop stop-color="#6E6E6E" offset="0%"></stop>
            <stop stop-color="#4E4E4E" offset="100%"></stop>
        </radialGradient>
        <ellipse id="path-10" cx="21.5875576" cy="21.5901639" rx="21.5875576" ry="21.5901639"></ellipse>
        <ellipse id="path-11" cx="100.741935" cy="21.5901639" rx="21.5875576" ry="21.5901639"></ellipse>
        <radialGradient cx="63.2317373%" cy="36.024933%" fx="63.2317373%" fy="36.024933%" r="61.5326968%" gradientTransform="translate(0.632317,0.360249),scale(1.000000,0.999879),rotate(138.957177),translate(-0.632317,-0.360249)" id="radialGradient-12">
            <stop stop-color="#666565" offset="0%"></stop>
            <stop stop-color="#4E4E4E" offset="100%"></stop>
        </radialGradient>
        <radialGradient cx="50%" cy="33.7777669%" fx="50%" fy="33.7777669%" r="66.2222331%" gradientTransform="translate(0.500000,0.337778),scale(0.597133,1.000000),rotate(90.000000),translate(-0.500000,-0.337778)" id="radialGradient-13">
            <stop stop-color="#7F7F7F" offset="0%"></stop>
            <stop stop-color="#5B5B5B" offset="100%"></stop>
        </radialGradient>
        <radialGradient cx="50%" cy="33.7777669%" fx="50%" fy="33.7777669%" r="66.2222331%" gradientTransform="translate(0.500000,0.337778),scale(0.591204,1.000000),rotate(90.000000),translate(-0.500000,-0.337778)" id="radialGradient-14">
            <stop stop-color="#7F7F7F" offset="0%"></stop>
            <stop stop-color="#5B5B5B" offset="100%"></stop>
        </radialGradient>
        <linearGradient x1="50%" y1="3.04129464%" x2="50%" y2="100%" id="linearGradient-15">
            <stop stop-color="#E74E3E" offset="0%"></stop>
            <stop stop-color="#D32F2F" offset="100%"></stop>
        </linearGradient>
    </defs>
    <g id="for-website" stroke="none" stroke-width="1" fill="none" fill-rule="evenodd">
        <g id="403">
            <g id="App-Bar" transform="translate(579.500000, 71.000000)" fill-rule="nonzero">
                <g id="Logo---Fab-Color" transform="translate(0.500000, 9.000000)">
                    <path d="M94.2527711,4.61538462 L94.2527711,4.61538462 C94.2531293,4.54365172 94.2237396,4.47477518 94.1711806,4.4241724 C94.1186217,4.37356962 94.0472828,4.34546656 93.9731325,4.34615385 L92.9128916,4.34615385 C92.3490806,4.34686125 91.8924092,4.78920343 91.8924096,5.33461538 L91.8924096,6.36025641 C91.8924088,6.4312035 91.9216336,6.49922623 91.9736174,6.54927294 C92.0256011,6.59931966 92.096058,6.62726417 92.1693976,6.62692308 L93.2296386,6.62692308 C93.7936655,6.62692491 94.2513099,6.18536227 94.2527711,5.63974359 L94.2527711,4.61538462 Z" id="Shape" fill="#4E4E4E"></path>
                    <path d="M67.500241,0.256410256 L66.453253,0.256410256 C66.1823746,0.256410035 65.92261,0.360592117 65.7311944,0.54600156 C65.5397787,0.731411003 65.4324193,0.982833456 65.4327711,1.24487179 L65.4327711,19.4871795 C65.4324185,19.5584658 65.4614453,19.6269494 65.5134289,19.6774772 C65.5654125,19.7280049 65.6360671,19.7564111 65.709759,19.7564103 L66.756747,19.7564103 C67.3205579,19.7557028 67.7772294,19.3133607 67.7772289,18.7679487 L67.7772289,0.529487179 C67.7782908,0.457640421 67.7496201,0.388363989 67.6975977,0.337076172 C67.6455754,0.285788356 67.5745183,0.256745075 67.500241,0.256410256" id="Shape" fill="#4E4E4E"></path>
                    <path d="M93.9638554,8.50769231 L92.9168675,8.50769231 C92.6463405,8.50769209 92.386913,8.6117391 92.1957459,8.79690811 C92.0045789,8.98207712 91.8973591,9.23317348 91.8977108,9.49487179 L91.8977108,19.4871795 L91.8977108,19.4871795 C91.8977108,19.6344554 92.0211292,19.7538462 92.1733735,19.7538462 L93.2203614,19.7538462 C93.4912399,19.7538464 93.7510045,19.6496643 93.9424201,19.4642548 C94.1338357,19.2788454 94.2411952,19.027423 94.2408434,18.7653846 L94.2408434,18.7653846 L94.2408434,8.77564103 C94.2401139,8.62744989 94.1157222,8.50769063 93.9625301,8.50769231" id="Shape" fill="#4E4E4E"></path>
                    <path d="M62.9518072,18.5897436 L62.9518072,18.5897436 C62.9413437,18.534513 62.9267266,18.4800949 62.9080723,18.4269231 L57.9792771,0.757692308 L57.9792771,0.757692308 C57.9218091,0.504413856 57.7081914,0.312043423 57.4429312,0.274693321 C57.1776709,0.237343219 56.9162277,0.362822482 56.786506,0.58974359 L46.6386747,19.2615385 L46.6386747,19.2615385 L46.5856627,19.3551282 L46.5856627,19.3551282 C46.5641342,19.3946687 46.5527695,19.4386443 46.5525301,19.4833333 C46.5525293,19.5546204 46.5818937,19.6229693 46.634126,19.6732564 C46.6863583,19.7235436 46.7571522,19.7516231 46.8308434,19.7512821 L48.3986747,19.7512821 C48.7972261,19.7524367 49.1598045,19.5284603 49.3263855,19.1782051 L51.1128916,15.8653846 C51.3707929,15.3356986 51.9315161,15.0069105 52.5362651,15.0307692 L58.2920482,15.0307692 C58.9063121,15.0333661 59.45449,15.4042616 59.6677108,15.9615385 L60.5795181,19.5294872 L60.5795181,19.5294872 C60.6010975,19.658143 60.7164739,19.7523319 60.8512048,19.7512821 L61.9459036,19.7512821 C62.2167682,19.7519653 62.4767423,19.6481786 62.6682731,19.4628982 C62.8598039,19.2776178 62.9670918,19.0261277 62.9663855,18.7641026 C62.9674071,18.7056623 62.9625245,18.6472653 62.9518072,18.5897436 L62.9518072,18.5897436 Z M58.6724096,12.0512821 C58.7187952,12.2397436 58.7466265,12.7538462 58.2257831,12.7538462 L53.5951807,12.7538462 C53.0306024,12.7538462 53.0650602,12.2269231 53.1975904,11.9923077 L56.5108434,5.83846154 C56.6791566,5.52692308 56.9773494,5.40641026 57.1019277,5.89102564 L58.6724096,12.0512821 Z" id="Shape" fill="#4E4E4E"></path>
                    <path d="M44.8892771,0.116666667 L29.8192771,5.90512821 L24.0648193,8.11794872 L24.0648193,8.10641026 C23.4935689,8.36974373 22.8201941,8.31639844 22.3008434,7.96666667 L22.3008434,7.96666667 L16.6537349,4.28846154 L11.6785542,1.03974359 C11.3325514,0.801906644 10.8959942,0.723154009 10.4846324,0.824366365 C10.0732707,0.925578722 9.72865901,1.19653188 9.54216867,1.56538462 L0.177590361,19.0384615 C-0.241204819,19.8205128 0.107349398,20.1923077 0.955542169,19.8705128 L16.6550602,13.8448718 L21.9098795,11.8282051 C22.1075961,11.7535376 22.317873,11.714854 22.5301205,11.7141026 C22.8965064,11.7141199 23.2539056,11.8238417 23.553253,12.0282051 L23.553253,12.0282051 L29.8192771,16.1102564 L34.1649398,18.9487179 C34.5114416,19.1873301 34.9489711,19.2662555 35.361086,19.1644895 C35.7732009,19.0627235 36.1180936,18.7905898 36.3039759,18.4205128 L45.6685542,0.95 C46.0873494,0.167948718 45.7374699,-0.203846154 44.8892771,0.116666667 L44.8892771,0.116666667 Z M17.956506,10.4628205 L16.6550602,10.9628205 L6.8186747,14.7435897 C6.40518072,14.9025641 5.90686747,15.0897436 5.75843373,14.9474359 C5.61,14.8051282 5.82072289,14.3064103 6.03409639,13.9115385 L10.5639759,5.46153846 C10.7707229,5.07692308 11.0768675,4.7 11.4598795,4.60128205 C11.8428916,4.5025641 12.32,4.68589744 12.703012,4.93717949 L16.6537349,7.51666667 L18.2374699,8.55 L18.2374699,8.55 C18.5184337,8.75 19.083012,9.12820513 19.083012,9.49230769 C19.083012,9.96666667 18.3912048,10.3051282 17.9604819,10.4589744 L17.956506,10.4628205 Z M29.8192771,8.78205128 L39.0261446,5.24615385 C39.0910843,5.22179487 39.1493976,5.20897436 39.2090361,5.19102564 C39.5907229,5.04615385 40.0042169,4.90897436 40.136747,5.03589744 C40.2878313,5.18333333 40.0744578,5.67692308 39.859759,6.07307692 L35.3325301,14.5217949 C35.1257831,14.9064103 34.8222892,15.2910256 34.4392771,15.3807692 C34.153012,15.4564103 33.826988,15.3807692 33.5221687,15.2269231 C33.3887378,15.1860581 33.2616703,15.1278325 33.1444578,15.0538462 L29.8312048,12.8846154 L28.05,11.7217949 C27.9996386,11.6692308 27.2813253,11.1666667 27.2428916,11.1051282 C27.0255422,10.9205128 26.8280723,10.7 26.8280723,10.4846154 C26.8280723,10.1102564 27.2601205,9.82051282 27.6537349,9.64102564 L29.8192771,8.78205128 Z" id="Shape" fill="#F47C20"></path>
                    <path d="M102.204578,8.15897436 C98.6408434,8.15897436 96.373253,10.8064103 96.373253,14.0730769 C96.373253,17.3397436 98.6368675,19.9871795 102.204578,19.9871795 C105.772289,19.9871795 108.035904,17.3397436 108.035904,14.0730769 C108.035904,10.8064103 105.768313,8.15769231 102.204578,8.15897436 Z M102.204578,17.6794872 C100.005904,17.6794872 98.7587952,16.0653846 98.7587952,14.0730769 C98.7587952,12.0807692 99.9992771,10.4666667 102.204578,10.4666667 C104.40988,10.4666667 105.650361,12.0807692 105.650361,14.0730769 C105.650361,16.0653846 104.403253,17.6782051 102.204578,17.6782051 L102.204578,17.6794872 Z" id="Shape" fill="#4E4E4E"></path>
                    <path d="M89.4671084,18.9012821 L89.3027711,18.5897436 C89.0020574,18.0019183 88.336094,17.6769295 87.6686747,17.7923077 C86.6998795,17.9666667 85.7854217,17.8410256 85.1506024,17.3487179 C84.5939759,16.9115385 84.396506,16.4333333 84.396506,14.9871795 L84.396506,10.9525641 C84.3943181,10.8772376 84.4241053,10.8043289 84.4789368,10.7508024 C84.5337683,10.6972758 84.6088627,10.6677991 84.686747,10.6692308 L87.8581928,10.6692308 C88.7365251,10.6692308 89.4485542,9.98043808 89.4485542,9.13076923 L89.4485542,8.74615385 C89.4435592,8.61301575 89.3304912,8.50760465 89.1927711,8.50769231 L84.6615663,8.50769231 C84.5151775,8.50769231 84.396506,8.39289353 84.396506,8.25128205 L84.396506,4.63461538 C84.3965068,4.55686792 84.3644894,4.48232336 84.3075348,4.42746804 C84.2505802,4.37261271 84.1733815,4.34196669 84.093012,4.34230769 L83.0844578,4.34230769 C82.5186654,4.34230769 82.06,4.78600499 82.06,5.33333333 L82.06,14.9769231 C82.06,16.9397436 82.429759,18.3884615 83.8849398,19.2730769 C84.7172289,19.7794872 86.0120482,19.9833333 87.0510843,19.9833333 C87.7833301,19.9724611 88.5080354,19.8384103 89.1927711,19.5871795 C89.3282368,19.5372583 89.4354482,19.4340837 89.4877575,19.3033003 C89.5400668,19.1725168 89.532562,19.0264052 89.4671084,18.9012821 L89.4671084,18.9012821 Z" id="Shape" fill="#4E4E4E"></path>
                    <path d="M77.9489157,8.77179487 C76.4433735,7.89487179 73.2520482,7.76538462 71.0679518,9.15641026 C70.9531976,9.23487585 70.8792604,9.35762773 70.8652774,9.49289397 C70.8512945,9.62816021 70.8986403,9.7626446 70.9950602,9.86153846 C71.0785542,9.94871795 71.156747,10.0307692 71.2057831,10.0782051 C71.7359036,10.6064103 72.4475904,10.7923077 73.1208434,10.5282051 C74.5124096,9.98076923 75.7422892,9.83717949 76.7150602,10.4897436 C77.4240964,10.9653846 77.4837349,11.5153846 77.4863855,11.9846154 C77.4865104,12.1095804 77.3848391,12.2124558 77.2557831,12.2179487 C75.5328916,12.2987179 73.8921687,12.5435897 72.749759,12.9871795 C71.4615663,13.4807692 70.0037349,14.5628205 70.0037349,16.3461538 C70.0037349,17.2987179 70.3337349,18.1410256 70.9712048,18.775641 C71.8989157,19.6730769 73.0174699,19.9871795 74.4368675,19.9871795 C75.4838554,19.9871795 76.6448193,19.4410256 77.3843373,18.7128205 C77.409262,18.689688 77.4460601,18.683194 77.4778231,18.6963226 C77.509586,18.7094511 77.5301714,18.7396634 77.5301205,18.7730769 L77.5301205,19.4794872 C77.5301205,19.6310115 77.657099,19.7538462 77.8137349,19.7538462 L78.8739759,19.7538462 C79.1365402,19.7538462 79.3883506,19.6529467 79.5740116,19.4733446 C79.7596726,19.2937424 79.8639759,19.0501496 79.8639759,18.7961538 L79.8639759,13.3679487 C79.86,11.2474359 79.5671084,9.71410256 77.9489157,8.77179487 Z" id="Shape" fill="#4E4E4E"></path>
                    <path d="M76.7203614,16.8692308 C75.9636145,17.7 75.0107229,18.0025641 74.3507229,18 C73.246747,18 72.3455422,17.3589744 72.3455422,16.3102564 C72.3455422,15.4679487 73.0161446,14.9115385 73.7636145,14.6205128 C74.5972289,14.2961538 76.0484337,14.1474359 77.3074699,14.1320513 C77.3696693,14.1313626 77.4295478,14.1548726 77.4736568,14.197301 C77.5177657,14.2397295 77.5424077,14.2975197 77.5420482,14.3576923 L77.5420482,14.7551282 C77.5708267,15.5376759 77.2749734,16.2988712 76.7203614,16.8692308 L76.7203614,16.8692308 Z" id="Shape" fill="#FFFFFF"></path>
                    <path d="M115.698795,8.15897436 C114.572782,8.1459578 113.490386,8.57961281 112.703614,9.35897436 C112.674967,9.38695865 112.631721,9.39550762 112.594021,9.38063918 C112.556321,9.36577073 112.531581,9.33040906 112.531325,9.29102564 L112.531325,8.77564103 C112.531326,8.70435392 112.501962,8.6360051 112.449729,8.58571795 C112.397497,8.5354308 112.326703,8.50735122 112.253012,8.50769231 L111.204699,8.50769231 C110.644929,8.50838503 110.190507,8.945688 110.186867,9.48717949 L110.186867,19.4871795 L110.186867,19.4871795 C110.186867,19.6344554 110.310286,19.7538462 110.46253,19.7538462 L111.509518,19.7538462 C111.780396,19.7538464 112.040161,19.6496643 112.231577,19.4642548 C112.422992,19.2788454 112.530352,19.027423 112.53,18.7653846 L112.53,18.7653846 L112.53,13.575641 C112.53,11.8102564 113.889759,10.524359 115.696145,10.524359 C117.707952,10.524359 118.593253,12.3025641 118.593253,13.4192308 L118.593253,19.4871795 C118.593253,19.6351635 118.717265,19.7551282 118.870241,19.7551282 L119.918554,19.7551282 C120.188851,19.7551282 120.448078,19.6512572 120.639207,19.4663655 C120.830336,19.2814739 120.937711,19.030707 120.937711,18.7692308 L120.937711,13.3448718 C120.960017,11.9833903 120.419149,10.6697056 119.435349,9.69586098 C118.451548,8.72201633 117.106347,8.16871998 115.698795,8.15897436 L115.698795,8.15897436 Z" id="Shape" fill="#4E4E4E"></path>
                </g>
                <g id="Logo---Fab-Color" transform="translate(0.500000, 9.000000)">
                    <path d="M94.2527711,4.61538462 L94.2527711,4.61538462 C94.2531293,4.54365172 94.2237396,4.47477518 94.1711806,4.4241724 C94.1186217,4.37356962 94.0472828,4.34546656 93.9731325,4.34615385 L92.9128916,4.34615385 C92.3490806,4.34686125 91.8924092,4.78920343 91.8924096,5.33461538 L91.8924096,6.36025641 C91.8924088,6.4312035 91.9216336,6.49922623 91.9736174,6.54927294 C92.0256011,6.59931966 92.096058,6.62726417 92.1693976,6.62692308 L93.2296386,6.62692308 C93.7936655,6.62692491 94.2513099,6.18536227 94.2527711,5.63974359 L94.2527711,4.61538462 Z" id="Shape" fill="#4E4E4E"></path>
                    <path d="M67.500241,0.256410256 L66.453253,0.256410256 C66.1823746,0.256410035 65.92261,0.360592117 65.7311944,0.54600156 C65.5397787,0.731411003 65.4324193,0.982833456 65.4327711,1.24487179 L65.4327711,19.4871795 C65.4324185,19.5584658 65.4614453,19.6269494 65.5134289,19.6774772 C65.5654125,19.7280049 65.6360671,19.7564111 65.709759,19.7564103 L66.756747,19.7564103 C67.3205579,19.7557028 67.7772294,19.3133607 67.7772289,18.7679487 L67.7772289,0.529487179 C67.7782908,0.457640421 67.7496201,0.388363989 67.6975977,0.337076172 C67.6455754,0.285788356 67.5745183,0.256745075 67.500241,0.256410256" id="Shape" fill="#4E4E4E"></path>
                    <path d="M93.9638554,8.50769231 L92.9168675,8.50769231 C92.6463405,8.50769209 92.386913,8.6117391 92.1957459,8.79690811 C92.0045789,8.98207712 91.8973591,9.23317348 91.8977108,9.49487179 L91.8977108,19.4871795 L91.8977108,19.4871795 C91.8977108,19.6344554 92.0211292,19.7538462 92.1733735,19.7538462 L93.2203614,19.7538462 C93.4912399,19.7538464 93.7510045,19.6496643 93.9424201,19.4642548 C94.1338357,19.2788454 94.2411952,19.027423 94.2408434,18.7653846 L94.2408434,18.7653846 L94.2408434,8.77564103 C94.2401139,8.62744989 94.1157222,8.50769063 93.9625301,8.50769231" id="Shape" fill="#4E4E4E"></path>
                    <path d="M62.9518072,18.5897436 L62.9518072,18.5897436 C62.9413437,18.534513 62.9267266,18.4800949 62.9080723,18.4269231 L57.9792771,0.757692308 L57.9792771,0.757692308 C57.9218091,0.504413856 57.7081914,0.312043423 57.4429312,0.274693321 C57.1776709,0.237343219 56.9162277,0.362822482 56.786506,0.58974359 L46.6386747,19.2615385 L46.6386747,19.2615385 L46.5856627,19.3551282 L46.5856627,19.3551282 C46.5641342,19.3946687 46.5527695,19.4386443 46.5525301,19.4833333 C46.5525293,19.5546204 46.5818937,19.6229693 46.634126,19.6732564 C46.6863583,19.7235436 46.7571522,19.7516231 46.8308434,19.7512821 L48.3986747,19.7512821 C48.7972261,19.7524367 49.1598045,19.5284603 49.3263855,19.1782051 L51.1128916,15.8653846 C51.3707929,15.3356986 51.9315161,15.0069105 52.5362651,15.0307692 L58.2920482,15.0307692 C58.9063121,15.0333661 59.45449,15.4042616 59.6677108,15.9615385 L60.5795181,19.5294872 L60.5795181,19.5294872 C60.6010975,19.658143 60.7164739,19.7523319 60.8512048,19.7512821 L61.9459036,19.7512821 C62.2167682,19.7519653 62.4767423,19.6481786 62.6682731,19.4628982 C62.8598039,19.2776178 62.9670918,19.0261277 62.9663855,18.7641026 C62.9674071,18.7056623 62.9625245,18.6472653 62.9518072,18.5897436 L62.9518072,18.5897436 Z M58.6724096,12.0512821 C58.7187952,12.2397436 58.7466265,12.7538462 58.2257831,12.7538462 L53.5951807,12.7538462 C53.0306024,12.7538462 53.0650602,12.2269231 53.1975904,11.9923077 L56.5108434,5.83846154 C56.6791566,5.52692308 56.9773494,5.40641026 57.1019277,5.89102564 L58.6724096,12.0512821 Z" id="Shape" fill="#4E4E4E"></path>
                    <path d="M44.8892771,0.116666667 L29.8192771,5.90512821 L24.0648193,8.11794872 L24.0648193,8.10641026 C23.4935689,8.36974373 22.8201941,8.31639844 22.3008434,7.96666667 L22.3008434,7.96666667 L16.6537349,4.28846154 L11.6785542,1.03974359 C11.3325514,0.801906644 10.8959942,0.723154009 10.4846324,0.824366365 C10.0732707,0.925578722 9.72865901,1.19653188 9.54216867,1.56538462 L0.177590361,19.0384615 C-0.241204819,19.8205128 0.107349398,20.1923077 0.955542169,19.8705128 L16.6550602,13.8448718 L21.9098795,11.8282051 C22.1075961,11.7535376 22.317873,11.714854 22.5301205,11.7141026 C22.8965064,11.7141199 23.2539056,11.8238417 23.553253,12.0282051 L23.553253,12.0282051 L29.8192771,16.1102564 L34.1649398,18.9487179 C34.5114416,19.1873301 34.9489711,19.2662555 35.361086,19.1644895 C35.7732009,19.0627235 36.1180936,18.7905898 36.3039759,18.4205128 L45.6685542,0.95 C46.0873494,0.167948718 45.7374699,-0.203846154 44.8892771,0.116666667 L44.8892771,0.116666667 Z M17.956506,10.4628205 L16.6550602,10.9628205 L6.8186747,14.7435897 C6.40518072,14.9025641 5.90686747,15.0897436 5.75843373,14.9474359 C5.61,14.8051282 5.82072289,14.3064103 6.03409639,13.9115385 L10.5639759,5.46153846 C10.7707229,5.07692308 11.0768675,4.7 11.4598795,4.60128205 C11.8428916,4.5025641 12.32,4.68589744 12.703012,4.93717949 L16.6537349,7.51666667 L18.2374699,8.55 L18.2374699,8.55 C18.5184337,8.75 19.083012,9.12820513 19.083012,9.49230769 C19.083012,9.96666667 18.3912048,10.3051282 17.9604819,10.4589744 L17.956506,10.4628205 Z M29.8192771,8.78205128 L39.0261446,5.24615385 C39.0910843,5.22179487 39.1493976,5.20897436 39.2090361,5.19102564 C39.5907229,5.04615385 40.0042169,4.90897436 40.136747,5.03589744 C40.2878313,5.18333333 40.0744578,5.67692308 39.859759,6.07307692 L35.3325301,14.5217949 C35.1257831,14.9064103 34.8222892,15.2910256 34.4392771,15.3807692 C34.153012,15.4564103 33.826988,15.3807692 33.5221687,15.2269231 C33.3887378,15.1860581 33.2616703,15.1278325 33.1444578,15.0538462 L29.8312048,12.8846154 L28.05,11.7217949 C27.9996386,11.6692308 27.2813253,11.1666667 27.2428916,11.1051282 C27.0255422,10.9205128 26.8280723,10.7 26.8280723,10.4846154 C26.8280723,10.1102564 27.2601205,9.82051282 27.6537349,9.64102564 L29.8192771,8.78205128 Z" id="Shape" fill="#F47C20"></path>
                    <path d="M102.204578,8.15897436 C98.6408434,8.15897436 96.373253,10.8064103 96.373253,14.0730769 C96.373253,17.3397436 98.6368675,19.9871795 102.204578,19.9871795 C105.772289,19.9871795 108.035904,17.3397436 108.035904,14.0730769 C108.035904,10.8064103 105.768313,8.15769231 102.204578,8.15897436 Z M102.204578,17.6794872 C100.005904,17.6794872 98.7587952,16.0653846 98.7587952,14.0730769 C98.7587952,12.0807692 99.9992771,10.4666667 102.204578,10.4666667 C104.40988,10.4666667 105.650361,12.0807692 105.650361,14.0730769 C105.650361,16.0653846 104.403253,17.6782051 102.204578,17.6782051 L102.204578,17.6794872 Z" id="Shape" fill="#4E4E4E"></path>
                    <path d="M89.4671084,18.9012821 L89.3027711,18.5897436 C89.0020574,18.0019183 88.336094,17.6769295 87.6686747,17.7923077 C86.6998795,17.9666667 85.7854217,17.8410256 85.1506024,17.3487179 C84.5939759,16.9115385 84.396506,16.4333333 84.396506,14.9871795 L84.396506,10.9525641 C84.3943181,10.8772376 84.4241053,10.8043289 84.4789368,10.7508024 C84.5337683,10.6972758 84.6088627,10.6677991 84.686747,10.6692308 L87.8581928,10.6692308 C88.7365251,10.6692308 89.4485542,9.98043808 89.4485542,9.13076923 L89.4485542,8.74615385 C89.4435592,8.61301575 89.3304912,8.50760465 89.1927711,8.50769231 L84.6615663,8.50769231 C84.5151775,8.50769231 84.396506,8.39289353 84.396506,8.25128205 L84.396506,4.63461538 C84.3965068,4.55686792 84.3644894,4.48232336 84.3075348,4.42746804 C84.2505802,4.37261271 84.1733815,4.34196669 84.093012,4.34230769 L83.0844578,4.34230769 C82.5186654,4.34230769 82.06,4.78600499 82.06,5.33333333 L82.06,14.9769231 C82.06,16.9397436 82.429759,18.3884615 83.8849398,19.2730769 C84.7172289,19.7794872 86.0120482,19.9833333 87.0510843,19.9833333 C87.7833301,19.9724611 88.5080354,19.8384103 89.1927711,19.5871795 C89.3282368,19.5372583 89.4354482,19.4340837 89.4877575,19.3033003 C89.5400668,19.1725168 89.532562,19.0264052 89.4671084,18.9012821 L89.4671084,18.9012821 Z" id="Shape" fill="#4E4E4E"></path>
                    <path d="M77.9489157,8.77179487 C76.4433735,7.89487179 73.2520482,7.76538462 71.0679518,9.15641026 C70.9531976,9.23487585 70.8792604,9.35762773 70.8652774,9.49289397 C70.8512945,9.62816021 70.8986403,9.7626446 70.9950602,9.86153846 C71.0785542,9.94871795 71.156747,10.0307692 71.2057831,10.0782051 C71.7359036,10.6064103 72.4475904,10.7923077 73.1208434,10.5282051 C74.5124096,9.98076923 75.7422892,9.83717949 76.7150602,10.4897436 C77.4240964,10.9653846 77.4837349,11.5153846 77.4863855,11.9846154 C77.4865104,12.1095804 77.3848391,12.2124558 77.2557831,12.2179487 C75.5328916,12.2987179 73.8921687,12.5435897 72.749759,12.9871795 C71.4615663,13.4807692 70.0037349,14.5628205 70.0037349,16.3461538 C70.0037349,17.2987179 70.3337349,18.1410256 70.9712048,18.775641 C71.8989157,19.6730769 73.0174699,19.9871795 74.4368675,19.9871795 C75.4838554,19.9871795 76.6448193,19.4410256 77.3843373,18.7128205 C77.409262,18.689688 77.4460601,18.683194 77.4778231,18.6963226 C77.509586,18.7094511 77.5301714,18.7396634 77.5301205,18.7730769 L77.5301205,19.4794872 C77.5301205,19.6310115 77.657099,19.7538462 77.8137349,19.7538462 L78.8739759,19.7538462 C79.1365402,19.7538462 79.3883506,19.6529467 79.5740116,19.4733446 C79.7596726,19.2937424 79.8639759,19.0501496 79.8639759,18.7961538 L79.8639759,13.3679487 C79.86,11.2474359 79.5671084,9.71410256 77.9489157,8.77179487 Z" id="Shape" fill="#4E4E4E"></path>
                    <path d="M76.7203614,16.8692308 C75.9636145,17.7 75.0107229,18.0025641 74.3507229,18 C73.246747,18 72.3455422,17.3589744 72.3455422,16.3102564 C72.3455422,15.4679487 73.0161446,14.9115385 73.7636145,14.6205128 C74.5972289,14.2961538 76.0484337,14.1474359 77.3074699,14.1320513 C77.3696693,14.1313626 77.4295478,14.1548726 77.4736568,14.197301 C77.5177657,14.2397295 77.5424077,14.2975197 77.5420482,14.3576923 L77.5420482,14.7551282 C77.5708267,15.5376759 77.2749734,16.2988712 76.7203614,16.8692308 L76.7203614,16.8692308 Z" id="Shape" fill="#FFFFFF"></path>
                    <path d="M115.698795,8.15897436 C114.572782,8.1459578 113.490386,8.57961281 112.703614,9.35897436 C112.674967,9.38695865 112.631721,9.39550762 112.594021,9.38063918 C112.556321,9.36577073 112.531581,9.33040906 112.531325,9.29102564 L112.531325,8.77564103 C112.531326,8.70435392 112.501962,8.6360051 112.449729,8.58571795 C112.397497,8.5354308 112.326703,8.50735122 112.253012,8.50769231 L111.204699,8.50769231 C110.644929,8.50838503 110.190507,8.945688 110.186867,9.48717949 L110.186867,19.4871795 L110.186867,19.4871795 C110.186867,19.6344554 110.310286,19.7538462 110.46253,19.7538462 L111.509518,19.7538462 C111.780396,19.7538464 112.040161,19.6496643 112.231577,19.4642548 C112.422992,19.2788454 112.530352,19.027423 112.53,18.7653846 L112.53,18.7653846 L112.53,13.575641 C112.53,11.8102564 113.889759,10.524359 115.696145,10.524359 C117.707952,10.524359 118.593253,12.3025641 118.593253,13.4192308 L118.593253,19.4871795 C118.593253,19.6351635 118.717265,19.7551282 118.870241,19.7551282 L119.918554,19.7551282 C120.188851,19.7551282 120.448078,19.6512572 120.639207,19.4663655 C120.830336,19.2814739 120.937711,19.030707 120.937711,18.7692308 L120.937711,13.3448718 C120.960017,11.9833903 120.419149,10.6697056 119.435349,9.69586098 C118.451548,8.72201633 117.106347,8.16871998 115.698795,8.15897436 L115.698795,8.15897436 Z" id="Shape" fill="#4E4E4E"></path>
                </g>
            </g>
            <g id="Browser">
                <g>
                    <g id="Group-10">
                        <rect id="Rectangle-6" fill="#DEDEDE" x="0" y="0" width="1280" height="38"></rect>
                        <rect id="Rectangle-6-Copy" fill="#F2F2F2" x="0" y="38" width="1280" height="37"></rect>
                        <rect id="Rectangle-9" fill="#9C9C9C" x="0" y="75" width="1280" height="1"></rect>
                    </g>
                    <path d="M83.6143296,9.93203671 C83.8273295,9.41728705 84.4430762,9 85.0047207,9 L219.995279,9 C220.550171,9 221.169636,9.40995312 221.38567,9.93203671 L233,38 L72,38 L83.6143296,9.93203671 Z" id="Rectangle-7" fill="#F2F2F2"></path>
                    <rect id="Rectangle-10" fill="#FFFFFF" x="92" y="43" width="1148" height="27" rx="2"></rect>
                    <g id="Group-7" transform="translate(12.000000, 13.000000)">
                        <circle id="Oval-Copy" fill="#FF6059" cx="6" cy="6" r="6"></circle>
                        <circle id="Oval-Copy-2" fill="#FFBF2F" cx="26" cy="6" r="6"></circle>
                        <circle id="Oval-Copy-3" fill="#29CC41" cx="46" cy="6" r="6"></circle>
                    </g>
                    <g id="Group-8" transform="translate(90.000000, 17.000000)">
                        <text id="Alation" font-family="HelveticaNeue, Helvetica Neue" font-size="14" font-weight="normal" fill="#000000">
                            <tspan x="24" y="13">Alation</tspan>
                        </text>
                        <g id="Group-5">
                            <rect id="Rectangle-11" fill="#000000" x="0" y="0" width="16" height="16" rx="2"></rect>
                            <path d="M14.671875,4.66015625 C14.7994798,4.60546848 14.8860675,4.60546848 14.9316406,4.66015625 C14.9772138,4.71484402 14.9726565,4.80598895 14.9179687,4.93359375 L12.046875,10.4296875 C11.9921872,10.539063 11.9010423,10.611979 11.7734375,10.6484375 C11.6458327,10.684896 11.5273443,10.666667 11.4179687,10.59375 L8.19140625,8.40625 C8.10025996,8.35156223 7.99088605,8.32421875 7.86328125,8.32421875 C7.80859348,8.32421875 7.74479203,8.33333324 7.671875,8.3515625 L1.30078125,10.8671875 C1.1914057,10.9218753 1.10937527,10.9218753 1.0546875,10.8671875 C0.999999727,10.8124997 1.00911422,10.7304693 1.08203125,10.6210938 L3.92578125,5.125 C3.99869828,4.9973952 4.0989577,4.91536477 4.2265625,4.87890625 C4.3541673,4.84244773 4.4726557,4.86979121 4.58203125,4.9609375 L6.0859375,5.97265625 L7.80859375,7.12109375 C7.89974004,7.19401078 7.99999945,7.23046875 8.109375,7.23046875 C8.20052129,7.23046875 8.28255172,7.21223977 8.35546875,7.17578125 L14.671875,4.66015625 Z M6.49609375,7.9140625 C6.71484484,7.82291621 6.82421875,7.7226568 6.82421875,7.61328125 C6.82421875,7.54036422 6.74218832,7.4401048 6.578125,7.3125 L4.91015625,6.19140625 C4.74609293,6.0820307 4.61849004,6.04557273 4.52734375,6.08203125 C4.4179682,6.10026051 4.32682328,6.18229094 4.25390625,6.328125 L2.859375,9.0078125 C2.76822871,9.19010508 2.74088523,9.29036449 2.77734375,9.30859375 C2.81380227,9.34505227 2.92317617,9.32682328 3.10546875,9.25390625 L6.0859375,8.078125 L6.49609375,7.9140625 Z M10.1054688,7.39453125 L9.44921875,7.640625 C9.26692617,7.73177129 9.17578125,7.82291621 9.17578125,7.9140625 C9.17578125,7.96875027 9.22135371,8.03255172 9.3125,8.10546875 C9.3125,8.12369801 9.35351521,8.16015598 9.43554688,8.21484375 L9.55859375,8.296875 L10.1054688,8.6796875 L11.1171875,9.36328125 C11.1354168,9.38151051 11.1718747,9.39973949 11.2265625,9.41796875 C11.335938,9.47265652 11.427083,9.49088551 11.5,9.47265625 C11.6093755,9.43619773 11.7005205,9.34505281 11.7734375,9.19921875 L13.140625,6.546875 C13.2317713,6.36458242 13.2682293,6.25520852 13.25,6.21875 C13.2135415,6.18229148 13.1132821,6.20052047 12.9492188,6.2734375 L12.8945312,6.2734375 L10.1054688,7.39453125 Z" id="" fill="#FFFFFF"></path>
                        </g>
                    </g>
                    <g id="Group-9" transform="translate(12.000000, 46.000000)">
                        <g id="ic_refresh_black_24px" transform="translate(50.000000, 0.000000)">
                            <g id="Group">
                                <path d="M14.7083333,5.29166667 C13.5,4.08333333 11.8416667,3.33333333 10,3.33333333 C6.31666667,3.33333333 3.34166667,6.31666667 3.34166667,10 C3.34166667,13.6833333 6.31666667,16.6666667 10,16.6666667 C13.1083333,16.6666667 15.7,14.5416667 16.4416667,11.6666667 L14.7083333,11.6666667 C14.025,13.6083333 12.175,15 10,15 C7.24166667,15 5,12.7583333 5,10 C5,7.24166667 7.24166667,5 10,5 C11.3833333,5 12.6166667,5.575 13.5166667,6.48333333 L10.8333333,9.16666667 L16.6666667,9.16666667 L16.6666667,3.33333333 L14.7083333,5.29166667 Z" id="Shape" fill="#6D6D6D" fill-rule="nonzero"></path>
                                <polygon id="Shape" points="0 0 20 0 20 20 0 20"></polygon>
                            </g>
                        </g>
                        <g id="ic_arrow_forward_black_24px" transform="translate(25.000000, 0.000000)">
                            <g id="Group">
                                <polygon id="Shape" points="0 0 20 0 20 20 0 20"></polygon>
                                <polygon id="Shape" fill="#6D6D6D" fill-rule="nonzero" points="10 3.33333333 8.825 4.50833333 13.475 9.16666667 3.33333333 9.16666667 3.33333333 10.8333333 13.475 10.8333333 8.825 15.4916667 10 16.6666667 16.6666667 10"></polygon>
                            </g>
                        </g>
                        <g id="ic_arrow_back_black_24px">
                            <g id="Group">
                                <polygon id="Shape" points="0 0 20 0 20 20 0 20"></polygon>
                                <polygon id="Shape" fill="#6D6D6D" fill-rule="nonzero" points="16.6666667 9.16666667 6.525 9.16666667 11.1833333 4.50833333 10 3.33333333 3.33333333 10 10 16.6666667 11.175 15.4916667 6.525 10.8333333 16.6666667 10.8333333"></polygon>
                            </g>
                        </g>
                    </g>
                    <text id="URL" font-family="HelveticaNeue, Helvetica Neue" font-size="14" font-weight="normal" fill="#000000">
                        <tspan x="109" y="61">alation.com/</tspan>
                    </text>
                </g>
            </g>
            <g id="Group-2" transform="translate(297.000000, 415.000000)">
                <text id="Header" font-family="HelveticaNeue-Medium, Helvetica Neue" font-size="24" font-weight="400" fill="#F57C00">
                    <tspan x="10" y="23.911499">You do not have permission </tspan>
                    <tspan x="10" y="52.607666">to view this page.</tspan>
                </text>
                <text id="Subheader" font-family="HelveticaNeue-Medium, Helvetica Neue" font-size="18" font-weight="400" fill="#4E4E4E">
                    <tspan x="10" y="100">Error code: 403</tspan>
                </text>
                <g id="Group" transform="translate(0.000000, 129.000000)">
                    <g id="Buttons-/-Std-/-All">
                        <g id="Buttons-/-Std-/-Primary">
                            <g id="Buttons-/-Primary">
                                <rect id="Backing" fill="#009688" x="12" y="0" width="89" height="26" rx="2"></rect>
                                <text id="Button-Text" font-family="HelveticaNeue-Medium, Helvetica Neue" font-size="14" font-weight="400" fill="#FFFFFF">
                                    <tspan x="21.101" y="18">Homepage</tspan>
                                </text>
                            </g>
                        </g>
                    </g>
                </g>
                <text id="Report-an-error-to-s" font-family="HelveticaNeue, Helvetica Neue" font-size="14" font-weight="normal">
                    <tspan x="9" y="192" fill="#4E4E4E">Report an error to </tspan>
                    <tspan x="124.122" y="192" fill="#0288D1">support@alation.com</tspan>
                    <tspan x="256.688" y="192" fill="#4E4E4E">.</tspan>
                </text>
            </g>
            <g id="Group-31-Copy" transform="translate(711.000000, 293.000000)">
                <g id="arm1-copy-24" transform="translate(7.995392, 191.112933)">
                    <path d="M78.7978135,2.80194689 C37.8320364,2.80194689 4.62271249,36.0152803 4.62271249,76.9860033 C4.62271249,98.9905332 14.2020829,118.757411 29.4175932,132.342931" id="Oval-6" stroke="#959595" stroke-width="16.8" transform="translate(41.710263, 67.572439) rotate(-356.000000) translate(-41.710263, -67.572439) "></path>
                    <path d="M42.4698922,158.360612 C46.6807728,154.883332 49.3645691,149.62229 49.3645691,143.734339 C49.3645691,133.263889 40.8776174,124.775913 30.4084319,124.775913 C19.9392464,124.775913 11.4522947,133.263889 11.4522947,143.734339 C11.4522947,149.526893 14.0498287,154.712687 18.1435028,158.190194" id="Oval-5" stroke="url(#linearGradient-1)" stroke-width="15.2" transform="translate(30.408432, 141.568262) rotate(-45.000000) translate(-30.408432, -141.568262) "></path>
                </g>
                <path d="M296.545126,132.038038 C255.579349,132.038038 222.370025,165.251372 222.370025,206.222095" id="Oval-6-Copy-8" stroke="#959595" stroke-width="16.8" transform="translate(259.457576, 169.130067) scale(-1, -1) rotate(-356.000000) translate(-259.457576, -169.130067) "></path>
                <rect id="Rectangle-3-Copy-73" fill="url(#linearGradient-2)" transform="translate(66.761521, 201.108379) scale(-1, 1) translate(-66.761521, -201.108379) " x="59.9654378" y="183.116576" width="13.5921659" height="35.9836066" rx="3.2"></rect>
                <path d="M165.169859,78.0872107 L165.169859,78.0872107 C171.383749,78.0872107 176.421102,73.0492496 176.421102,66.8346097" id="Oval-3-Copy-50" stroke="#4E4E4E" stroke-width="2.4" stroke-linecap="round" stroke-linejoin="round" transform="translate(170.795481, 72.460910) rotate(-345.000000) translate(-170.795481, -72.460910) "></path>
                <path d="M70.359447,90.3588342 C72.1257402,90.3588342 73.5576037,91.2180561 73.5576037,92.2779599 L73.5576037,110.029872 C73.5576037,111.089776 72.1257402,111.948998 70.359447,111.948998 L63.1635945,111.948998 C61.3973013,111.948998 59.9654378,111.089776 59.9654378,110.029872 L59.9654378,92.2779599 C59.9654378,91.2180561 61.3973013,90.3588342 63.1635945,90.3588342 L70.359447,90.3588342 Z" id="Rectangle-3-Copy-74" fill="#6A6A6A"></path>
                <path d="M239.861751,90.3588342 C241.628044,90.3588342 243.059908,91.2180561 243.059908,92.2779599 L243.059908,110.029872 C243.059908,111.089776 241.628044,111.948998 239.861751,111.948998 L232.665899,111.948998 C230.899605,111.948998 229.467742,111.089776 229.467742,110.029872 L229.467742,92.2779599 C229.467742,91.2180561 230.899605,90.3588342 232.665899,90.3588342 L239.861751,90.3588342 Z" id="Rectangle-3-Copy-75" fill="#6A6A6A"></path>
                <rect id="Rectangle-2-Copy-32" fill="#959595" transform="translate(189.890553, 368.232240) scale(-1, 1) translate(-189.890553, -368.232240) " x="181.495392" y="327.850638" width="16.7903226" height="80.7632058"></rect>
                <rect id="Rectangle-2-Copy-33" fill="#959595" transform="translate(112.335253, 368.232240) scale(-1, 1) translate(-112.335253, -368.232240) " x="103.940092" y="327.850638" width="16.7903226" height="80.7632058"></rect>
                <rect id="Rectangle-3-Copy-76" fill="url(#linearGradient-2)" transform="translate(236.263825, 201.908015) scale(-1, 1) translate(-236.263825, -201.908015) " x="229.467742" y="183.916211" width="13.5921659" height="35.9836066" rx="3.2"></rect>
                <rect id="Rectangle-2-Copy-34" fill="#959595" transform="translate(151.512673, 164.325137) scale(-1, 1) translate(-151.512673, -164.325137) " x="143.117512" y="144.734062" width="16.7903226" height="39.1821494"></rect>
                <polyline id="Path-2-Copy-25" stroke="#6A6A6A" stroke-width="4" stroke-linecap="round" stroke-linejoin="round" transform="translate(152.698882, 41.929025) scale(-1, 1) translate(-152.698882, -41.929025) " points="155.105877 23.989071 147.115207 40.7364019 158.282556 36.3871243 147.115207 59.8689785"></polyline>
                <g id="Rectangle-Copy-53" transform="translate(151.512673, 100.754098) scale(-1, 1) translate(-151.512673, -100.754098) ">
                    <use fill="black" fill-opacity="1" filter="url(#filter-5)" xlink:href="#path-4"></use>
                    <use fill="url(#linearGradient-3)" fill-rule="evenodd" xlink:href="#path-4"></use>
                </g>
                <g id="Rectangle-Copy-54" transform="translate(151.512673, 255.083789) scale(-1, 1) translate(-151.512673, -255.083789) ">
                    <use fill="black" fill-opacity="1" filter="url(#filter-7)" xlink:href="#path-6"></use>
                    <use fill="url(#linearGradient-3)" fill-rule="evenodd" xlink:href="#path-6"></use>
                </g>
                <g id="Group-Copy-25" transform="translate(150.713134, 100.754098) scale(-1, 1) translate(-150.713134, -100.754098) translate(89.548387, 79.163934)">
                    <g id="Oval">
                        <use fill="url(#linearGradient-8)" fill-rule="evenodd" xlink:href="#path-10"></use>
                        <ellipse stroke="url(#radialGradient-9)" stroke-width="5.6" cx="21.5875576" cy="21.5901639" rx="18.7875576" ry="18.7901639"></ellipse>
                    </g>
                    <g id="Oval-Copy">
                        <use fill="url(#linearGradient-8)" fill-rule="evenodd" xlink:href="#path-11"></use>
                        <ellipse stroke="url(#radialGradient-9)" stroke-width="5.6" cx="100.741935" cy="21.5901639" rx="18.7875576" ry="18.7901639"></ellipse>
                    </g>
                </g>
                <g id="Group-7-Copy-21" transform="translate(151.912442, 202.307832) scale(-1, 1) translate(-151.912442, -202.307832) translate(105.539171, 195.111111)" fill="url(#radialGradient-12)">
                    <ellipse id="Oval-2-Copy-9" cx="7.72945516" cy="7.19672131" rx="7.19585253" ry="7.19672131"></ellipse>
                    <ellipse id="Oval-2-Copy-10" cx="46.9068745" cy="7.19672131" rx="7.19585253" ry="7.19672131"></ellipse>
                    <ellipse id="Oval-2-Copy-11" cx="85.2847547" cy="7.19672131" rx="7.19585253" ry="7.19672131"></ellipse>
                </g>
                <path d="M68.3605991,234.693078 L234.734257,234.693078" id="Line-Copy-24" stroke="#6A6A6A" stroke-width="2.4" opacity="0.493999094" stroke-linecap="square" transform="translate(151.512673, 234.693078) scale(-1, 1) translate(-151.512673, -234.693078) "></path>
                <g id="Group-2-Copy-50" transform="translate(110.736175, 101.153916) scale(-1, 1) translate(-110.736175, -101.153916) translate(101.541475, 92.757741)" stroke="#FFFFFF" stroke-width="1.6" stroke-linecap="round" stroke-linejoin="round">
                    <path d="M0,3.99817851 L12.3264814,16.3261481" id="Path-3"></path>
                    <path d="M5.59677419,0 L17.9232556,12.3279696" id="Path-3-Copy"></path>
                </g>
                <g id="Group-2-Copy-51" transform="translate(189.890553, 101.153916) scale(-1, 1) translate(-189.890553, -101.153916) translate(180.695853, 92.757741)" stroke="#FFFFFF" stroke-width="1.6" stroke-linecap="round" stroke-linejoin="round">
                    <path d="M0,3.99817851 L12.3264814,16.3261481" id="Path-3"></path>
                    <path d="M5.59677419,0 L17.9232556,12.3279696" id="Path-3-Copy"></path>
                </g>
                <path d="M165.189016,17.9185414 L183.35905,10.7034326 C183.487997,10.6542541 183.602036,10.6267874 183.721044,10.5899036 C184.47354,10.2950944 185.284102,10.0157188 185.541997,10.2733826 C185.839124,10.5744699 185.419065,11.572165 184.995083,12.3888414 L176.059284,29.6277248 C175.650995,30.4177194 175.05177,31.1849557 174.297181,31.3811464 C173.732481,31.5346983 173.088007,31.3683286 172.485905,31.0680261 C172.23115,30.9853644 171.98241,30.8744513 171.740209,30.7148828 L165.189016,26.2880362 L161.674226,23.914652 C161.57562,23.8068779 160.157986,22.7814546 160.081089,22.6556309 C159.651352,22.2781601 159.261634,21.8297989 159.261634,21.390855 C159.261634,20.6262345 160.114829,20.0368776 160.891912,19.6685623 L165.189016,17.9185414 Z M141.775569,21.3479546 L139.206042,22.3668383 L119.795971,30.0763476 C118.979393,30.4012393 117.996989,30.782634 117.711631,30.4935798 C117.410842,30.192754 117.834301,29.1984596 118.254883,28.3789057 L127.188329,11.1426382 C127.596617,10.3565675 128.201073,9.5890695 128.956186,9.38633912 C129.729868,9.18073128 130.653684,9.55820216 131.409319,10.0711754 L142.331375,17.442452 L142.322482,17.4547466 C142.877504,17.8630848 143.991994,18.6337218 143.991994,19.3768922 C143.991994,20.3439815 142.62641,21.0345727 141.775569,21.3479546 L141.775569,21.3479546 Z M194.929503,0.23731334 L165.189016,12.048516 L153.830946,16.564564 L153.821269,16.5399748 C153.366946,16.7515992 152.86999,16.8776844 152.338769,16.8776844 C151.59595,16.8776844 150.90832,16.6472257 150.340482,16.2543212 L150.331589,16.2634767 L139.206042,8.75094288 L129.386184,2.12257506 C127.894268,1.11232381 125.993802,1.59416814 125.164931,3.19403781 L106.688353,38.845025 C105.86236,40.4409708 106.54999,41.2055914 108.222902,40.5422052 L139.206042,28.2373868 L149.576215,24.1231373 C149.959918,23.9758635 150.371084,23.8900628 150.801082,23.8900628 C151.552794,23.8900628 152.250102,24.1294154 152.820817,24.5309523 L152.823694,24.5251974 L165.189016,32.8706261 L173.765961,38.6632216 C175.258138,39.6705954 177.15808,39.1892742 177.987213,37.5857424 L196.467191,1.93815582 C197.292662,0.341686786 196.601892,-0.422672137 194.929503,0.23731334 L194.929503,0.23731334 Z" id="Fill-6-Copy-19" fill="#F47C20"></path>
                <g id="feet" transform="translate(0.000000, 399.018215)">
                    <g id="Group-20">
                        <ellipse id="Oval-8-Copy-15" fill="#EDEDED" transform="translate(151.500000, 28.000000) scale(-1, 1) translate(-151.500000, -28.000000) " cx="151.5" cy="28" rx="151.5" ry="12"></ellipse>
                        <path d="M167.889182,26.733893 L167.889182,22.4 L167.889182,22.4 C167.889182,10.0288216 177.911388,0 190.274406,0 L190.274406,0 L190.274406,0 L190.274406,0 C202.637424,0 212.659631,10.0288216 212.659631,22.4 L212.659631,26.733893" id="Rectangle-Copy-2" fill="url(#radialGradient-13)" transform="translate(190.274406, 13.366946) scale(-1, 1) translate(-190.274406, -13.366946) "></path>
                        <path d="M90.3403694,26.4684657 C90.3403694,25.5643622 90.3403694,24.208207 90.3403694,22.4 C90.3403694,10.0288216 100.362576,0 112.725594,0 C125.088612,0 135.110818,10.0288216 135.110818,22.4 L135.110818,26.4" id="Rectangle-Copy-3" fill="url(#radialGradient-14)" transform="translate(112.725594, 13.234233) scale(-1, 1) translate(-112.725594, -13.234233) "></path>
                    </g>
                </g>
                <rect id="Combined-Shape-Copy-8" fill="#D32F2F" x="287.034562" y="97.5555556" width="23.9861751" height="39.1821494"></rect>
                <g id="Group-6" transform="translate(103.940092, 64.770492)" stroke="#4E4E4E" stroke-width="2.4" stroke-linecap="round" stroke-linejoin="round">
                    <path d="M81.5529954,13.6515081 L92.804238,2.3989071" id="Oval-3-Copy-36" transform="translate(87.178617, 8.025208) scale(-1, -1) rotate(-315.000000) translate(-87.178617, -8.025208) "></path>
                    <path d="M2.39861751,13.6515081 L13.6498601,2.3989071" id="Oval-3-Copy-37" transform="translate(8.024239, 8.025208) scale(-1, -1) rotate(-315.000000) translate(-8.024239, -8.025208) "></path>
                </g>
                <path d="M279.113369,109.554797 C260.799857,91.5479711 251.531138,82.2781336 251.307214,81.7452846 C250.971328,80.9460107 250.971328,43.283133 251.307214,42.4549001 C251.6431,41.6266672 278.288132,14.9813142 279.113369,14.6453876 C279.938607,14.309461 317.609968,14.309461 318.438101,14.6453876 C319.266234,14.9813142 345.84322,41.6295631 346.205166,42.4549001 C346.567113,43.2802371 346.567113,80.9431148 346.205166,81.7452846 C345.84322,82.5474539 319.263338,109.192807 318.438101,109.554797 C317.887943,109.796124 304.779699,109.796124 279.113369,109.554797 Z M284.464382,88.2220077 C288.755616,92.5658869 293.61583,94.7378262 299.045023,94.7378262 C301.422286,94.7378262 303.814026,94.3497728 306.220245,93.5736664 C308.626463,92.7975601 310.77208,91.7637171 312.657096,90.4721369 C314.542112,89.1805572 316.081107,87.5516026 317.274082,85.5852735 C318.467056,83.6189444 319.062096,81.5251944 319.059201,79.3040246 L284.464382,88.2220077 Z M311.786532,43.4670239 C313.401716,43.4670239 315.824491,43.4670239 319.054857,43.4670239 C319.054857,42.6909175 318.860854,41.9799694 318.472848,41.3341794 C318.084841,40.6883893 317.554952,40.1714678 316.88318,39.7834146 C316.211408,39.3953614 315.487515,39.2013348 314.711503,39.2013348 C313.579716,39.2013348 312.601133,39.5758763 311.775752,40.3249591 M303.152741,36.7948259 C304.756165,36.7948259 307.161301,36.7948259 310.368148,36.7948259 C310.368148,35.5524766 309.941052,34.5056018 309.086859,33.6542015 C308.232666,32.8028012 307.211978,32.3756532 306.024794,32.3727573 C304.931879,32.3727573 303.981824,32.7330036 303.174629,33.4534963 M301.681439,33.8496761 C301.681439,32.6073267 301.267373,31.5734835 300.43924,30.7481466 C299.611107,29.9228096 298.577389,29.5086931 297.338085,29.5057972 C296.148006,29.5057972 295.127317,29.9329453 294.27602,30.7872415 C293.424722,31.6415377 292.997626,32.6623492 292.99473,33.8496761 L301.681439,33.8496761 Z M291.583186,37.4039637 C290.801825,36.6851126 289.824555,36.325687 288.651376,36.325687 C287.461297,36.325687 286.465221,36.7398034 285.663148,37.5680364 C284.861075,38.3962693 284.460039,39.4301124 284.460039,40.6695659 C287.63999,40.6695659 290.024953,40.6695659 291.614929,40.6695659 M292.990387,40.6695659 L292.990387,40.5131863 M319.054857,79.3040246 L319.054857,43.4670239 L310.368148,43.4670239 L310.368148,36.7948259 L301.681439,36.7948259 L301.681439,33.8453322 L292.99473,33.8453322 L292.99473,40.6695659 L284.464382,40.6695659 L284.464382,72.5492927 L276.707151,65.4122999 L269.184461,73.014088 L284.464382,88.2176639 L319.054857,79.3040246 Z M276.707151,65.4166438 C275.673433,64.3828006 274.419651,63.865879 272.945806,63.865879 C271.471961,63.865879 270.218179,64.3828006 269.184461,65.4166438 C268.150743,66.450487 267.633884,67.70442 267.633884,69.178443 C267.633884,70.6524658 268.150743,71.9324619 269.184461,73.0184318 L276.707151,65.4166438 Z M291.600514,40.6695659 L291.600514,61.6157498 L292.99473,61.6157498 L292.99473,40.6695659 L291.600514,40.6695659 Z M301.685783,36.7948259 L301.685783,61.6200937 L303.15818,61.6200937 L303.15818,36.7948259 L301.685783,36.7948259 Z M310.381067,43.4670239 L310.381067,62.0805448 L311.775284,62.0805448 L311.775284,43.4670239 L310.381067,43.4670239 Z" id="Shape" fill="url(#linearGradient-15)" fill-rule="nonzero"></path>
            </g>
        </g>
    </g>
</svg>