<?xml version="1.0" encoding="UTF-8"?>
<svg width="1280px" height="1024px" viewBox="0 0 1280 1024" version="1.1" xmlns="http://www.w3.org/2000/svg" xmlns:xlink="http://www.w3.org/1999/xlink" style="background: #FFFFFF;">
    <!-- Generator: Sketch 46.2 (44496) - http://www.bohemiancoding.com/sketch -->
    <title>418</title>
    <desc>Created with Sketch.</desc>
    <defs>
        <radialGradient cx="30.1083525%" cy="13.2858065%" fx="30.1083525%" fy="13.2858065%" r="75.7416965%" gradientTransform="translate(0.301084,0.132858),scale(1.000000,0.995704),rotate(84.564876),translate(-0.301084,-0.132858)" id="radialGradient-1">
            <stop stop-color="#6E6E6E" offset="0%"></stop>
            <stop stop-color="#4E4E4E" offset="100%"></stop>
        </radialGradient>
        <linearGradient x1="39.6936062%" y1="0%" x2="39.6936059%" y2="100%" id="linearGradient-2">
            <stop stop-color="#FF8E1C" offset="0%"></stop>
            <stop stop-color="#F47C20" offset="100%"></stop>
        </linearGradient>
        <radialGradient cx="77.2360623%" cy="10.850962%" fx="77.2360623%" fy="10.850962%" r="95.6095226%" gradientTransform="translate(0.772361,0.108510),scale(0.325245,1.000000),rotate(159.218958),translate(-0.772361,-0.108510)" id="radialGradient-3">
            <stop stop-color="#6E6E6E" offset="0%"></stop>
            <stop stop-color="#4E4E4E" offset="100%"></stop>
        </radialGradient>
    </defs>
    <g id="for-website" stroke="none" stroke-width="1" fill="none" fill-rule="evenodd">
        <g id="418">
            <g id="App-Bar" transform="translate(579.500000, 71.000000)" fill-rule="nonzero">
                <g id="Logo---Fab-Color" transform="translate(0.500000, 9.000000)">
                    <path d="M94.2527711,4.61538462 L94.2527711,4.61538462 C94.2531293,4.54365172 94.2237396,4.47477518 94.1711806,4.4241724 C94.1186217,4.37356962 94.0472828,4.34546656 93.9731325,4.34615385 L92.9128916,4.34615385 C92.3490806,4.34686125 91.8924092,4.78920343 91.8924096,5.33461538 L91.8924096,6.36025641 C91.8924088,6.4312035 91.9216336,6.49922623 91.9736174,6.54927294 C92.0256011,6.59931966 92.096058,6.62726417 92.1693976,6.62692308 L93.2296386,6.62692308 C93.7936655,6.62692491 94.2513099,6.18536227 94.2527711,5.63974359 L94.2527711,4.61538462 Z" id="Shape" fill="#4E4E4E"></path>
                    <path d="M67.500241,0.256410256 L66.453253,0.256410256 C66.1823746,0.256410035 65.92261,0.360592117 65.7311944,0.54600156 C65.5397787,0.731411003 65.4324193,0.982833456 65.4327711,1.24487179 L65.4327711,19.4871795 C65.4324185,19.5584658 65.4614453,19.6269494 65.5134289,19.6774772 C65.5654125,19.7280049 65.6360671,19.7564111 65.709759,19.7564103 L66.756747,19.7564103 C67.3205579,19.7557028 67.7772294,19.3133607 67.7772289,18.7679487 L67.7772289,0.529487179 C67.7782908,0.457640421 67.7496201,0.388363989 67.6975977,0.337076172 C67.6455754,0.285788356 67.5745183,0.256745075 67.500241,0.256410256" id="Shape" fill="#4E4E4E"></path>
                    <path d="M93.9638554,8.50769231 L92.9168675,8.50769231 C92.6463405,8.50769209 92.386913,8.6117391 92.1957459,8.79690811 C92.0045789,8.98207712 91.8973591,9.23317348 91.8977108,9.49487179 L91.8977108,19.4871795 L91.8977108,19.4871795 C91.8977108,19.6344554 92.0211292,19.7538462 92.1733735,19.7538462 L93.2203614,19.7538462 C93.4912399,19.7538464 93.7510045,19.6496643 93.9424201,19.4642548 C94.1338357,19.2788454 94.2411952,19.027423 94.2408434,18.7653846 L94.2408434,18.7653846 L94.2408434,8.77564103 C94.2401139,8.62744989 94.1157222,8.50769063 93.9625301,8.50769231" id="Shape" fill="#4E4E4E"></path>
                    <path d="M62.9518072,18.5897436 L62.9518072,18.5897436 C62.9413437,18.534513 62.9267266,18.4800949 62.9080723,18.4269231 L57.9792771,0.757692308 L57.9792771,0.757692308 C57.9218091,0.504413856 57.7081914,0.312043423 57.4429312,0.274693321 C57.1776709,0.237343219 56.9162277,0.362822482 56.786506,0.58974359 L46.6386747,19.2615385 L46.6386747,19.2615385 L46.5856627,19.3551282 L46.5856627,19.3551282 C46.5641342,19.3946687 46.5527695,19.4386443 46.5525301,19.4833333 C46.5525293,19.5546204 46.5818937,19.6229693 46.634126,19.6732564 C46.6863583,19.7235436 46.7571522,19.7516231 46.8308434,19.7512821 L48.3986747,19.7512821 C48.7972261,19.7524367 49.1598045,19.5284603 49.3263855,19.1782051 L51.1128916,15.8653846 C51.3707929,15.3356986 51.9315161,15.0069105 52.5362651,15.0307692 L58.2920482,15.0307692 C58.9063121,15.0333661 59.45449,15.4042616 59.6677108,15.9615385 L60.5795181,19.5294872 L60.5795181,19.5294872 C60.6010975,19.658143 60.7164739,19.7523319 60.8512048,19.7512821 L61.9459036,19.7512821 C62.2167682,19.7519653 62.4767423,19.6481786 62.6682731,19.4628982 C62.8598039,19.2776178 62.9670918,19.0261277 62.9663855,18.7641026 C62.9674071,18.7056623 62.9625245,18.6472653 62.9518072,18.5897436 L62.9518072,18.5897436 Z M58.6724096,12.0512821 C58.7187952,12.2397436 58.7466265,12.7538462 58.2257831,12.7538462 L53.5951807,12.7538462 C53.0306024,12.7538462 53.0650602,12.2269231 53.1975904,11.9923077 L56.5108434,5.83846154 C56.6791566,5.52692308 56.9773494,5.40641026 57.1019277,5.89102564 L58.6724096,12.0512821 Z" id="Shape" fill="#4E4E4E"></path>
                    <path d="M44.8892771,0.116666667 L29.8192771,5.90512821 L24.0648193,8.11794872 L24.0648193,8.10641026 C23.4935689,8.36974373 22.8201941,8.31639844 22.3008434,7.96666667 L22.3008434,7.96666667 L16.6537349,4.28846154 L11.6785542,1.03974359 C11.3325514,0.801906644 10.8959942,0.723154009 10.4846324,0.824366365 C10.0732707,0.925578722 9.72865901,1.19653188 9.54216867,1.56538462 L0.177590361,19.0384615 C-0.241204819,19.8205128 0.107349398,20.1923077 0.955542169,19.8705128 L16.6550602,13.8448718 L21.9098795,11.8282051 C22.1075961,11.7535376 22.317873,11.714854 22.5301205,11.7141026 C22.8965064,11.7141199 23.2539056,11.8238417 23.553253,12.0282051 L23.553253,12.0282051 L29.8192771,16.1102564 L34.1649398,18.9487179 C34.5114416,19.1873301 34.9489711,19.2662555 35.361086,19.1644895 C35.7732009,19.0627235 36.1180936,18.7905898 36.3039759,18.4205128 L45.6685542,0.95 C46.0873494,0.167948718 45.7374699,-0.203846154 44.8892771,0.116666667 L44.8892771,0.116666667 Z M17.956506,10.4628205 L16.6550602,10.9628205 L6.8186747,14.7435897 C6.40518072,14.9025641 5.90686747,15.0897436 5.75843373,14.9474359 C5.61,14.8051282 5.82072289,14.3064103 6.03409639,13.9115385 L10.5639759,5.46153846 C10.7707229,5.07692308 11.0768675,4.7 11.4598795,4.60128205 C11.8428916,4.5025641 12.32,4.68589744 12.703012,4.93717949 L16.6537349,7.51666667 L18.2374699,8.55 L18.2374699,8.55 C18.5184337,8.75 19.083012,9.12820513 19.083012,9.49230769 C19.083012,9.96666667 18.3912048,10.3051282 17.9604819,10.4589744 L17.956506,10.4628205 Z M29.8192771,8.78205128 L39.0261446,5.24615385 C39.0910843,5.22179487 39.1493976,5.20897436 39.2090361,5.19102564 C39.5907229,5.04615385 40.0042169,4.90897436 40.136747,5.03589744 C40.2878313,5.18333333 40.0744578,5.67692308 39.859759,6.07307692 L35.3325301,14.5217949 C35.1257831,14.9064103 34.8222892,15.2910256 34.4392771,15.3807692 C34.153012,15.4564103 33.826988,15.3807692 33.5221687,15.2269231 C33.3887378,15.1860581 33.2616703,15.1278325 33.1444578,15.0538462 L29.8312048,12.8846154 L28.05,11.7217949 C27.9996386,11.6692308 27.2813253,11.1666667 27.2428916,11.1051282 C27.0255422,10.9205128 26.8280723,10.7 26.8280723,10.4846154 C26.8280723,10.1102564 27.2601205,9.82051282 27.6537349,9.64102564 L29.8192771,8.78205128 Z" id="Shape" fill="#F47C20"></path>
                    <path d="M102.204578,8.15897436 C98.6408434,8.15897436 96.373253,10.8064103 96.373253,14.0730769 C96.373253,17.3397436 98.6368675,19.9871795 102.204578,19.9871795 C105.772289,19.9871795 108.035904,17.3397436 108.035904,14.0730769 C108.035904,10.8064103 105.768313,8.15769231 102.204578,8.15897436 Z M102.204578,17.6794872 C100.005904,17.6794872 98.7587952,16.0653846 98.7587952,14.0730769 C98.7587952,12.0807692 99.9992771,10.4666667 102.204578,10.4666667 C104.40988,10.4666667 105.650361,12.0807692 105.650361,14.0730769 C105.650361,16.0653846 104.403253,17.6782051 102.204578,17.6782051 L102.204578,17.6794872 Z" id="Shape" fill="#4E4E4E"></path>
                    <path d="M89.4671084,18.9012821 L89.3027711,18.5897436 C89.0020574,18.0019183 88.336094,17.6769295 87.6686747,17.7923077 C86.6998795,17.9666667 85.7854217,17.8410256 85.1506024,17.3487179 C84.5939759,16.9115385 84.396506,16.4333333 84.396506,14.9871795 L84.396506,10.9525641 C84.3943181,10.8772376 84.4241053,10.8043289 84.4789368,10.7508024 C84.5337683,10.6972758 84.6088627,10.6677991 84.686747,10.6692308 L87.8581928,10.6692308 C88.7365251,10.6692308 89.4485542,9.98043808 89.4485542,9.13076923 L89.4485542,8.74615385 C89.4435592,8.61301575 89.3304912,8.50760465 89.1927711,8.50769231 L84.6615663,8.50769231 C84.5151775,8.50769231 84.396506,8.39289353 84.396506,8.25128205 L84.396506,4.63461538 C84.3965068,4.55686792 84.3644894,4.48232336 84.3075348,4.42746804 C84.2505802,4.37261271 84.1733815,4.34196669 84.093012,4.34230769 L83.0844578,4.34230769 C82.5186654,4.34230769 82.06,4.78600499 82.06,5.33333333 L82.06,14.9769231 C82.06,16.9397436 82.429759,18.3884615 83.8849398,19.2730769 C84.7172289,19.7794872 86.0120482,19.9833333 87.0510843,19.9833333 C87.7833301,19.9724611 88.5080354,19.8384103 89.1927711,19.5871795 C89.3282368,19.5372583 89.4354482,19.4340837 89.4877575,19.3033003 C89.5400668,19.1725168 89.532562,19.0264052 89.4671084,18.9012821 L89.4671084,18.9012821 Z" id="Shape" fill="#4E4E4E"></path>
                    <path d="M77.9489157,8.77179487 C76.4433735,7.89487179 73.2520482,7.76538462 71.0679518,9.15641026 C70.9531976,9.23487585 70.8792604,9.35762773 70.8652774,9.49289397 C70.8512945,9.62816021 70.8986403,9.7626446 70.9950602,9.86153846 C71.0785542,9.94871795 71.156747,10.0307692 71.2057831,10.0782051 C71.7359036,10.6064103 72.4475904,10.7923077 73.1208434,10.5282051 C74.5124096,9.98076923 75.7422892,9.83717949 76.7150602,10.4897436 C77.4240964,10.9653846 77.4837349,11.5153846 77.4863855,11.9846154 C77.4865104,12.1095804 77.3848391,12.2124558 77.2557831,12.2179487 C75.5328916,12.2987179 73.8921687,12.5435897 72.749759,12.9871795 C71.4615663,13.4807692 70.0037349,14.5628205 70.0037349,16.3461538 C70.0037349,17.2987179 70.3337349,18.1410256 70.9712048,18.775641 C71.8989157,19.6730769 73.0174699,19.9871795 74.4368675,19.9871795 C75.4838554,19.9871795 76.6448193,19.4410256 77.3843373,18.7128205 C77.409262,18.689688 77.4460601,18.683194 77.4778231,18.6963226 C77.509586,18.7094511 77.5301714,18.7396634 77.5301205,18.7730769 L77.5301205,19.4794872 C77.5301205,19.6310115 77.657099,19.7538462 77.8137349,19.7538462 L78.8739759,19.7538462 C79.1365402,19.7538462 79.3883506,19.6529467 79.5740116,19.4733446 C79.7596726,19.2937424 79.8639759,19.0501496 79.8639759,18.7961538 L79.8639759,13.3679487 C79.86,11.2474359 79.5671084,9.71410256 77.9489157,8.77179487 Z" id="Shape" fill="#4E4E4E"></path>
                    <path d="M76.7203614,16.8692308 C75.9636145,17.7 75.0107229,18.0025641 74.3507229,18 C73.246747,18 72.3455422,17.3589744 72.3455422,16.3102564 C72.3455422,15.4679487 73.0161446,14.9115385 73.7636145,14.6205128 C74.5972289,14.2961538 76.0484337,14.1474359 77.3074699,14.1320513 C77.3696693,14.1313626 77.4295478,14.1548726 77.4736568,14.197301 C77.5177657,14.2397295 77.5424077,14.2975197 77.5420482,14.3576923 L77.5420482,14.7551282 C77.5708267,15.5376759 77.2749734,16.2988712 76.7203614,16.8692308 L76.7203614,16.8692308 Z" id="Shape" fill="#FFFFFF"></path>
                    <path d="M115.698795,8.15897436 C114.572782,8.1459578 113.490386,8.57961281 112.703614,9.35897436 C112.674967,9.38695865 112.631721,9.39550762 112.594021,9.38063918 C112.556321,9.36577073 112.531581,9.33040906 112.531325,9.29102564 L112.531325,8.77564103 C112.531326,8.70435392 112.501962,8.6360051 112.449729,8.58571795 C112.397497,8.5354308 112.326703,8.50735122 112.253012,8.50769231 L111.204699,8.50769231 C110.644929,8.50838503 110.190507,8.945688 110.186867,9.48717949 L110.186867,19.4871795 L110.186867,19.4871795 C110.186867,19.6344554 110.310286,19.7538462 110.46253,19.7538462 L111.509518,19.7538462 C111.780396,19.7538464 112.040161,19.6496643 112.231577,19.4642548 C112.422992,19.2788454 112.530352,19.027423 112.53,18.7653846 L112.53,18.7653846 L112.53,13.575641 C112.53,11.8102564 113.889759,10.524359 115.696145,10.524359 C117.707952,10.524359 118.593253,12.3025641 118.593253,13.4192308 L118.593253,19.4871795 C118.593253,19.6351635 118.717265,19.7551282 118.870241,19.7551282 L119.918554,19.7551282 C120.188851,19.7551282 120.448078,19.6512572 120.639207,19.4663655 C120.830336,19.2814739 120.937711,19.030707 120.937711,18.7692308 L120.937711,13.3448718 C120.960017,11.9833903 120.419149,10.6697056 119.435349,9.69586098 C118.451548,8.72201633 117.106347,8.16871998 115.698795,8.15897436 L115.698795,8.15897436 Z" id="Shape" fill="#4E4E4E"></path>
                </g>
                <g id="Logo---Fab-Color" transform="translate(0.500000, 9.000000)">
                    <path d="M94.2527711,4.61538462 L94.2527711,4.61538462 C94.2531293,4.54365172 94.2237396,4.47477518 94.1711806,4.4241724 C94.1186217,4.37356962 94.0472828,4.34546656 93.9731325,4.34615385 L92.9128916,4.34615385 C92.3490806,4.34686125 91.8924092,4.78920343 91.8924096,5.33461538 L91.8924096,6.36025641 C91.8924088,6.4312035 91.9216336,6.49922623 91.9736174,6.54927294 C92.0256011,6.59931966 92.096058,6.62726417 92.1693976,6.62692308 L93.2296386,6.62692308 C93.7936655,6.62692491 94.2513099,6.18536227 94.2527711,5.63974359 L94.2527711,4.61538462 Z" id="Shape" fill="#4E4E4E"></path>
                    <path d="M67.500241,0.256410256 L66.453253,0.256410256 C66.1823746,0.256410035 65.92261,0.360592117 65.7311944,0.54600156 C65.5397787,0.731411003 65.4324193,0.982833456 65.4327711,1.24487179 L65.4327711,19.4871795 C65.4324185,19.5584658 65.4614453,19.6269494 65.5134289,19.6774772 C65.5654125,19.7280049 65.6360671,19.7564111 65.709759,19.7564103 L66.756747,19.7564103 C67.3205579,19.7557028 67.7772294,19.3133607 67.7772289,18.7679487 L67.7772289,0.529487179 C67.7782908,0.457640421 67.7496201,0.388363989 67.6975977,0.337076172 C67.6455754,0.285788356 67.5745183,0.256745075 67.500241,0.256410256" id="Shape" fill="#4E4E4E"></path>
                    <path d="M93.9638554,8.50769231 L92.9168675,8.50769231 C92.6463405,8.50769209 92.386913,8.6117391 92.1957459,8.79690811 C92.0045789,8.98207712 91.8973591,9.23317348 91.8977108,9.49487179 L91.8977108,19.4871795 L91.8977108,19.4871795 C91.8977108,19.6344554 92.0211292,19.7538462 92.1733735,19.7538462 L93.2203614,19.7538462 C93.4912399,19.7538464 93.7510045,19.6496643 93.9424201,19.4642548 C94.1338357,19.2788454 94.2411952,19.027423 94.2408434,18.7653846 L94.2408434,18.7653846 L94.2408434,8.77564103 C94.2401139,8.62744989 94.1157222,8.50769063 93.9625301,8.50769231" id="Shape" fill="#4E4E4E"></path>
                    <path d="M62.9518072,18.5897436 L62.9518072,18.5897436 C62.9413437,18.534513 62.9267266,18.4800949 62.9080723,18.4269231 L57.9792771,0.757692308 L57.9792771,0.757692308 C57.9218091,0.504413856 57.7081914,0.312043423 57.4429312,0.274693321 C57.1776709,0.237343219 56.9162277,0.362822482 56.786506,0.58974359 L46.6386747,19.2615385 L46.6386747,19.2615385 L46.5856627,19.3551282 L46.5856627,19.3551282 C46.5641342,19.3946687 46.5527695,19.4386443 46.5525301,19.4833333 C46.5525293,19.5546204 46.5818937,19.6229693 46.634126,19.6732564 C46.6863583,19.7235436 46.7571522,19.7516231 46.8308434,19.7512821 L48.3986747,19.7512821 C48.7972261,19.7524367 49.1598045,19.5284603 49.3263855,19.1782051 L51.1128916,15.8653846 C51.3707929,15.3356986 51.9315161,15.0069105 52.5362651,15.0307692 L58.2920482,15.0307692 C58.9063121,15.0333661 59.45449,15.4042616 59.6677108,15.9615385 L60.5795181,19.5294872 L60.5795181,19.5294872 C60.6010975,19.658143 60.7164739,19.7523319 60.8512048,19.7512821 L61.9459036,19.7512821 C62.2167682,19.7519653 62.4767423,19.6481786 62.6682731,19.4628982 C62.8598039,19.2776178 62.9670918,19.0261277 62.9663855,18.7641026 C62.9674071,18.7056623 62.9625245,18.6472653 62.9518072,18.5897436 L62.9518072,18.5897436 Z M58.6724096,12.0512821 C58.7187952,12.2397436 58.7466265,12.7538462 58.2257831,12.7538462 L53.5951807,12.7538462 C53.0306024,12.7538462 53.0650602,12.2269231 53.1975904,11.9923077 L56.5108434,5.83846154 C56.6791566,5.52692308 56.9773494,5.40641026 57.1019277,5.89102564 L58.6724096,12.0512821 Z" id="Shape" fill="#4E4E4E"></path>
                    <path d="M44.8892771,0.116666667 L29.8192771,5.90512821 L24.0648193,8.11794872 L24.0648193,8.10641026 C23.4935689,8.36974373 22.8201941,8.31639844 22.3008434,7.96666667 L22.3008434,7.96666667 L16.6537349,4.28846154 L11.6785542,1.03974359 C11.3325514,0.801906644 10.8959942,0.723154009 10.4846324,0.824366365 C10.0732707,0.925578722 9.72865901,1.19653188 9.54216867,1.56538462 L0.177590361,19.0384615 C-0.241204819,19.8205128 0.107349398,20.1923077 0.955542169,19.8705128 L16.6550602,13.8448718 L21.9098795,11.8282051 C22.1075961,11.7535376 22.317873,11.714854 22.5301205,11.7141026 C22.8965064,11.7141199 23.2539056,11.8238417 23.553253,12.0282051 L23.553253,12.0282051 L29.8192771,16.1102564 L34.1649398,18.9487179 C34.5114416,19.1873301 34.9489711,19.2662555 35.361086,19.1644895 C35.7732009,19.0627235 36.1180936,18.7905898 36.3039759,18.4205128 L45.6685542,0.95 C46.0873494,0.167948718 45.7374699,-0.203846154 44.8892771,0.116666667 L44.8892771,0.116666667 Z M17.956506,10.4628205 L16.6550602,10.9628205 L6.8186747,14.7435897 C6.40518072,14.9025641 5.90686747,15.0897436 5.75843373,14.9474359 C5.61,14.8051282 5.82072289,14.3064103 6.03409639,13.9115385 L10.5639759,5.46153846 C10.7707229,5.07692308 11.0768675,4.7 11.4598795,4.60128205 C11.8428916,4.5025641 12.32,4.68589744 12.703012,4.93717949 L16.6537349,7.51666667 L18.2374699,8.55 L18.2374699,8.55 C18.5184337,8.75 19.083012,9.12820513 19.083012,9.49230769 C19.083012,9.96666667 18.3912048,10.3051282 17.9604819,10.4589744 L17.956506,10.4628205 Z M29.8192771,8.78205128 L39.0261446,5.24615385 C39.0910843,5.22179487 39.1493976,5.20897436 39.2090361,5.19102564 C39.5907229,5.04615385 40.0042169,4.90897436 40.136747,5.03589744 C40.2878313,5.18333333 40.0744578,5.67692308 39.859759,6.07307692 L35.3325301,14.5217949 C35.1257831,14.9064103 34.8222892,15.2910256 34.4392771,15.3807692 C34.153012,15.4564103 33.826988,15.3807692 33.5221687,15.2269231 C33.3887378,15.1860581 33.2616703,15.1278325 33.1444578,15.0538462 L29.8312048,12.8846154 L28.05,11.7217949 C27.9996386,11.6692308 27.2813253,11.1666667 27.2428916,11.1051282 C27.0255422,10.9205128 26.8280723,10.7 26.8280723,10.4846154 C26.8280723,10.1102564 27.2601205,9.82051282 27.6537349,9.64102564 L29.8192771,8.78205128 Z" id="Shape" fill="#F47C20"></path>
                    <path d="M102.204578,8.15897436 C98.6408434,8.15897436 96.373253,10.8064103 96.373253,14.0730769 C96.373253,17.3397436 98.6368675,19.9871795 102.204578,19.9871795 C105.772289,19.9871795 108.035904,17.3397436 108.035904,14.0730769 C108.035904,10.8064103 105.768313,8.15769231 102.204578,8.15897436 Z M102.204578,17.6794872 C100.005904,17.6794872 98.7587952,16.0653846 98.7587952,14.0730769 C98.7587952,12.0807692 99.9992771,10.4666667 102.204578,10.4666667 C104.40988,10.4666667 105.650361,12.0807692 105.650361,14.0730769 C105.650361,16.0653846 104.403253,17.6782051 102.204578,17.6782051 L102.204578,17.6794872 Z" id="Shape" fill="#4E4E4E"></path>
                    <path d="M89.4671084,18.9012821 L89.3027711,18.5897436 C89.0020574,18.0019183 88.336094,17.6769295 87.6686747,17.7923077 C86.6998795,17.9666667 85.7854217,17.8410256 85.1506024,17.3487179 C84.5939759,16.9115385 84.396506,16.4333333 84.396506,14.9871795 L84.396506,10.9525641 C84.3943181,10.8772376 84.4241053,10.8043289 84.4789368,10.7508024 C84.5337683,10.6972758 84.6088627,10.6677991 84.686747,10.6692308 L87.8581928,10.6692308 C88.7365251,10.6692308 89.4485542,9.98043808 89.4485542,9.13076923 L89.4485542,8.74615385 C89.4435592,8.61301575 89.3304912,8.50760465 89.1927711,8.50769231 L84.6615663,8.50769231 C84.5151775,8.50769231 84.396506,8.39289353 84.396506,8.25128205 L84.396506,4.63461538 C84.3965068,4.55686792 84.3644894,4.48232336 84.3075348,4.42746804 C84.2505802,4.37261271 84.1733815,4.34196669 84.093012,4.34230769 L83.0844578,4.34230769 C82.5186654,4.34230769 82.06,4.78600499 82.06,5.33333333 L82.06,14.9769231 C82.06,16.9397436 82.429759,18.3884615 83.8849398,19.2730769 C84.7172289,19.7794872 86.0120482,19.9833333 87.0510843,19.9833333 C87.7833301,19.9724611 88.5080354,19.8384103 89.1927711,19.5871795 C89.3282368,19.5372583 89.4354482,19.4340837 89.4877575,19.3033003 C89.5400668,19.1725168 89.532562,19.0264052 89.4671084,18.9012821 L89.4671084,18.9012821 Z" id="Shape" fill="#4E4E4E"></path>
                    <path d="M77.9489157,8.77179487 C76.4433735,7.89487179 73.2520482,7.76538462 71.0679518,9.15641026 C70.9531976,9.23487585 70.8792604,9.35762773 70.8652774,9.49289397 C70.8512945,9.62816021 70.8986403,9.7626446 70.9950602,9.86153846 C71.0785542,9.94871795 71.156747,10.0307692 71.2057831,10.0782051 C71.7359036,10.6064103 72.4475904,10.7923077 73.1208434,10.5282051 C74.5124096,9.98076923 75.7422892,9.83717949 76.7150602,10.4897436 C77.4240964,10.9653846 77.4837349,11.5153846 77.4863855,11.9846154 C77.4865104,12.1095804 77.3848391,12.2124558 77.2557831,12.2179487 C75.5328916,12.2987179 73.8921687,12.5435897 72.749759,12.9871795 C71.4615663,13.4807692 70.0037349,14.5628205 70.0037349,16.3461538 C70.0037349,17.2987179 70.3337349,18.1410256 70.9712048,18.775641 C71.8989157,19.6730769 73.0174699,19.9871795 74.4368675,19.9871795 C75.4838554,19.9871795 76.6448193,19.4410256 77.3843373,18.7128205 C77.409262,18.689688 77.4460601,18.683194 77.4778231,18.6963226 C77.509586,18.7094511 77.5301714,18.7396634 77.5301205,18.7730769 L77.5301205,19.4794872 C77.5301205,19.6310115 77.657099,19.7538462 77.8137349,19.7538462 L78.8739759,19.7538462 C79.1365402,19.7538462 79.3883506,19.6529467 79.5740116,19.4733446 C79.7596726,19.2937424 79.8639759,19.0501496 79.8639759,18.7961538 L79.8639759,13.3679487 C79.86,11.2474359 79.5671084,9.71410256 77.9489157,8.77179487 Z" id="Shape" fill="#4E4E4E"></path>
                    <path d="M76.7203614,16.8692308 C75.9636145,17.7 75.0107229,18.0025641 74.3507229,18 C73.246747,18 72.3455422,17.3589744 72.3455422,16.3102564 C72.3455422,15.4679487 73.0161446,14.9115385 73.7636145,14.6205128 C74.5972289,14.2961538 76.0484337,14.1474359 77.3074699,14.1320513 C77.3696693,14.1313626 77.4295478,14.1548726 77.4736568,14.197301 C77.5177657,14.2397295 77.5424077,14.2975197 77.5420482,14.3576923 L77.5420482,14.7551282 C77.5708267,15.5376759 77.2749734,16.2988712 76.7203614,16.8692308 L76.7203614,16.8692308 Z" id="Shape" fill="#FFFFFF"></path>
                    <path d="M115.698795,8.15897436 C114.572782,8.1459578 113.490386,8.57961281 112.703614,9.35897436 C112.674967,9.38695865 112.631721,9.39550762 112.594021,9.38063918 C112.556321,9.36577073 112.531581,9.33040906 112.531325,9.29102564 L112.531325,8.77564103 C112.531326,8.70435392 112.501962,8.6360051 112.449729,8.58571795 C112.397497,8.5354308 112.326703,8.50735122 112.253012,8.50769231 L111.204699,8.50769231 C110.644929,8.50838503 110.190507,8.945688 110.186867,9.48717949 L110.186867,19.4871795 L110.186867,19.4871795 C110.186867,19.6344554 110.310286,19.7538462 110.46253,19.7538462 L111.509518,19.7538462 C111.780396,19.7538464 112.040161,19.6496643 112.231577,19.4642548 C112.422992,19.2788454 112.530352,19.027423 112.53,18.7653846 L112.53,18.7653846 L112.53,13.575641 C112.53,11.8102564 113.889759,10.524359 115.696145,10.524359 C117.707952,10.524359 118.593253,12.3025641 118.593253,13.4192308 L118.593253,19.4871795 C118.593253,19.6351635 118.717265,19.7551282 118.870241,19.7551282 L119.918554,19.7551282 C120.188851,19.7551282 120.448078,19.6512572 120.639207,19.4663655 C120.830336,19.2814739 120.937711,19.030707 120.937711,18.7692308 L120.937711,13.3448718 C120.960017,11.9833903 120.419149,10.6697056 119.435349,9.69586098 C118.451548,8.72201633 117.106347,8.16871998 115.698795,8.15897436 L115.698795,8.15897436 Z" id="Shape" fill="#4E4E4E"></path>
                </g>
            </g>
            <g id="Browser">
                <g>
                    <g id="Group-10">
                        <rect id="Rectangle-6" fill="#DEDEDE" x="0" y="0" width="1280" height="38"></rect>
                        <rect id="Rectangle-6-Copy" fill="#F2F2F2" x="0" y="38" width="1280" height="37"></rect>
                        <rect id="Rectangle-9" fill="#9C9C9C" x="0" y="75" width="1280" height="1"></rect>
                    </g>
                    <path d="M83.6143296,9.93203671 C83.8273295,9.41728705 84.4430762,9 85.0047207,9 L219.995279,9 C220.550171,9 221.169636,9.40995312 221.38567,9.93203671 L233,38 L72,38 L83.6143296,9.93203671 Z" id="Rectangle-7" fill="#F2F2F2"></path>
                    <rect id="Rectangle-10" fill="#FFFFFF" x="92" y="43" width="1148" height="27" rx="2"></rect>
                    <g id="Group-7" transform="translate(12.000000, 13.000000)">
                        <circle id="Oval-Copy" fill="#FF6059" cx="6" cy="6" r="6"></circle>
                        <circle id="Oval-Copy-2" fill="#FFBF2F" cx="26" cy="6" r="6"></circle>
                        <circle id="Oval-Copy-3" fill="#29CC41" cx="46" cy="6" r="6"></circle>
                    </g>
                    <g id="Group-8" transform="translate(90.000000, 17.000000)">
                        <text id="Alation" font-family="HelveticaNeue, Helvetica Neue" font-size="14" font-weight="normal" fill="#000000">
                            <tspan x="24" y="13">Alation</tspan>
                        </text>
                        <g id="Group-5">
                            <rect id="Rectangle-11" fill="#000000" x="0" y="0" width="16" height="16" rx="2"></rect>
                            <path d="M14.671875,4.66015625 C14.7994798,4.60546848 14.8860675,4.60546848 14.9316406,4.66015625 C14.9772138,4.71484402 14.9726565,4.80598895 14.9179687,4.93359375 L12.046875,10.4296875 C11.9921872,10.539063 11.9010423,10.611979 11.7734375,10.6484375 C11.6458327,10.684896 11.5273443,10.666667 11.4179687,10.59375 L8.19140625,8.40625 C8.10025996,8.35156223 7.99088605,8.32421875 7.86328125,8.32421875 C7.80859348,8.32421875 7.74479203,8.33333324 7.671875,8.3515625 L1.30078125,10.8671875 C1.1914057,10.9218753 1.10937527,10.9218753 1.0546875,10.8671875 C0.999999727,10.8124997 1.00911422,10.7304693 1.08203125,10.6210938 L3.92578125,5.125 C3.99869828,4.9973952 4.0989577,4.91536477 4.2265625,4.87890625 C4.3541673,4.84244773 4.4726557,4.86979121 4.58203125,4.9609375 L6.0859375,5.97265625 L7.80859375,7.12109375 C7.89974004,7.19401078 7.99999945,7.23046875 8.109375,7.23046875 C8.20052129,7.23046875 8.28255172,7.21223977 8.35546875,7.17578125 L14.671875,4.66015625 Z M6.49609375,7.9140625 C6.71484484,7.82291621 6.82421875,7.7226568 6.82421875,7.61328125 C6.82421875,7.54036422 6.74218832,7.4401048 6.578125,7.3125 L4.91015625,6.19140625 C4.74609293,6.0820307 4.61849004,6.04557273 4.52734375,6.08203125 C4.4179682,6.10026051 4.32682328,6.18229094 4.25390625,6.328125 L2.859375,9.0078125 C2.76822871,9.19010508 2.74088523,9.29036449 2.77734375,9.30859375 C2.81380227,9.34505227 2.92317617,9.32682328 3.10546875,9.25390625 L6.0859375,8.078125 L6.49609375,7.9140625 Z M10.1054688,7.39453125 L9.44921875,7.640625 C9.26692617,7.73177129 9.17578125,7.82291621 9.17578125,7.9140625 C9.17578125,7.96875027 9.22135371,8.03255172 9.3125,8.10546875 C9.3125,8.12369801 9.35351521,8.16015598 9.43554688,8.21484375 L9.55859375,8.296875 L10.1054688,8.6796875 L11.1171875,9.36328125 C11.1354168,9.38151051 11.1718747,9.39973949 11.2265625,9.41796875 C11.335938,9.47265652 11.427083,9.49088551 11.5,9.47265625 C11.6093755,9.43619773 11.7005205,9.34505281 11.7734375,9.19921875 L13.140625,6.546875 C13.2317713,6.36458242 13.2682293,6.25520852 13.25,6.21875 C13.2135415,6.18229148 13.1132821,6.20052047 12.9492188,6.2734375 L12.8945312,6.2734375 L10.1054688,7.39453125 Z" id="" fill="#FFFFFF"></path>
                        </g>
                    </g>
                    <g id="Group-9" transform="translate(12.000000, 46.000000)">
                        <g id="ic_refresh_black_24px" transform="translate(50.000000, 0.000000)">
                            <g id="Group">
                                <path d="M14.7083333,5.29166667 C13.5,4.08333333 11.8416667,3.33333333 10,3.33333333 C6.31666667,3.33333333 3.34166667,6.31666667 3.34166667,10 C3.34166667,13.6833333 6.31666667,16.6666667 10,16.6666667 C13.1083333,16.6666667 15.7,14.5416667 16.4416667,11.6666667 L14.7083333,11.6666667 C14.025,13.6083333 12.175,15 10,15 C7.24166667,15 5,12.7583333 5,10 C5,7.24166667 7.24166667,5 10,5 C11.3833333,5 12.6166667,5.575 13.5166667,6.48333333 L10.8333333,9.16666667 L16.6666667,9.16666667 L16.6666667,3.33333333 L14.7083333,5.29166667 Z" id="Shape" fill="#6D6D6D" fill-rule="nonzero"></path>
                                <polygon id="Shape" points="0 0 20 0 20 20 0 20"></polygon>
                            </g>
                        </g>
                        <g id="ic_arrow_forward_black_24px" transform="translate(25.000000, 0.000000)">
                            <g id="Group">
                                <polygon id="Shape" points="0 0 20 0 20 20 0 20"></polygon>
                                <polygon id="Shape" fill="#6D6D6D" fill-rule="nonzero" points="10 3.33333333 8.825 4.50833333 13.475 9.16666667 3.33333333 9.16666667 3.33333333 10.8333333 13.475 10.8333333 8.825 15.4916667 10 16.6666667 16.6666667 10"></polygon>
                            </g>
                        </g>
                        <g id="ic_arrow_back_black_24px">
                            <g id="Group">
                                <polygon id="Shape" points="0 0 20 0 20 20 0 20"></polygon>
                                <polygon id="Shape" fill="#6D6D6D" fill-rule="nonzero" points="16.6666667 9.16666667 6.525 9.16666667 11.1833333 4.50833333 10 3.33333333 3.33333333 10 10 16.6666667 11.175 15.4916667 6.525 10.8333333 16.6666667 10.8333333"></polygon>
                            </g>
                        </g>
                    </g>
                    <text id="URL" font-family="HelveticaNeue, Helvetica Neue" font-size="14" font-weight="normal" fill="#000000">
                        <tspan x="109" y="61">alation.com/</tspan>
                    </text>
                </g>
            </g>
            <path d="M335.824,520.864 L338.824,520.864 L338.824,538 L335.824,538 L335.824,520.864 Z M342.52,526.24 C343.096003,526.16 343.483999,525.916002 343.684,525.508 C343.884001,525.099998 343.984,524.632003 343.984,524.104 L342.52,524.104 L342.52,520.864 L345.52,520.864 L345.52,524.104 C345.52,525.032005 345.252003,525.819997 344.716,526.468 C344.179997,527.116003 343.448005,527.503999 342.52,527.632 L342.52,526.24 Z M348.784,525.592 L351.376,525.592 L351.376,527.32 L351.448,527.32 C351.656001,527.015998 351.879999,526.736001 352.12,526.48 C352.360001,526.223999 352.627999,526.008001 352.924,525.832 C353.220001,525.655999 353.559998,525.516001 353.944,525.412 C354.328002,525.307999 354.767998,525.256 355.264,525.256 C356.016004,525.256 356.715997,525.423998 357.364,525.76 C358.012003,526.096002 358.471999,526.615996 358.744,527.32 C359.208002,526.679997 359.743997,526.176002 360.352,525.808 C360.960003,525.439998 361.719995,525.256 362.632,525.256 C363.944007,525.256 364.963996,525.575997 365.692,526.216 C366.420004,526.856003 366.784,527.927992 366.784,529.432 L366.784,538 L364.048,538 L364.048,530.752 C364.048,530.255998 364.032,529.804002 364,529.396 C363.968,528.987998 363.876001,528.636001 363.724,528.34 C363.571999,528.043999 363.344002,527.816001 363.04,527.656 C362.735998,527.495999 362.320003,527.416 361.792,527.416 C360.863995,527.416 360.192002,527.703997 359.776,528.28 C359.359998,528.856003 359.152,529.671995 359.152,530.728 L359.152,538 L356.416,538 L356.416,530.032 C356.416,529.167996 356.260002,528.516002 355.948,528.076 C355.635998,527.635998 355.064004,527.416 354.232,527.416 C353.879998,527.416 353.540002,527.487999 353.212,527.632 C352.883998,527.776001 352.596001,527.983999 352.348,528.256 C352.099999,528.528001 351.900001,528.863998 351.748,529.264 C351.595999,529.664002 351.52,530.119997 351.52,530.632 L351.52,538 L348.784,538 L348.784,525.592 Z M386.728,535.24 C386.728,535.576002 386.772,535.815999 386.86,535.96 C386.948,536.104001 387.119999,536.176 387.376,536.176 L387.664,536.176 C387.776001,536.176 387.903999,536.16 388.048,536.128 L388.048,538.024 C387.952,538.056 387.828001,538.092 387.676,538.132 C387.523999,538.172 387.368001,538.208 387.208,538.24 C387.047999,538.272 386.888001,538.296 386.728,538.312 C386.567999,538.328 386.432001,538.336 386.32,538.336 C385.759997,538.336 385.296002,538.224001 384.928,538 C384.559998,537.775999 384.320001,537.384003 384.208,536.824 C383.663997,537.352003 382.996004,537.735999 382.204,537.976 C381.411996,538.216001 380.648004,538.336 379.912,538.336 C379.351997,538.336 378.816003,538.260001 378.304,538.108 C377.791997,537.955999 377.340002,537.732001 376.948,537.436 C376.555998,537.139999 376.244001,536.764002 376.012,536.308 C375.779999,535.851998 375.664,535.320003 375.664,534.712 C375.664,533.943996 375.803999,533.320002 376.084,532.84 C376.364001,532.359998 376.731998,531.984001 377.188,531.712 C377.644002,531.439999 378.155997,531.244001 378.724,531.124 C379.292003,531.003999 379.863997,530.912 380.44,530.848 C380.936002,530.752 381.407998,530.684 381.856,530.644 C382.304002,530.604 382.699998,530.536 383.044,530.44 C383.388002,530.344 383.659999,530.196001 383.86,529.996 C384.060001,529.795999 384.16,529.496002 384.16,529.096 C384.16,528.743998 384.076001,528.456001 383.908,528.232 C383.739999,528.007999 383.532001,527.836001 383.284,527.716 C383.035999,527.595999 382.760002,527.516 382.456,527.476 C382.151998,527.436 381.864001,527.416 381.592,527.416 C380.823996,527.416 380.192002,527.575998 379.696,527.896 C379.199998,528.216002 378.92,528.711997 378.856,529.384 L376.12,529.384 C376.168,528.583996 376.359998,527.920003 376.696,527.392 C377.032002,526.863997 377.459997,526.440002 377.98,526.12 C378.500003,525.799998 379.087997,525.576001 379.744,525.448 C380.400003,525.319999 381.071997,525.256 381.76,525.256 C382.368003,525.256 382.967997,525.319999 383.56,525.448 C384.152003,525.576001 384.683998,525.783999 385.156,526.072 C385.628002,526.360001 386.007999,526.731998 386.296,527.188 C386.584001,527.644002 386.728,528.199997 386.728,528.856 L386.728,535.24 Z M383.992,531.784 C383.575998,532.056001 383.064003,532.22 382.456,532.276 C381.847997,532.332 381.240003,532.415999 380.632,532.528 C380.343999,532.576 380.064001,532.644 379.792,532.732 C379.519999,532.82 379.280001,532.939999 379.072,533.092 C378.863999,533.244001 378.700001,533.443999 378.58,533.692 C378.459999,533.940001 378.4,534.239998 378.4,534.592 C378.4,534.896002 378.487999,535.151999 378.664,535.36 C378.840001,535.568001 379.051999,535.731999 379.3,535.852 C379.548001,535.972001 379.819999,536.056 380.116,536.104 C380.412001,536.152 380.679999,536.176 380.92,536.176 C381.224002,536.176 381.551998,536.136 381.904,536.056 C382.256002,535.976 382.587998,535.840001 382.9,535.648 C383.212002,535.455999 383.471999,535.212001 383.68,534.916 C383.888001,534.619999 383.992,534.256002 383.992,533.824 L383.992,531.784 Z M395.104,525.592 L397.168,525.592 L397.168,521.872 L399.904,521.872 L399.904,525.592 L402.376,525.592 L402.376,527.632 L399.904,527.632 L399.904,534.256 C399.904,534.544001 399.916,534.791999 399.94,535 C399.964,535.208001 400.02,535.383999 400.108,535.528 C400.196,535.672001 400.327999,535.78 400.504,535.852 C400.680001,535.924 400.919998,535.96 401.224,535.96 C401.416001,535.96 401.607999,535.956 401.8,535.948 C401.992001,535.94 402.183999,535.912 402.376,535.864 L402.376,537.976 C402.071998,538.008 401.776001,538.04 401.488,538.072 C401.199999,538.104 400.904002,538.12 400.6,538.12 C399.879996,538.12 399.300002,538.052001 398.86,537.916 C398.419998,537.779999 398.076001,537.580001 397.828,537.316 C397.579999,537.051999 397.412,536.720002 397.324,536.32 C397.236,535.919998 397.184,535.464003 397.168,534.952 L397.168,527.632 L395.104,527.632 L395.104,525.592 Z M412.864,530.704 C412.832,530.271998 412.740001,529.856002 412.588,529.456 C412.435999,529.055998 412.228001,528.708001 411.964,528.412 C411.699999,528.115999 411.380002,527.876001 411.004,527.692 C410.627998,527.507999 410.208002,527.416 409.744,527.416 C409.263998,527.416 408.828002,527.499999 408.436,527.668 C408.043998,527.836001 407.708001,528.067999 407.428,528.364 C407.147999,528.660001 406.924001,529.007998 406.756,529.408 C406.587999,529.808002 406.496,530.239998 406.48,530.704 L412.864,530.704 Z M406.48,532.504 C406.48,532.984002 406.547999,533.447998 406.684,533.896 C406.820001,534.344002 407.023999,534.735998 407.296,535.072 C407.568001,535.408002 407.911998,535.675999 408.328,535.876 C408.744002,536.076001 409.239997,536.176 409.816,536.176 C410.616004,536.176 411.259998,536.004002 411.748,535.66 C412.236002,535.315998 412.599999,534.800003 412.84,534.112 L415.432,534.112 C415.287999,534.784003 415.040002,535.383997 414.688,535.912 C414.335998,536.440003 413.912002,536.883998 413.416,537.244 C412.919998,537.604002 412.364003,537.875999 411.748,538.06 C411.131997,538.244001 410.488003,538.336 409.816,538.336 C408.839995,538.336 407.976004,538.176002 407.224,537.856 C406.471996,537.535998 405.836003,537.088003 405.316,536.512 C404.795997,535.935997 404.404001,535.248004 404.14,534.448 C403.875999,533.647996 403.744,532.768005 403.744,531.808 C403.744,530.927996 403.883999,530.092004 404.164,529.3 C404.444001,528.507996 404.843997,527.812003 405.364,527.212 C405.884003,526.611997 406.511996,526.136002 407.248,525.784 C407.984004,525.431998 408.815995,525.256 409.744,525.256 C410.720005,525.256 411.595996,525.459998 412.372,525.868 C413.148004,526.276002 413.791997,526.815997 414.304,527.488 C414.816003,528.160003 415.187999,528.931996 415.42,529.804 C415.652001,530.676004 415.712001,531.575995 415.6,532.504 L406.48,532.504 Z M428.08,535.24 C428.08,535.576002 428.124,535.815999 428.212,535.96 C428.3,536.104001 428.471999,536.176 428.728,536.176 L429.016,536.176 C429.128001,536.176 429.255999,536.16 429.4,536.128 L429.4,538.024 C429.304,538.056 429.180001,538.092 429.028,538.132 C428.875999,538.172 428.720001,538.208 428.56,538.24 C428.399999,538.272 428.240001,538.296 428.08,538.312 C427.919999,538.328 427.784001,538.336 427.672,538.336 C427.111997,538.336 426.648002,538.224001 426.28,538 C425.911998,537.775999 425.672001,537.384003 425.56,536.824 C425.015997,537.352003 424.348004,537.735999 423.556,537.976 C422.763996,538.216001 422.000004,538.336 421.264,538.336 C420.703997,538.336 420.168003,538.260001 419.656,538.108 C419.143997,537.955999 418.692002,537.732001 418.3,537.436 C417.907998,537.139999 417.596001,536.764002 417.364,536.308 C417.131999,535.851998 417.016,535.320003 417.016,534.712 C417.016,533.943996 417.155999,533.320002 417.436,532.84 C417.716001,532.359998 418.083998,531.984001 418.54,531.712 C418.996002,531.439999 419.507997,531.244001 420.076,531.124 C420.644003,531.003999 421.215997,530.912 421.792,530.848 C422.288002,530.752 422.759998,530.684 423.208,530.644 C423.656002,530.604 424.051998,530.536 424.396,530.44 C424.740002,530.344 425.011999,530.196001 425.212,529.996 C425.412001,529.795999 425.512,529.496002 425.512,529.096 C425.512,528.743998 425.428001,528.456001 425.26,528.232 C425.091999,528.007999 424.884001,527.836001 424.636,527.716 C424.387999,527.595999 424.112002,527.516 423.808,527.476 C423.503998,527.436 423.216001,527.416 422.944,527.416 C422.175996,527.416 421.544002,527.575998 421.048,527.896 C420.551998,528.216002 420.272,528.711997 420.208,529.384 L417.472,529.384 C417.52,528.583996 417.711998,527.920003 418.048,527.392 C418.384002,526.863997 418.811997,526.440002 419.332,526.12 C419.852003,525.799998 420.439997,525.576001 421.096,525.448 C421.752003,525.319999 422.423997,525.256 423.112,525.256 C423.720003,525.256 424.319997,525.319999 424.912,525.448 C425.504003,525.576001 426.035998,525.783999 426.508,526.072 C426.980002,526.360001 427.359999,526.731998 427.648,527.188 C427.936001,527.644002 428.08,528.199997 428.08,528.856 L428.08,535.24 Z M425.344,531.784 C424.927998,532.056001 424.416003,532.22 423.808,532.276 C423.199997,532.332 422.592003,532.415999 421.984,532.528 C421.695999,532.576 421.416001,532.644 421.144,532.732 C420.871999,532.82 420.632001,532.939999 420.424,533.092 C420.215999,533.244001 420.052001,533.443999 419.932,533.692 C419.811999,533.940001 419.752,534.239998 419.752,534.592 C419.752,534.896002 419.839999,535.151999 420.016,535.36 C420.192001,535.568001 420.403999,535.731999 420.652,535.852 C420.900001,535.972001 421.171999,536.056 421.468,536.104 C421.764001,536.152 422.031999,536.176 422.272,536.176 C422.576002,536.176 422.903998,536.136 423.256,536.056 C423.608002,535.976 423.939998,535.840001 424.252,535.648 C424.564002,535.455999 424.823999,535.212001 425.032,534.916 C425.240001,534.619999 425.344,534.256002 425.344,533.824 L425.344,531.784 Z M431.104,525.592 L433.696,525.592 L433.696,527.272 L433.744,527.272 C434.128002,526.551996 434.663997,526.036002 435.352,525.724 C436.040003,525.411998 436.783996,525.256 437.584,525.256 C438.560005,525.256 439.411996,525.427998 440.14,525.772 C440.868004,526.116002 441.471998,526.587997 441.952,527.188 C442.432002,527.788003 442.791999,528.487996 443.032,529.288 C443.272001,530.088004 443.392,530.943995 443.392,531.856 C443.392,532.688004 443.284001,533.495996 443.068,534.28 C442.851999,535.064004 442.524002,535.755997 442.084,536.356 C441.643998,536.956003 441.088003,537.435998 440.416,537.796 C439.743997,538.156002 438.952005,538.336 438.04,538.336 C437.639998,538.336 437.240002,538.3 436.84,538.228 C436.439998,538.156 436.056002,538.040001 435.688,537.88 C435.319998,537.719999 434.980002,537.516001 434.668,537.268 C434.355998,537.019999 434.096001,536.728002 433.888,536.392 L433.84,536.392 L433.84,542.584 L431.104,542.584 L431.104,525.592 Z M440.656,531.808 C440.656,531.247997 440.584001,530.704003 440.44,530.176 C440.295999,529.647997 440.080001,529.180002 439.792,528.772 C439.503999,528.363998 439.144002,528.036001 438.712,527.788 C438.279998,527.539999 437.784003,527.416 437.224,527.416 C436.071994,527.416 435.204003,527.815996 434.62,528.616 C434.035997,529.416004 433.744,530.479993 433.744,531.808 C433.744,532.432003 433.819999,533.011997 433.972,533.548 C434.124001,534.084003 434.351998,534.543998 434.656,534.928 C434.960002,535.312002 435.323998,535.615999 435.748,535.84 C436.172002,536.064001 436.663997,536.176 437.224,536.176 C437.848003,536.176 438.375998,536.048001 438.808,535.792 C439.240002,535.535999 439.595999,535.204002 439.876,534.796 C440.156001,534.387998 440.355999,533.924003 440.476,533.404 C440.596001,532.883997 440.656,532.352003 440.656,531.808 Z M451.384,538.336 C450.391995,538.336 449.508004,538.172002 448.732,537.844 C447.955996,537.515998 447.300003,537.064003 446.764,536.488 C446.227997,535.911997 445.820001,535.224004 445.54,534.424 C445.259999,533.623996 445.12,532.744005 445.12,531.784 C445.12,530.839995 445.259999,529.968004 445.54,529.168 C445.820001,528.367996 446.227997,527.680003 446.764,527.104 C447.300003,526.527997 447.955996,526.076002 448.732,525.748 C449.508004,525.419998 450.391995,525.256 451.384,525.256 C452.376005,525.256 453.259996,525.419998 454.036,525.748 C454.812004,526.076002 455.467997,526.527997 456.004,527.104 C456.540003,527.680003 456.947999,528.367996 457.228,529.168 C457.508001,529.968004 457.648,530.839995 457.648,531.784 C457.648,532.744005 457.508001,533.623996 457.228,534.424 C456.947999,535.224004 456.540003,535.911997 456.004,536.488 C455.467997,537.064003 454.812004,537.515998 454.036,537.844 C453.259996,538.172002 452.376005,538.336 451.384,538.336 Z M451.384,536.176 C451.992003,536.176 452.519998,536.048001 452.968,535.792 C453.416002,535.535999 453.783999,535.200002 454.072,534.784 C454.360001,534.367998 454.571999,533.900003 454.708,533.38 C454.844001,532.859997 454.912,532.328003 454.912,531.784 C454.912,531.255997 454.844001,530.728003 454.708,530.2 C454.571999,529.671997 454.360001,529.204002 454.072,528.796 C453.783999,528.387998 453.416002,528.056001 452.968,527.8 C452.519998,527.543999 451.992003,527.416 451.384,527.416 C450.775997,527.416 450.248002,527.543999 449.8,527.8 C449.351998,528.056001 448.984001,528.387998 448.696,528.796 C448.407999,529.204002 448.196001,529.671997 448.06,530.2 C447.923999,530.728003 447.856,531.255997 447.856,531.784 C447.856,532.328003 447.923999,532.859997 448.06,533.38 C448.196001,533.900003 448.407999,534.367998 448.696,534.784 C448.984001,535.200002 449.351998,535.535999 449.8,535.792 C450.248002,536.048001 450.775997,536.176 451.384,536.176 Z M458.68,525.592 L460.744,525.592 L460.744,521.872 L463.48,521.872 L463.48,525.592 L465.952,525.592 L465.952,527.632 L463.48,527.632 L463.48,534.256 C463.48,534.544001 463.492,534.791999 463.516,535 C463.54,535.208001 463.596,535.383999 463.684,535.528 C463.772,535.672001 463.903999,535.78 464.08,535.852 C464.256001,535.924 464.495998,535.96 464.8,535.96 C464.992001,535.96 465.183999,535.956 465.376,535.948 C465.568001,535.94 465.759999,535.912 465.952,535.864 L465.952,537.976 C465.647998,538.008 465.352001,538.04 465.064,538.072 C464.775999,538.104 464.480002,538.12 464.176,538.12 C463.455996,538.12 462.876002,538.052001 462.436,537.916 C461.995998,537.779999 461.652001,537.580001 461.404,537.316 C461.155999,537.051999 460.988,536.720002 460.9,536.32 C460.812,535.919998 460.76,535.464003 460.744,534.952 L460.744,527.632 L458.68,527.632 L458.68,525.592 Z M468.136,534.76 L471.472,534.76 L471.472,538 L468.136,538 L468.136,534.76 Z" id="Header" fill="#F57C00"></path>
            <path d="M335.368,573.148 L344.62,573.148 L344.62,575.092 L337.618,575.092 L337.618,578.458 L344.098,578.458 L344.098,580.294 L337.618,580.294 L337.618,584.056 L344.746,584.056 L344.746,586 L335.368,586 L335.368,573.148 Z M346.42,576.694 L348.346,576.694 L348.346,578.494 L348.382,578.494 C348.442,578.241999 348.558999,577.996001 348.733,577.756 C348.907001,577.515999 349.116999,577.297001 349.363,577.099 C349.609001,576.900999 349.881999,576.742001 350.182,576.622 C350.482002,576.501999 350.787998,576.442 351.1,576.442 C351.340001,576.442 351.505,576.448 351.595,576.46 C351.685,576.472 351.778,576.484 351.874,576.496 L351.874,578.476 C351.729999,578.452 351.583001,578.431 351.433,578.413 C351.282999,578.395 351.136001,578.386 350.992,578.386 C350.643998,578.386 350.317002,578.454999 350.011,578.593 C349.704998,578.731001 349.438001,578.934999 349.21,579.205 C348.981999,579.475001 348.802001,579.807998 348.67,580.204 C348.537999,580.600002 348.472,581.055997 348.472,581.572 L348.472,586 L346.42,586 L346.42,576.694 Z M352.756,576.694 L354.682,576.694 L354.682,578.494 L354.718,578.494 C354.778,578.241999 354.894999,577.996001 355.069,577.756 C355.243001,577.515999 355.452999,577.297001 355.699,577.099 C355.945001,576.900999 356.217999,576.742001 356.518,576.622 C356.818001,576.501999 357.123998,576.442 357.436,576.442 C357.676001,576.442 357.841,576.448 357.931,576.46 C358.021,576.472 358.114,576.484 358.21,576.496 L358.21,578.476 C358.065999,578.452 357.919001,578.431 357.769,578.413 C357.618999,578.395 357.472001,578.386 357.328,578.386 C356.979998,578.386 356.653002,578.454999 356.347,578.593 C356.040998,578.731001 355.774001,578.934999 355.546,579.205 C355.317999,579.475001 355.138001,579.807998 355.006,580.204 C354.873999,580.600002 354.808,581.055997 354.808,581.572 L354.808,586 L352.756,586 L352.756,576.694 Z M363.034,586.252 C362.289996,586.252 361.627003,586.129001 361.045,585.883 C360.462997,585.636999 359.971002,585.298002 359.569,584.866 C359.166998,584.433998 358.861001,583.918003 358.651,583.318 C358.440999,582.717997 358.336,582.058004 358.336,581.338 C358.336,580.629996 358.440999,579.976003 358.651,579.376 C358.861001,578.775997 359.166998,578.260002 359.569,577.828 C359.971002,577.395998 360.462997,577.057001 361.045,576.811 C361.627003,576.564999 362.289996,576.442 363.034,576.442 C363.778004,576.442 364.440997,576.564999 365.023,576.811 C365.605003,577.057001 366.096998,577.395998 366.499,577.828 C366.901002,578.260002 367.206999,578.775997 367.417,579.376 C367.627001,579.976003 367.732,580.629996 367.732,581.338 C367.732,582.058004 367.627001,582.717997 367.417,583.318 C367.206999,583.918003 366.901002,584.433998 366.499,584.866 C366.096998,585.298002 365.605003,585.636999 365.023,585.883 C364.440997,586.129001 363.778004,586.252 363.034,586.252 Z M363.034,584.632 C363.490002,584.632 363.885998,584.536001 364.222,584.344 C364.558002,584.151999 364.833999,583.900002 365.05,583.588 C365.266001,583.275998 365.424999,582.925002 365.527,582.535 C365.629001,582.144998 365.68,581.746002 365.68,581.338 C365.68,580.941998 365.629001,580.546002 365.527,580.15 C365.424999,579.753998 365.266001,579.403002 365.05,579.097 C364.833999,578.790998 364.558002,578.542001 364.222,578.35 C363.885998,578.157999 363.490002,578.062 363.034,578.062 C362.577998,578.062 362.182002,578.157999 361.846,578.35 C361.509998,578.542001 361.234001,578.790998 361.018,579.097 C360.801999,579.403002 360.643001,579.753998 360.541,580.15 C360.438999,580.546002 360.388,580.941998 360.388,581.338 C360.388,581.746002 360.438999,582.144998 360.541,582.535 C360.643001,582.925002 360.801999,583.275998 361.018,583.588 C361.234001,583.900002 361.509998,584.151999 361.846,584.344 C362.182002,584.536001 362.577998,584.632 363.034,584.632 Z M369.442,576.694 L371.368,576.694 L371.368,578.494 L371.404,578.494 C371.464,578.241999 371.580999,577.996001 371.755,577.756 C371.929001,577.515999 372.138999,577.297001 372.385,577.099 C372.631001,576.900999 372.903999,576.742001 373.204,576.622 C373.504002,576.501999 373.809998,576.442 374.122,576.442 C374.362001,576.442 374.527,576.448 374.617,576.46 C374.707,576.472 374.8,576.484 374.896,576.496 L374.896,578.476 C374.751999,578.452 374.605001,578.431 374.455,578.413 C374.304999,578.395 374.158001,578.386 374.014,578.386 C373.665998,578.386 373.339002,578.454999 373.033,578.593 C372.726998,578.731001 372.460001,578.934999 372.232,579.205 C372.003999,579.475001 371.824001,579.807998 371.692,580.204 C371.559999,580.600002 371.494,581.055997 371.494,581.572 L371.494,586 L369.442,586 L369.442,576.694 Z M387.064,579.808 C386.98,579.231997 386.749002,578.797001 386.371,578.503 C385.992998,578.208999 385.516003,578.062 384.94,578.062 C384.675999,578.062 384.394002,578.107 384.094,578.197 C383.793998,578.287 383.518001,578.454999 383.266,578.701 C383.013999,578.947001 382.804001,579.288998 382.636,579.727 C382.467999,580.165002 382.384,580.737996 382.384,581.446 C382.384,581.830002 382.429,582.213998 382.519,582.598 C382.609,582.982002 382.752999,583.323999 382.951,583.624 C383.149001,583.924002 383.403998,584.166999 383.716,584.353 C384.028002,584.539001 384.405998,584.632 384.85,584.632 C385.450003,584.632 385.944998,584.446002 386.335,584.074 C386.725002,583.701998 386.968,583.180003 387.064,582.508 L389.116,582.508 C388.923999,583.720006 388.465004,584.646997 387.739,585.289 C387.012996,585.931003 386.050006,586.252 384.85,586.252 C384.117996,586.252 383.473003,586.129001 382.915,585.883 C382.356997,585.636999 381.886002,585.301002 381.502,584.875 C381.117998,584.448998 380.827001,583.942003 380.629,583.354 C380.430999,582.765997 380.332,582.130003 380.332,581.446 C380.332,580.749997 380.427999,580.096003 380.62,579.484 C380.812001,578.871997 381.099998,578.341002 381.484,577.891 C381.868002,577.440998 382.344997,577.087001 382.915,576.829 C383.485003,576.570999 384.153996,576.442 384.922,576.442 C385.462003,576.442 385.974998,576.510999 386.461,576.649 C386.947002,576.787001 387.378998,576.993999 387.757,577.27 C388.135002,577.546001 388.443999,577.893998 388.684,578.314 C388.924001,578.734002 389.068,579.231997 389.116,579.808 L387.064,579.808 Z M395.056,586.252 C394.311996,586.252 393.649003,586.129001 393.067,585.883 C392.484997,585.636999 391.993002,585.298002 391.591,584.866 C391.188998,584.433998 390.883001,583.918003 390.673,583.318 C390.462999,582.717997 390.358,582.058004 390.358,581.338 C390.358,580.629996 390.462999,579.976003 390.673,579.376 C390.883001,578.775997 391.188998,578.260002 391.591,577.828 C391.993002,577.395998 392.484997,577.057001 393.067,576.811 C393.649003,576.564999 394.311996,576.442 395.056,576.442 C395.800004,576.442 396.462997,576.564999 397.045,576.811 C397.627003,577.057001 398.118998,577.395998 398.521,577.828 C398.923002,578.260002 399.228999,578.775997 399.439,579.376 C399.649001,579.976003 399.754,580.629996 399.754,581.338 C399.754,582.058004 399.649001,582.717997 399.439,583.318 C399.228999,583.918003 398.923002,584.433998 398.521,584.866 C398.118998,585.298002 397.627003,585.636999 397.045,585.883 C396.462997,586.129001 395.800004,586.252 395.056,586.252 Z M395.056,584.632 C395.512002,584.632 395.907998,584.536001 396.244,584.344 C396.580002,584.151999 396.855999,583.900002 397.072,583.588 C397.288001,583.275998 397.446999,582.925002 397.549,582.535 C397.651001,582.144998 397.702,581.746002 397.702,581.338 C397.702,580.941998 397.651001,580.546002 397.549,580.15 C397.446999,579.753998 397.288001,579.403002 397.072,579.097 C396.855999,578.790998 396.580002,578.542001 396.244,578.35 C395.907998,578.157999 395.512002,578.062 395.056,578.062 C394.599998,578.062 394.204002,578.157999 393.868,578.35 C393.531998,578.542001 393.256001,578.790998 393.04,579.097 C392.823999,579.403002 392.665001,579.753998 392.563,580.15 C392.460999,580.546002 392.41,580.941998 392.41,581.338 C392.41,581.746002 392.460999,582.144998 392.563,582.535 C392.665001,582.925002 392.823999,583.275998 393.04,583.588 C393.256001,583.900002 393.531998,584.151999 393.868,584.344 C394.204002,584.536001 394.599998,584.632 395.056,584.632 Z M410.23,586 L408.286,586 L408.286,584.74 L408.25,584.74 C407.973999,585.280003 407.572003,585.666999 407.044,585.901 C406.515997,586.135001 405.958003,586.252 405.37,586.252 C404.637996,586.252 403.999003,586.123001 403.453,585.865 C402.906997,585.606999 402.454002,585.256002 402.094,584.812 C401.733998,584.367998 401.464001,583.843003 401.284,583.237 C401.103999,582.630997 401.014,581.980003 401.014,581.284 C401.014,580.443996 401.127999,579.718003 401.356,579.106 C401.584001,578.493997 401.886998,577.990002 402.265,577.594 C402.643002,577.197998 403.074998,576.907001 403.561,576.721 C404.047002,576.534999 404.541997,576.442 405.046,576.442 C405.334001,576.442 405.627998,576.469 405.928,576.523 C406.228002,576.577 406.515999,576.663999 406.792,576.784 C407.068001,576.904001 407.322999,577.056999 407.557,577.243 C407.791001,577.429001 407.985999,577.647999 408.142,577.9 L408.178,577.9 L408.178,573.148 L410.23,573.148 L410.23,586 Z M403.066,581.446 C403.066,581.842002 403.116999,582.231998 403.219,582.616 C403.321001,583.000002 403.476999,583.341999 403.687,583.642 C403.897001,583.942001 404.163998,584.181999 404.488,584.362 C404.812002,584.542001 405.195998,584.632 405.64,584.632 C406.096002,584.632 406.488998,584.536001 406.819,584.344 C407.149002,584.151999 407.418999,583.900002 407.629,583.588 C407.839001,583.275998 407.994999,582.925002 408.097,582.535 C408.199001,582.144998 408.25,581.746002 408.25,581.338 C408.25,580.305995 408.019002,579.502003 407.557,578.926 C407.094998,578.349997 406.468004,578.062 405.676,578.062 C405.195998,578.062 404.791002,578.160999 404.461,578.359 C404.130998,578.557001 403.861001,578.814998 403.651,579.133 C403.440999,579.451002 403.291,579.810998 403.201,580.213 C403.111,580.615002 403.066,581.025998 403.066,581.446 Z M418.852,580.528 C418.828,580.203998 418.759001,579.892001 418.645,579.592 C418.530999,579.291998 418.375001,579.031001 418.177,578.809 C417.978999,578.586999 417.739001,578.407001 417.457,578.269 C417.174999,578.130999 416.860002,578.062 416.512,578.062 C416.151998,578.062 415.825001,578.124999 415.531,578.251 C415.236999,578.377001 414.985001,578.550999 414.775,578.773 C414.564999,578.995001 414.397001,579.255999 414.271,579.556 C414.144999,579.856002 414.076,580.179998 414.064,580.528 L418.852,580.528 Z M414.064,581.878 C414.064,582.238002 414.114999,582.585998 414.217,582.922 C414.319001,583.258002 414.471999,583.551999 414.676,583.804 C414.880001,584.056001 415.137998,584.256999 415.45,584.407 C415.762002,584.557001 416.133998,584.632 416.566,584.632 C417.166003,584.632 417.648998,584.503001 418.015,584.245 C418.381002,583.986999 418.653999,583.600003 418.834,583.084 L420.778,583.084 C420.669999,583.588003 420.484001,584.037998 420.22,584.434 C419.955999,584.830002 419.638002,585.162999 419.266,585.433 C418.893998,585.703001 418.477002,585.906999 418.015,586.045 C417.552998,586.183001 417.070003,586.252 416.566,586.252 C415.833996,586.252 415.186003,586.132001 414.622,585.892 C414.057997,585.651999 413.581002,585.316002 413.191,584.884 C412.800998,584.451998 412.507001,583.936003 412.309,583.336 C412.110999,582.735997 412.012,582.076004 412.012,581.356 C412.012,580.695997 412.116999,580.069003 412.327,579.475 C412.537001,578.880997 412.836998,578.359002 413.227,577.909 C413.617002,577.458998 414.087997,577.102001 414.64,576.838 C415.192003,576.573999 415.815997,576.442 416.512,576.442 C417.244004,576.442 417.900997,576.594998 418.483,576.901 C419.065003,577.207002 419.547998,577.611997 419.932,578.116 C420.316002,578.620003 420.594999,579.198997 420.769,579.853 C420.943001,580.507003 420.988,581.181997 420.904,581.878 L414.064,581.878 Z M422.632,583.57 L425.134,583.57 L425.134,586 L422.632,586 L422.632,583.57 Z M422.632,576.892 L425.134,576.892 L425.134,579.322 L422.632,579.322 L422.632,576.892 Z M433.414,581.392 L437.23,581.392 L437.23,575.848 L437.194,575.848 L433.414,581.392 Z M440.794,583.012 L439.174,583.012 L439.174,586 L437.23,586 L437.23,583.012 L431.83,583.012 L431.83,580.978 L437.23,573.4 L439.174,573.4 L439.174,581.392 L440.794,581.392 L440.794,583.012 Z M442.36,575.488 C442.792002,575.488 443.211998,575.452 443.62,575.38 C444.028002,575.308 444.396998,575.188001 444.727,575.02 C445.057002,574.851999 445.338999,574.636001 445.573,574.372 C445.807001,574.107999 445.96,573.784002 446.032,573.4 L447.706,573.4 L447.706,586 L445.456,586 L445.456,577.108 L442.36,577.108 L442.36,575.488 Z M456.418,574.768 C455.865997,574.768 455.398002,574.932998 455.014,575.263 C454.629998,575.593002 454.438,576.069997 454.438,576.694 C454.438,577.294003 454.623998,577.752998 454.996,578.071 C455.368002,578.389002 455.841997,578.548 456.418,578.548 C456.994003,578.548 457.467998,578.389002 457.84,578.071 C458.212002,577.752998 458.398,577.294003 458.398,576.694 C458.398,576.069997 458.206002,575.593002 457.822,575.263 C457.437998,574.932998 456.970003,574.768 456.418,574.768 Z M456.418,586.252 C455.781997,586.252 455.191003,586.162001 454.645,585.982 C454.098997,585.801999 453.628002,585.541002 453.232,585.199 C452.835998,584.856998 452.527001,584.440002 452.305,583.948 C452.082999,583.455998 451.972,582.904003 451.972,582.292 C451.972,581.499996 452.178998,580.834003 452.593,580.294 C453.007002,579.753997 453.567996,579.394001 454.276,579.214 L454.276,579.178 C453.699997,578.961999 453.259002,578.629002 452.953,578.179 C452.646998,577.728998 452.494,577.198003 452.494,576.586 C452.494,575.505995 452.832997,574.663003 453.511,574.057 C454.189003,573.450997 455.157994,573.148 456.418,573.148 C457.678006,573.148 458.646997,573.450997 459.325,574.057 C460.003003,574.663003 460.342,575.505995 460.342,576.586 C460.342,577.198003 460.189002,577.728998 459.883,578.179 C459.576998,578.629002 459.136003,578.961999 458.56,579.178 L458.56,579.214 C459.268004,579.394001 459.828998,579.753997 460.243,580.294 C460.657002,580.834003 460.864,581.499996 460.864,582.292 C460.864,582.904003 460.753001,583.455998 460.531,583.948 C460.308999,584.440002 460.000002,584.856998 459.604,585.199 C459.207998,585.541002 458.737003,585.801999 458.191,585.982 C457.644997,586.162001 457.054003,586.252 456.418,586.252 Z M456.418,584.632 C457.102003,584.632 457.671998,584.428002 458.128,584.02 C458.584002,583.611998 458.812,583.036004 458.812,582.292 C458.812,581.595997 458.584002,581.053002 458.128,580.663 C457.671998,580.272998 457.102003,580.078 456.418,580.078 C455.733997,580.078 455.164002,580.272998 454.708,580.663 C454.251998,581.053002 454.024,581.595997 454.024,582.292 C454.024,583.036004 454.251998,583.611998 454.708,584.02 C455.164002,584.428002 455.733997,584.632 456.418,584.632 Z" id="Subheader" fill="#4E4E4E"></path>
            <g id="Group-35" transform="translate(644.000000, 442.000000)">
                <g id="Group-27-Copy" transform="translate(106.329815, 0.000000)">
                    <path d="M39.7656269,59.147051 C39.2921429,60.1449923 39.7172996,61.3378181 40.7152408,61.8113021 C41.713182,62.284786 42.9060078,61.8596294 43.3794918,60.8616882 L54.5459062,37.3267308 C55.3220727,35.6908389 53.6983899,33.9478854 52.0116733,34.6063411 L45.548401,37.1294551 L51.3684049,24.9029295 C51.8431534,23.9055892 51.419509,22.7122254 50.4221687,22.237477 C49.4248284,21.7627285 48.2314647,22.1863728 47.7567162,23.1837131 L39.766715,39.9689174 C38.9879449,41.6049392 40.6119929,43.3505014 42.2998598,42.6915967 L48.7718231,40.1650899 L39.7656269,59.147051 Z" id="Path-2-Copy-29" fill="#6A6A6A" fill-rule="nonzero" transform="translate(47.155752, 42.023846) scale(-1, 1) translate(-47.155752, -42.023846) "></path>
                    <path d="M58.845384,17.9590634 L77.0138984,10.727638 C77.1428347,10.6783483 77.2568636,10.6508195 77.3758617,10.6138522 C78.1282953,10.3183763 78.9387896,10.038369 79.1966623,10.2966154 C79.493765,10.5983836 79.0737412,11.5983349 78.6497944,12.4168583 L69.7147424,29.6947267 C69.3064876,30.4865077 68.7073129,31.2554792 67.952787,31.4521136 C67.3881348,31.6060127 66.7437147,31.4392668 66.1416631,31.1382851 C65.8869289,31.0554365 65.6382099,30.9442725 65.3960293,30.7843432 L58.845384,26.3474854 L55.3308884,23.968734 C55.23229,23.8607161 53.814775,22.8329739 53.737884,22.7068657 C53.3081834,22.3285412 52.9184975,21.8791661 52.9184975,21.4392295 C52.9184975,20.6728798 53.7716219,20.0821902 54.5486398,19.7130419 L58.845384,17.9590634 Z M35.4338949,21.3962321 L32.8645836,22.4174199 L13.4561358,30.1443639 C12.6396263,30.4699904 11.6573041,30.8522476 11.3719704,30.5625397 C11.0712061,30.2610337 11.4946299,29.2644907 11.9151768,28.4430834 L20.8478749,11.1678368 C21.2561297,10.3799884 21.8605351,9.61075477 22.6155841,9.40756592 C23.3892021,9.20149311 24.3129406,9.57981763 25.0685127,10.093951 L35.9896549,17.4818973 L35.9807627,17.4942198 C36.5357382,17.9034814 37.6501351,18.6758612 37.6501351,19.4207122 C37.6501351,20.3899885 36.2846654,21.0821415 35.4338949,21.3962321 L35.4338949,21.3962321 Z M88.5833837,0.237850014 L58.845384,12.0757632 L47.4882644,16.6020241 L47.4785877,16.5773792 C47.0243029,16.7894822 46.527388,16.9158525 45.9962122,16.9158525 C45.2534553,16.9158525 44.5658821,16.6848727 43.9980915,16.2910796 L43.9891993,16.3002559 L32.8645836,8.77073276 L23.0455462,2.12737518 C21.5537556,1.11483928 19.6534486,1.59777329 18.8246469,3.20126099 L0.349614484,38.9328714 C-0.476310297,40.5324264 0.211262929,41.298776 1.88403522,40.6338897 L32.8645836,28.3012445 L43.2338887,24.1776907 C43.6175593,24.0300839 44.028691,23.9440891 44.4586531,23.9440891 C45.2103022,23.9440891 45.9075521,24.183983 46.4782196,24.586428 L46.4810965,24.5806601 L58.845384,32.9449617 L67.4216112,38.7506568 C68.9136634,39.7603088 70.8134473,39.2778991 71.6425105,37.6707409 L90.1209428,1.94253887 C90.9463446,0.342459496 90.2556329,-0.423627992 88.5833837,0.237850014 L88.5833837,0.237850014 Z" id="Fill-6-Copy-23" fill="#F47C20"></path>
                </g>
                <path d="M238.317386,143.0087 C254.673104,143.0087 267.96142,129.66305 267.96142,113.164278 C267.96142,96.6655057 254.673104,83.3198556 238.317386,83.3198556 C221.961667,83.3198556 208.673351,96.6655057 208.673351,113.164278 C208.673351,129.66305 221.961667,143.0087 238.317386,143.0087 Z M238.317386,159.8087 C212.667054,159.8087 191.873351,138.925281 191.873351,113.164278 C191.873351,87.4032748 212.667054,66.5198556 238.317386,66.5198556 C263.967718,66.5198556 284.76142,87.4032748 284.76142,113.164278 C284.76142,138.925281 263.967718,159.8087 238.317386,159.8087 Z" id="Oval-14-Copy-4" fill="url(#radialGradient-1)" fill-rule="nonzero" transform="translate(238.317386, 113.164278) scale(-1, 1) translate(-238.317386, -113.164278) "></path>
                <ellipse id="Oval-8-Copy-15" fill="#EDEDED" transform="translate(151.500000, 209.978339) scale(-1, 1) translate(-151.500000, -209.978339) " cx="151.5" cy="209.978339" rx="151.5" ry="12.0216606"></ellipse>
                <rect id="Rectangle-12" fill="#959595" x="85.5435356" y="191.545126" width="132.712401" height="14.4259928"></rect>
                <path d="M193.112737,119.81462 C183.54455,78.7047381 146.816002,48.0866426 102.966936,48.0866426 C51.8398403,48.0866426 10.3931398,89.712169 10.3931398,141.059858 C10.3931398,162.400617 17.5523953,182.062027 29.590388,197.753731 L176.343485,197.753731 C183.544979,188.366476 189.000471,177.558543 192.221717,165.820287 L244.410522,133.284114 L230.089304,102.572164 L193.112737,119.81462 Z" id="Combined-Shape-Copy-15" fill="url(#linearGradient-2)" transform="translate(127.395754, 122.920187) scale(-1, 1) translate(-127.395754, -122.920187) "></path>
                <polygon id="Path" fill="#4E4E4E" fill-rule="nonzero" opacity="0.5" points="89.7496869 72.1277978 214 72.1277978 212.526554 70.9277978 211.12839 69.7277978 92.4595663 69.7277978"></polygon>
                <path d="M131.912929,137.288653 C128.484018,144.691563 121.002133,149.825012 112.324218,149.825012 C103.552162,149.825012 96.0022285,144.579582 92.6253487,137.046931 L99.0207133,137.08628 C101.936987,141.470902 106.880419,144.225012 112.324218,144.225012 C117.697583,144.225012 122.585977,141.542154 125.51763,137.249305 L131.912929,137.288653 Z M131.912929,137.288653 C128.484018,144.691563 121.002133,149.825012 112.324218,149.825012 C103.552162,149.825012 96.0022285,144.579582 92.6253487,137.046931 L99.0207133,137.08628 C101.936987,141.470902 106.880419,144.225012 112.324218,144.225012 C117.697583,144.225012 122.585977,141.542154 125.51763,137.249305 L131.912929,137.288653 Z" id="Oval" fill="url(#radialGradient-3)" fill-rule="nonzero" transform="translate(112.269139, 143.435972) scale(1, -1) translate(-112.269139, -143.435972) "></path>
                <path d="M211.860158,137.288653 C208.431247,144.691563 200.949363,149.825012 192.271447,149.825012 C183.499392,149.825012 175.949458,144.579582 172.572578,137.046931 L178.967943,137.08628 C181.884216,141.470902 186.827648,144.225012 192.271447,144.225012 C197.644813,144.225012 202.533206,141.542154 205.464859,137.249305 L211.860158,137.288653 Z M211.860158,137.288653 C208.431247,144.691563 200.949363,149.825012 192.271447,149.825012 C183.499392,149.825012 175.949458,144.579582 172.572578,137.046931 L178.967943,137.08628 C181.884216,141.470902 186.827648,144.225012 192.271447,144.225012 C197.644813,144.225012 202.533206,141.542154 205.464859,137.249305 L211.860158,137.288653 Z" id="Oval-Copy-2" fill="url(#radialGradient-3)" fill-rule="nonzero" transform="translate(192.216368, 143.435972) scale(1, -1) translate(-192.216368, -143.435972) "></path>
            </g>
        </g>
    </g>
</svg>