<?xml version="1.0" encoding="UTF-8"?>
<svg width="1440px" height="900px" viewBox="0 0 1440 900" version="1.1" xmlns="http://www.w3.org/2000/svg" xmlns:xlink="http://www.w3.org/1999/xlink" style="background: #FFFFFF;">
    <!-- Generator: Sketch 46.2 (44496) - http://www.bohemiancoding.com/sketch -->
    <title>cards2</title>
    <desc>Created with Sketch.</desc>
    <defs>
        <rect id="path-1" x="270" y="134" width="260" height="30" rx="2"></rect>
        <filter x="-2.7%" y="-16.7%" width="105.4%" height="146.7%" filterUnits="objectBoundingBox" id="filter-2">
            <feOffset dx="0" dy="2" in="SourceAlpha" result="shadowOffsetOuter1"></feOffset>
            <feGaussianBlur stdDeviation="2" in="shadowOffsetOuter1" result="shadowBlurOuter1"></feGaussianBlur>
            <feColorMatrix values="0 0 0 0 0   0 0 0 0 0   0 0 0 0 0  0 0 0 0.180366848 0" type="matrix" in="shadowBlurOuter1"></feColorMatrix>
        </filter>
        <rect id="path-3" x="564" y="134" width="260" height="30" rx="2"></rect>
        <filter x="-2.7%" y="-16.7%" width="105.4%" height="146.7%" filterUnits="objectBoundingBox" id="filter-4">
            <feOffset dx="0" dy="2" in="SourceAlpha" result="shadowOffsetOuter1"></feOffset>
            <feGaussianBlur stdDeviation="2" in="shadowOffsetOuter1" result="shadowBlurOuter1"></feGaussianBlur>
            <feColorMatrix values="0 0 0 0 0   0 0 0 0 0   0 0 0 0 0  0 0 0 0.180366848 0" type="matrix" in="shadowBlurOuter1"></feColorMatrix>
        </filter>
        <rect id="path-5" x="244" y="0" width="1196" height="76"></rect>
        <filter x="-0.6%" y="-6.6%" width="101.2%" height="118.4%" filterUnits="objectBoundingBox" id="filter-6">
            <feOffset dx="0" dy="2" in="SourceAlpha" result="shadowOffsetOuter1"></feOffset>
            <feGaussianBlur stdDeviation="2" in="shadowOffsetOuter1" result="shadowBlurOuter1"></feGaussianBlur>
            <feColorMatrix values="0 0 0 0 0   0 0 0 0 0   0 0 0 0 0  0 0 0 0.224382926 0" type="matrix" in="shadowBlurOuter1"></feColorMatrix>
        </filter>
        <rect id="path-7" x="0" y="0" width="260" height="54" rx="2"></rect>
        <filter x="-2.7%" y="-9.3%" width="105.4%" height="125.9%" filterUnits="objectBoundingBox" id="filter-8">
            <feOffset dx="0" dy="2" in="SourceAlpha" result="shadowOffsetOuter1"></feOffset>
            <feGaussianBlur stdDeviation="2" in="shadowOffsetOuter1" result="shadowBlurOuter1"></feGaussianBlur>
            <feColorMatrix values="0 0 0 0 0   0 0 0 0 0   0 0 0 0 0  0 0 0 0.180366848 0" type="matrix" in="shadowBlurOuter1"></feColorMatrix>
        </filter>
        <rect id="path-9" x="0" y="0" width="260" height="95" rx="2"></rect>
        <filter x="-2.7%" y="-5.3%" width="105.4%" height="114.7%" filterUnits="objectBoundingBox" id="filter-10">
            <feOffset dx="0" dy="2" in="SourceAlpha" result="shadowOffsetOuter1"></feOffset>
            <feGaussianBlur stdDeviation="2" in="shadowOffsetOuter1" result="shadowBlurOuter1"></feGaussianBlur>
            <feColorMatrix values="0 0 0 0 0   0 0 0 0 0   0 0 0 0 0  0 0 0 0.180366848 0" type="matrix" in="shadowBlurOuter1"></feColorMatrix>
        </filter>
        <rect id="path-11" x="0" y="0" width="260" height="95" rx="2"></rect>
        <filter x="-2.7%" y="-5.3%" width="105.4%" height="114.7%" filterUnits="objectBoundingBox" id="filter-12">
            <feOffset dx="0" dy="2" in="SourceAlpha" result="shadowOffsetOuter1"></feOffset>
            <feGaussianBlur stdDeviation="2" in="shadowOffsetOuter1" result="shadowBlurOuter1"></feGaussianBlur>
            <feColorMatrix values="0 0 0 0 0   0 0 0 0 0   0 0 0 0 0  0 0 0 0.180366848 0" type="matrix" in="shadowBlurOuter1"></feColorMatrix>
        </filter>
        <rect id="path-13" x="0" y="0" width="260" height="54" rx="2"></rect>
        <filter x="-2.7%" y="-9.3%" width="105.4%" height="125.9%" filterUnits="objectBoundingBox" id="filter-14">
            <feOffset dx="0" dy="2" in="SourceAlpha" result="shadowOffsetOuter1"></feOffset>
            <feGaussianBlur stdDeviation="2" in="shadowOffsetOuter1" result="shadowBlurOuter1"></feGaussianBlur>
            <feColorMatrix values="0 0 0 0 0   0 0 0 0 0   0 0 0 0 0  0 0 0 0.180366848 0" type="matrix" in="shadowBlurOuter1"></feColorMatrix>
        </filter>
        <rect id="path-15" x="0" y="0" width="260" height="54" rx="2"></rect>
        <filter x="-2.7%" y="-9.3%" width="105.4%" height="125.9%" filterUnits="objectBoundingBox" id="filter-16">
            <feOffset dx="0" dy="2" in="SourceAlpha" result="shadowOffsetOuter1"></feOffset>
            <feGaussianBlur stdDeviation="2" in="shadowOffsetOuter1" result="shadowBlurOuter1"></feGaussianBlur>
            <feColorMatrix values="0 0 0 0 0   0 0 0 0 0   0 0 0 0 0  0 0 0 0.180366848 0" type="matrix" in="shadowBlurOuter1"></feColorMatrix>
        </filter>
        <rect id="path-17" x="0" y="0" width="260" height="54" rx="2"></rect>
        <filter x="-2.7%" y="-9.3%" width="105.4%" height="125.9%" filterUnits="objectBoundingBox" id="filter-18">
            <feOffset dx="0" dy="2" in="SourceAlpha" result="shadowOffsetOuter1"></feOffset>
            <feGaussianBlur stdDeviation="2" in="shadowOffsetOuter1" result="shadowBlurOuter1"></feGaussianBlur>
            <feColorMatrix values="0 0 0 0 0   0 0 0 0 0   0 0 0 0 0  0 0 0 0.180366848 0" type="matrix" in="shadowBlurOuter1"></feColorMatrix>
        </filter>
        <rect id="path-19" x="0" y="0" width="260" height="54" rx="2"></rect>
        <filter x="-2.7%" y="-9.3%" width="105.4%" height="125.9%" filterUnits="objectBoundingBox" id="filter-20">
            <feOffset dx="0" dy="2" in="SourceAlpha" result="shadowOffsetOuter1"></feOffset>
            <feGaussianBlur stdDeviation="2" in="shadowOffsetOuter1" result="shadowBlurOuter1"></feGaussianBlur>
            <feColorMatrix values="0 0 0 0 0   0 0 0 0 0   0 0 0 0 0  0 0 0 0.180366848 0" type="matrix" in="shadowBlurOuter1"></feColorMatrix>
        </filter>
        <rect id="path-21" x="0" y="0" width="260" height="54" rx="2"></rect>
        <filter x="-2.7%" y="-9.3%" width="105.4%" height="125.9%" filterUnits="objectBoundingBox" id="filter-22">
            <feOffset dx="0" dy="2" in="SourceAlpha" result="shadowOffsetOuter1"></feOffset>
            <feGaussianBlur stdDeviation="2" in="shadowOffsetOuter1" result="shadowBlurOuter1"></feGaussianBlur>
            <feColorMatrix values="0 0 0 0 0   0 0 0 0 0   0 0 0 0 0  0 0 0 0.180366848 0" type="matrix" in="shadowBlurOuter1"></feColorMatrix>
        </filter>
        <rect id="path-23" x="0" y="0" width="260" height="54" rx="2"></rect>
        <filter x="-2.7%" y="-9.3%" width="105.4%" height="125.9%" filterUnits="objectBoundingBox" id="filter-24">
            <feOffset dx="0" dy="2" in="SourceAlpha" result="shadowOffsetOuter1"></feOffset>
            <feGaussianBlur stdDeviation="2" in="shadowOffsetOuter1" result="shadowBlurOuter1"></feGaussianBlur>
            <feColorMatrix values="0 0 0 0 0   0 0 0 0 0   0 0 0 0 0  0 0 0 0.180366848 0" type="matrix" in="shadowBlurOuter1"></feColorMatrix>
        </filter>
        <rect id="path-25" x="0" y="0" width="260" height="54" rx="2"></rect>
        <filter x="-2.7%" y="-9.3%" width="105.4%" height="125.9%" filterUnits="objectBoundingBox" id="filter-26">
            <feOffset dx="0" dy="2" in="SourceAlpha" result="shadowOffsetOuter1"></feOffset>
            <feGaussianBlur stdDeviation="2" in="shadowOffsetOuter1" result="shadowBlurOuter1"></feGaussianBlur>
            <feColorMatrix values="0 0 0 0 0   0 0 0 0 0   0 0 0 0 0  0 0 0 0.180366848 0" type="matrix" in="shadowBlurOuter1"></feColorMatrix>
        </filter>
        <rect id="path-27" x="0" y="0" width="260" height="54" rx="2"></rect>
        <filter x="-2.7%" y="-9.3%" width="105.4%" height="125.9%" filterUnits="objectBoundingBox" id="filter-28">
            <feOffset dx="0" dy="2" in="SourceAlpha" result="shadowOffsetOuter1"></feOffset>
            <feGaussianBlur stdDeviation="2" in="shadowOffsetOuter1" result="shadowBlurOuter1"></feGaussianBlur>
            <feColorMatrix values="0 0 0 0 0   0 0 0 0 0   0 0 0 0 0  0 0 0 0.180366848 0" type="matrix" in="shadowBlurOuter1"></feColorMatrix>
        </filter>
        <rect id="path-29" x="859" y="248" width="260" height="95" rx="2"></rect>
        <filter x="-2.7%" y="-5.3%" width="105.4%" height="114.7%" filterUnits="objectBoundingBox" id="filter-30">
            <feOffset dx="0" dy="2" in="SourceAlpha" result="shadowOffsetOuter1"></feOffset>
            <feGaussianBlur stdDeviation="2" in="shadowOffsetOuter1" result="shadowBlurOuter1"></feGaussianBlur>
            <feColorMatrix values="0 0 0 0 0   0 0 0 0 0   0 0 0 0 0  0 0 0 0.180366848 0" type="matrix" in="shadowBlurOuter1"></feColorMatrix>
        </filter>
        <rect id="path-31" x="859" y="136" width="260" height="30" rx="2"></rect>
        <filter x="-2.7%" y="-16.7%" width="105.4%" height="146.7%" filterUnits="objectBoundingBox" id="filter-32">
            <feOffset dx="0" dy="2" in="SourceAlpha" result="shadowOffsetOuter1"></feOffset>
            <feGaussianBlur stdDeviation="2" in="shadowOffsetOuter1" result="shadowBlurOuter1"></feGaussianBlur>
            <feColorMatrix values="0 0 0 0 0   0 0 0 0 0   0 0 0 0 0  0 0 0 0.180366848 0" type="matrix" in="shadowBlurOuter1"></feColorMatrix>
        </filter>
        <rect id="path-33" x="1154" y="134" width="260" height="30" rx="2"></rect>
        <filter x="-2.7%" y="-16.7%" width="105.4%" height="146.7%" filterUnits="objectBoundingBox" id="filter-34">
            <feOffset dx="0" dy="2" in="SourceAlpha" result="shadowOffsetOuter1"></feOffset>
            <feGaussianBlur stdDeviation="2" in="shadowOffsetOuter1" result="shadowBlurOuter1"></feGaussianBlur>
            <feColorMatrix values="0 0 0 0 0   0 0 0 0 0   0 0 0 0 0  0 0 0 0.180366848 0" type="matrix" in="shadowBlurOuter1"></feColorMatrix>
        </filter>
        <rect id="path-35" x="0" y="0" width="260" height="54" rx="2"></rect>
        <filter x="-2.7%" y="-9.3%" width="105.4%" height="125.9%" filterUnits="objectBoundingBox" id="filter-36">
            <feOffset dx="0" dy="2" in="SourceAlpha" result="shadowOffsetOuter1"></feOffset>
            <feGaussianBlur stdDeviation="2" in="shadowOffsetOuter1" result="shadowBlurOuter1"></feGaussianBlur>
            <feColorMatrix values="0 0 0 0 0   0 0 0 0 0   0 0 0 0 0  0 0 0 0.180366848 0" type="matrix" in="shadowBlurOuter1"></feColorMatrix>
        </filter>
        <rect id="path-37" x="0" y="0" width="260" height="95" rx="2"></rect>
        <filter x="-2.7%" y="-5.3%" width="105.4%" height="114.7%" filterUnits="objectBoundingBox" id="filter-38">
            <feOffset dx="0" dy="2" in="SourceAlpha" result="shadowOffsetOuter1"></feOffset>
            <feGaussianBlur stdDeviation="2" in="shadowOffsetOuter1" result="shadowBlurOuter1"></feGaussianBlur>
            <feColorMatrix values="0 0 0 0 0   0 0 0 0 0   0 0 0 0 0  0 0 0 0.180366848 0" type="matrix" in="shadowBlurOuter1"></feColorMatrix>
        </filter>
        <rect id="path-39" x="0" y="0" width="260" height="54" rx="2"></rect>
        <filter x="-2.7%" y="-9.3%" width="105.4%" height="125.9%" filterUnits="objectBoundingBox" id="filter-40">
            <feOffset dx="0" dy="2" in="SourceAlpha" result="shadowOffsetOuter1"></feOffset>
            <feGaussianBlur stdDeviation="2" in="shadowOffsetOuter1" result="shadowBlurOuter1"></feGaussianBlur>
            <feColorMatrix values="0 0 0 0 0   0 0 0 0 0   0 0 0 0 0  0 0 0 0.180366848 0" type="matrix" in="shadowBlurOuter1"></feColorMatrix>
        </filter>
        <rect id="path-41" x="0" y="0" width="260" height="54" rx="2"></rect>
        <filter x="-2.7%" y="-9.3%" width="105.4%" height="125.9%" filterUnits="objectBoundingBox" id="filter-42">
            <feOffset dx="0" dy="2" in="SourceAlpha" result="shadowOffsetOuter1"></feOffset>
            <feGaussianBlur stdDeviation="2" in="shadowOffsetOuter1" result="shadowBlurOuter1"></feGaussianBlur>
            <feColorMatrix values="0 0 0 0 0   0 0 0 0 0   0 0 0 0 0  0 0 0 0.180366848 0" type="matrix" in="shadowBlurOuter1"></feColorMatrix>
        </filter>
        <rect id="path-43" x="0" y="0" width="260" height="95" rx="2"></rect>
        <filter x="-4.4%" y="-10.0%" width="108.8%" height="124.2%" filterUnits="objectBoundingBox" id="filter-44">
            <feMorphology radius="1.5" operator="dilate" in="SourceAlpha" result="shadowSpreadOuter1"></feMorphology>
            <feOffset dx="0" dy="2" in="shadowSpreadOuter1" result="shadowOffsetOuter1"></feOffset>
            <feGaussianBlur stdDeviation="2" in="shadowOffsetOuter1" result="shadowBlurOuter1"></feGaussianBlur>
            <feColorMatrix values="0 0 0 0 0   0 0 0 0 0   0 0 0 0 0  0 0 0 0.180366848 0" type="matrix" in="shadowBlurOuter1"></feColorMatrix>
        </filter>
        <rect id="path-45" x="535" y="246" width="45" height="45" rx="2"></rect>
        <filter x="-25.6%" y="-21.1%" width="151.1%" height="151.1%" filterUnits="objectBoundingBox" id="filter-46">
            <feMorphology radius="1.5" operator="dilate" in="SourceAlpha" result="shadowSpreadOuter1"></feMorphology>
            <feOffset dx="0" dy="2" in="shadowSpreadOuter1" result="shadowOffsetOuter1"></feOffset>
            <feGaussianBlur stdDeviation="2" in="shadowOffsetOuter1" result="shadowBlurOuter1"></feGaussianBlur>
            <feColorMatrix values="0 0 0 0 0   0 0 0 0 0   0 0 0 0 0  0 0 0 0.180366848 0" type="matrix" in="shadowBlurOuter1"></feColorMatrix>
        </filter>
        <rect id="path-47" x="535" y="296" width="45" height="45" rx="2"></rect>
        <filter x="-25.6%" y="-21.1%" width="151.1%" height="151.1%" filterUnits="objectBoundingBox" id="filter-48">
            <feMorphology radius="1.5" operator="dilate" in="SourceAlpha" result="shadowSpreadOuter1"></feMorphology>
            <feOffset dx="0" dy="2" in="shadowSpreadOuter1" result="shadowOffsetOuter1"></feOffset>
            <feGaussianBlur stdDeviation="2" in="shadowOffsetOuter1" result="shadowBlurOuter1"></feGaussianBlur>
            <feColorMatrix values="0 0 0 0 0   0 0 0 0 0   0 0 0 0 0  0 0 0 0.180366848 0" type="matrix" in="shadowBlurOuter1"></feColorMatrix>
        </filter>
        <rect id="path-49" x="535" y="346" width="45" height="45" rx="2"></rect>
        <filter x="-25.6%" y="-21.1%" width="151.1%" height="151.1%" filterUnits="objectBoundingBox" id="filter-50">
            <feMorphology radius="1.5" operator="dilate" in="SourceAlpha" result="shadowSpreadOuter1"></feMorphology>
            <feOffset dx="0" dy="2" in="shadowSpreadOuter1" result="shadowOffsetOuter1"></feOffset>
            <feGaussianBlur stdDeviation="2" in="shadowOffsetOuter1" result="shadowBlurOuter1"></feGaussianBlur>
            <feColorMatrix values="0 0 0 0 0   0 0 0 0 0   0 0 0 0 0  0 0 0 0.180366848 0" type="matrix" in="shadowBlurOuter1"></feColorMatrix>
        </filter>
    </defs>
    <g id="outlined" stroke="none" stroke-width="1" fill="none" fill-rule="evenodd">
        <g id="cards2">
            <rect id="Rectangle-4" fill="#EEEEEE" opacity="0.644134964" x="0" y="0" width="1440" height="900"></rect>
            <rect id="Rectangle" fill="#424365" x="0" y="0" width="244" height="900"></rect>
            <g id="Rectangle-5-Copy-8">
                <use fill="black" fill-opacity="1" filter="url(#filter-2)" xlink:href="#path-1"></use>
                <use fill="#FFFFFF" fill-rule="evenodd" xlink:href="#path-1"></use>
            </g>
            <g id="Rectangle-5-Copy-9">
                <use fill="black" fill-opacity="1" filter="url(#filter-4)" xlink:href="#path-3"></use>
                <use fill="#FFFFFF" fill-rule="evenodd" xlink:href="#path-3"></use>
            </g>
            <g id="Group" transform="translate(59.000000, 28.000000)">
                <g id="logoText" transform="translate(24.000000, 0.000000)" font-size="20.0522193" font-family="Avenir-Roman, Avenir" fill="#FFFFFF" font-weight="normal">
                    <text id="fireflies.ai">
                        <tspan x="8.39458478" y="20">fireflies.ai</tspan>
                    </text>
                </g>
                <g id="logo" transform="translate(0.000000, 4.348432)">
                    <g id="icon-copy-3">
                        <g id="icon" transform="translate(0.415100, 1.331494)">
                            <g id="Asset-5">
                                <g id="Layer_2">
                                    <g id="Layer_1-2">
                                        <path d="M16.2016638,12.9455694 C15.0275104,14.9114748 12.9516576,16.1083733 10.7162237,16.1083733 C8.48078972,16.1083733 6.40493696,14.9114748 5.23078354,12.9455694 C7.24179311,12.631701 9.12379411,11.7293066 10.6542802,10.3450748 L10.8001915,10.4048236 C12.3313782,11.7635413 14.2046047,12.64467 16.2016638,12.9455694 L16.2016638,12.9455694 Z" id="Shape" fill="#FFFFFF"></path>
                                        <path d="M5.23078354,12.9455694 C6.40479509,14.9121317 8.48101156,16.109526 10.7169119,16.109526 C12.9528123,16.109526 15.0290287,14.9121317 16.2030403,12.9455694" id="Shape" stroke="#FFFFFF" stroke-width="1.08416735"></path>
                                        <path d="M10.6928228,10.30951 L10.798815,10.4048236 C12.330384,11.7637848 14.2041199,12.6449286 16.2016638,12.9455694 C16.7175395,13.0246205 17.238371,13.0640868 17.7598867,13.0636443 C18.9646002,13.0641792 20.1607124,12.8539869 21.2975482,12.4419725 C21.9422427,7.27100419 18.9938996,2.34022848 14.2304843,0.623094438" id="Shape" stroke="#FFFFFF" stroke-width="1.08416735"></path>
                                        <path d="M7.15791432,0.623094438 C2.8708503,2.17548409 0.000559840108,6.35746778 0,11.052102 C0.00102019342,11.5186925 0.0299825213,11.9847704 0.0867208851,12.4476629 C1.22403259,12.859676 2.42059666,13.0698659 3.62575891,13.0693347 C4.16300029,13.0693719 4.69949631,13.028002 5.23078354,12.9455694 C7.24179311,12.631701 9.12379411,11.7293066 10.6542802,10.3450748 L10.6941993,10.30951" id="Shape" stroke="#FFFFFF" stroke-width="1.08416735"></path>
                                        <path d="M10.6928228,10.30951 C13.3593744,7.89106717 14.6857703,4.25928332 14.2304843,0.623094438 C11.9413214,-0.206674297 9.44707719,-0.206674297 7.15791432,0.623094438 C7.10062431,1.08594826 7.07120188,1.55203217 7.06981692,2.01865527 C7.06615916,5.19245392 8.38647512,8.21385334 10.6928228,10.30951 L10.6928228,10.30951 Z" id="Shape" stroke="#FFFFFF" stroke-width="1.08416735"></path>
                                    </g>
                                </g>
                            </g>
                        </g>
                    </g>
                </g>
            </g>
            <text id="Bizops" font-family="OpenSans-Semibold, Open Sans" font-size="20" font-weight="500" fill="#505050">
                <tspan x="270.123047" y="117">Bizops</tspan>
            </text>
            <text id="Dev" font-family="OpenSans-Semibold, Open Sans" font-size="20" font-weight="500" fill="#505050">
                <tspan x="564.047852" y="117">Dev</tspan>
            </text>
            <text id="Marketing" font-family="OpenSans-Semibold, Open Sans" font-size="20" font-weight="500" fill="#505050">
                <tspan x="859.051758" y="117">Marketing</tspan>
            </text>
            <text id="" font-family="FontAwesome" font-size="20" font-weight="normal" fill="#3AC89E">
                <tspan x="1053.42857" y="282"></tspan>
            </text>
            <rect id="Rectangle-9" fill="#3BB9C9" x="0" y="142" width="244" height="33"></rect>
            <path d="M43.453125,165 L41.5859375,165 L41.5859375,155.179688 L38.2265625,155.179688 L38.2265625,153.578125 L46.8125,153.578125 L46.8125,155.179688 L43.453125,155.179688 L43.453125,165 Z M52.140625,165.15625 C50.7968683,165.15625 49.7460975,164.764327 48.9882812,163.980469 C48.230465,163.196611 47.8515625,162.117194 47.8515625,160.742188 C47.8515625,159.330722 48.2031215,158.221358 48.90625,157.414062 C49.6093785,156.606767 50.5755147,156.203125 51.8046875,156.203125 C52.9453182,156.203125 53.8463509,156.549476 54.5078125,157.242188 C55.1692741,157.934899 55.5,158.888015 55.5,160.101562 L55.5,161.09375 L49.7421875,161.09375 C49.7682293,161.932296 49.9947895,162.576821 50.421875,163.027344 C50.8489605,163.477867 51.450517,163.703125 52.2265625,163.703125 C52.7369817,163.703125 53.2122374,163.654948 53.6523438,163.558594 C54.0924501,163.462239 54.5651016,163.302084 55.0703125,163.078125 L55.0703125,164.570312 C54.6223936,164.783855 54.1692731,164.934895 53.7109375,165.023438 C53.2526019,165.11198 52.7291696,165.15625 52.140625,165.15625 Z M51.8046875,157.59375 C51.2213512,157.59375 50.753908,157.778644 50.4023438,158.148438 C50.0507795,158.518231 49.8411462,159.057288 49.7734375,159.765625 L53.6953125,159.765625 C53.6848958,159.05208 53.5130225,158.511721 53.1796875,158.144531 C52.8463525,157.777342 52.3880238,157.59375 51.8046875,157.59375 Z M62.9921875,165 L62.625,163.796875 L62.5625,163.796875 C62.1458313,164.322919 61.7265646,164.680989 61.3046875,164.871094 C60.8828104,165.061199 60.3411491,165.15625 59.6796875,165.15625 C58.8307249,165.15625 58.1679711,164.927086 57.6914062,164.46875 C57.2148414,164.010414 56.9765625,163.361983 56.9765625,162.523438 C56.9765625,161.632808 57.3072884,160.96094 57.96875,160.507812 C58.6302116,160.054685 59.6380141,159.807292 60.9921875,159.765625 L62.484375,159.71875 L62.484375,159.257812 C62.484375,158.705726 62.35547,158.29297 62.0976562,158.019531 C61.8398425,157.746092 61.4401069,157.609375 60.8984375,157.609375 C60.455727,157.609375 60.031252,157.674479 59.625,157.804688 C59.218748,157.934896 58.8281269,158.088541 58.453125,158.265625 L57.859375,156.953125 C58.3281273,156.708332 58.841143,156.522136 59.3984375,156.394531 C59.955732,156.266926 60.4817684,156.203125 60.9765625,156.203125 C62.0755263,156.203125 62.9049451,156.442706 63.4648438,156.921875 C64.0247424,157.401044 64.3046875,158.153641 64.3046875,159.179688 L64.3046875,165 L62.9921875,165 Z M60.2578125,163.75 C60.9244825,163.75 61.4596334,163.563804 61.8632812,163.191406 C62.2669291,162.819009 62.46875,162.296878 62.46875,161.625 L62.46875,160.875 L61.359375,160.921875 C60.4947873,160.953125 59.8658874,161.097655 59.4726562,161.355469 C59.0794251,161.613283 58.8828125,162.00781 58.8828125,162.539062 C58.8828125,162.924481 58.9973947,163.222655 59.2265625,163.433594 C59.4557303,163.644532 59.7994769,163.75 60.2578125,163.75 Z M74.1484375,165 L72.3046875,165 L72.3046875,159.671875 C72.3046875,159.010413 72.1796887,158.516929 71.9296875,158.191406 C71.6796863,157.865884 71.2890652,157.703125 70.7578125,157.703125 C70.0494756,157.703125 69.5299496,157.933591 69.1992188,158.394531 C68.8684879,158.855471 68.703125,159.62239 68.703125,160.695312 L68.703125,165 L66.8671875,165 L66.8671875,156.359375 L68.3046875,156.359375 L68.5625,157.492188 L68.65625,157.492188 C68.8958345,157.080727 69.2434873,156.763022 69.6992188,156.539062 C70.1549502,156.315103 70.6562473,156.203125 71.203125,156.203125 C72.5312566,156.203125 73.4114562,156.656245 73.84375,157.5625 L73.96875,157.5625 C74.2239596,157.135415 74.583331,156.802085 75.046875,156.5625 C75.510419,156.322915 76.0416637,156.203125 76.640625,156.203125 C77.6718802,156.203125 78.4231747,156.463539 78.8945312,156.984375 C79.3658878,157.505211 79.6015625,158.299474 79.6015625,159.367188 L79.6015625,165 L77.765625,165 L77.765625,159.671875 C77.765625,159.010413 77.6393242,158.516929 77.3867188,158.191406 C77.1341133,157.865884 76.7421902,157.703125 76.2109375,157.703125 C75.4973923,157.703125 74.9752621,157.925779 74.6445312,158.371094 C74.3138004,158.816408 74.1484375,159.499995 74.1484375,160.421875 L74.1484375,165 Z" id="Team" fill="#FFFFFF"></path>
            <path d="M46.75,198 L45.328125,194.367188 L40.75,194.367188 L39.34375,198 L38,198 L42.515625,186.53125 L43.6328125,186.53125 L48.125,198 L46.75,198 Z M44.9140625,193.171875 L43.5859375,189.632812 C43.4140616,189.184894 43.2369801,188.63542 43.0546875,187.984375 C42.9401036,188.484377 42.7760427,189.033851 42.5625,189.632812 L41.21875,193.171875 L44.9140625,193.171875 Z M53.40625,189.28125 C53.7864602,189.28125 54.1276027,189.3125 54.4296875,189.375 L54.25,190.578125 C53.8958316,190.5 53.5833347,190.460938 53.3125,190.460938 C52.6197882,190.460938 52.0273462,190.742185 51.5351562,191.304688 C51.0429663,191.86719 50.796875,192.567704 50.796875,193.40625 L50.796875,198 L49.5,198 L49.5,189.4375 L50.5703125,189.4375 L50.71875,191.023438 L50.78125,191.023438 C51.0989599,190.466143 51.4817686,190.03646 51.9296875,189.734375 C52.3776064,189.43229 52.869789,189.28125 53.40625,189.28125 Z M59.453125,198.15625 C58.2135355,198.15625 57.2539096,197.774743 56.5742188,197.011719 C55.8945279,196.248694 55.5546875,195.169278 55.5546875,193.773438 C55.5546875,192.341139 55.8997361,191.234379 56.5898438,190.453125 C57.2799514,189.671871 58.2630145,189.28125 59.5390625,189.28125 C59.9505229,189.28125 60.3619771,189.32552 60.7734375,189.414062 C61.1848979,189.502605 61.5078113,189.60677 61.7421875,189.726562 L61.34375,190.828125 C61.0572902,190.713541 60.7447934,190.61849 60.40625,190.542969 C60.0677066,190.467448 59.7682305,190.429688 59.5078125,190.429688 C57.7682205,190.429688 56.8984375,191.539051 56.8984375,193.757812 C56.8984375,194.809901 57.110675,195.617185 57.5351562,196.179688 C57.9596375,196.74219 58.5885375,197.023438 59.421875,197.023438 C60.1354202,197.023438 60.8671838,196.869793 61.6171875,196.5625 L61.6171875,197.710938 C61.044268,198.007814 60.322921,198.15625 59.453125,198.15625 Z M69.5078125,198 L69.5078125,192.460938 C69.5078125,191.763017 69.3489599,191.242189 69.03125,190.898438 C68.7135401,190.554686 68.2161492,190.382812 67.5390625,190.382812 C66.6380163,190.382812 65.9804708,190.627602 65.5664062,191.117188 C65.1523417,191.606773 64.9453125,192.408849 64.9453125,193.523438 L64.9453125,198 L63.6484375,198 L63.6484375,185.84375 L64.9453125,185.84375 L64.9453125,189.523438 C64.9453125,189.966148 64.9244794,190.333332 64.8828125,190.625 L64.9609375,190.625 C65.2161471,190.21354 65.5794247,189.889324 66.0507812,189.652344 C66.5221378,189.415363 67.0598928,189.296875 67.6640625,189.296875 C68.7109427,189.296875 69.4960911,189.54557 70.0195312,190.042969 C70.5429714,190.540367 70.8046875,191.330724 70.8046875,192.414062 L70.8046875,198 L69.5078125,198 Z M74.765625,198 L73.46875,198 L73.46875,189.4375 L74.765625,189.4375 L74.765625,198 Z M73.359375,187.117188 C73.359375,186.820311 73.4322909,186.602865 73.578125,186.464844 C73.7239591,186.326822 73.9062489,186.257812 74.125,186.257812 C74.3333344,186.257812 74.5130201,186.328124 74.6640625,186.46875 C74.8151049,186.609376 74.890625,186.825519 74.890625,187.117188 C74.890625,187.408856 74.8151049,187.626301 74.6640625,187.769531 C74.5130201,187.912761 74.3333344,187.984375 74.125,187.984375 C73.9062489,187.984375 73.7239591,187.912761 73.578125,187.769531 C73.4322909,187.626301 73.359375,187.408856 73.359375,187.117188 Z M79.390625,198 L76.140625,189.4375 L77.53125,189.4375 L79.375,194.515625 C79.7916687,195.703131 80.036458,196.473957 80.109375,196.828125 L80.171875,196.828125 C80.229167,196.552082 80.4101547,195.980473 80.7148438,195.113281 C81.0195328,194.246089 81.7031197,192.354181 82.765625,189.4375 L84.15625,189.4375 L80.90625,198 L79.390625,198 Z M89.1484375,198.15625 C87.8828062,198.15625 86.8841182,197.770837 86.1523438,197 C85.4205693,196.229163 85.0546875,195.158861 85.0546875,193.789062 C85.0546875,192.408847 85.3945279,191.312504 86.0742188,190.5 C86.7539096,189.687496 87.6666609,189.28125 88.8125,189.28125 C89.885422,189.28125 90.7343719,189.634111 91.359375,190.339844 C91.9843781,191.045576 92.296875,191.976557 92.296875,193.132812 L92.296875,193.953125 L86.3984375,193.953125 C86.4244793,194.958338 86.678383,195.721352 87.1601562,196.242188 C87.6419295,196.763023 88.3203081,197.023438 89.1953125,197.023438 C90.1171921,197.023438 91.0286413,196.830731 91.9296875,196.445312 L91.9296875,197.601562 C91.4713519,197.79948 91.0377625,197.941406 90.6289062,198.027344 C90.22005,198.113282 89.7265654,198.15625 89.1484375,198.15625 Z M88.796875,190.367188 C88.1093716,190.367188 87.5612,190.591144 87.1523438,191.039062 C86.7434875,191.486981 86.5026045,192.106767 86.4296875,192.898438 L90.90625,192.898438 C90.90625,192.080725 90.7239602,191.454429 90.359375,191.019531 C89.9947898,190.584633 89.4739617,190.367188 88.796875,190.367188 Z" id="Archive" fill="#C9CAED"></path>
            <path d="M45.6640625,305.976562 L45.1484375,308.632812 L47.359375,308.632812 L47.359375,309.640625 L44.9609375,309.640625 L44.3046875,313 L43.234375,313 L43.890625,309.640625 L41.5234375,309.640625 L40.8828125,313 L39.8203125,313 L40.4453125,309.640625 L38.3984375,309.640625 L38.3984375,308.632812 L40.640625,308.632812 L41.171875,305.976562 L39.0078125,305.976562 L39.0078125,304.984375 L41.34375,304.984375 L41.984375,301.578125 L43.0703125,301.578125 L42.4296875,304.984375 L44.8125,304.984375 L45.46875,301.578125 L46.515625,301.578125 L45.859375,304.984375 L47.921875,304.984375 L47.921875,305.976562 L45.6640625,305.976562 Z M41.7109375,308.632812 L44.078125,308.632812 L44.59375,305.976562 L42.2265625,305.976562 L41.7109375,308.632812 Z M53.6953125,304.296875 C54.8203181,304.296875 55.6940073,304.680986 56.3164062,305.449219 C56.9388052,306.217452 57.25,307.30468 57.25,308.710938 C57.25,310.117195 56.9362011,311.209632 56.3085938,311.988281 C55.6809864,312.766931 54.8099014,313.15625 53.6953125,313.15625 C53.138018,313.15625 52.6289086,313.053386 52.1679688,312.847656 C51.7070289,312.641926 51.3203141,312.325523 51.0078125,311.898438 L50.9140625,311.898438 L50.640625,313 L49.7109375,313 L49.7109375,300.84375 L51.0078125,300.84375 L51.0078125,303.796875 C51.0078125,304.458337 50.9869794,305.052081 50.9453125,305.578125 L51.0078125,305.578125 C51.6119822,304.723954 52.5078066,304.296875 53.6953125,304.296875 Z M53.5078125,305.382812 C52.6223914,305.382812 51.984377,305.636716 51.59375,306.144531 C51.203123,306.652346 51.0078125,307.507806 51.0078125,308.710938 C51.0078125,309.914069 51.2083313,310.774737 51.609375,311.292969 C52.0104187,311.811201 52.6536414,312.070312 53.5390625,312.070312 C54.3359415,312.070312 54.9296855,311.779951 55.3203125,311.199219 C55.7109395,310.618487 55.90625,309.78386 55.90625,308.695312 C55.90625,307.580724 55.7109395,306.750003 55.3203125,306.203125 C54.9296855,305.656247 54.3255249,305.382812 53.5078125,305.382812 Z M60.8125,313 L59.515625,313 L59.515625,304.4375 L60.8125,304.4375 L60.8125,313 Z M59.40625,302.117188 C59.40625,301.820311 59.4791659,301.602865 59.625,301.464844 C59.7708341,301.326822 59.9531239,301.257812 60.171875,301.257812 C60.3802094,301.257812 60.5598951,301.328124 60.7109375,301.46875 C60.8619799,301.609376 60.9375,301.825519 60.9375,302.117188 C60.9375,302.408856 60.8619799,302.626301 60.7109375,302.769531 C60.5598951,302.912761 60.3802094,302.984375 60.171875,302.984375 C59.9531239,302.984375 59.7708341,302.912761 59.625,302.769531 C59.4791659,302.626301 59.40625,302.408856 59.40625,302.117188 Z M69.0390625,313 L62.828125,313 L62.828125,312.117188 L67.5,305.445312 L63.1171875,305.445312 L63.1171875,304.4375 L68.921875,304.4375 L68.921875,305.445312 L64.3125,311.992188 L69.0390625,311.992188 L69.0390625,313 Z M78.4375,308.710938 C78.4375,310.106778 78.085941,311.196611 77.3828125,311.980469 C76.679684,312.764327 75.7083395,313.15625 74.46875,313.15625 C73.7031212,313.15625 73.0234405,312.976564 72.4296875,312.617188 C71.8359345,312.257811 71.3776058,311.742191 71.0546875,311.070312 C70.7317692,310.398434 70.5703125,309.611984 70.5703125,308.710938 C70.5703125,307.315097 70.9192673,306.227868 71.6171875,305.449219 C72.3151077,304.670569 73.283848,304.28125 74.5234375,304.28125 C75.7213602,304.28125 76.6731736,304.679684 77.3789062,305.476562 C78.0846389,306.273441 78.4375,307.351556 78.4375,308.710938 Z M71.9140625,308.710938 C71.9140625,309.804693 72.1328103,310.638018 72.5703125,311.210938 C73.0078147,311.783857 73.6510374,312.070312 74.5,312.070312 C75.3489626,312.070312 75.9934874,311.785159 76.4335938,311.214844 C76.8737001,310.644528 77.09375,309.809901 77.09375,308.710938 C77.09375,307.62239 76.8737001,306.795576 76.4335938,306.230469 C75.9934874,305.665362 75.3437543,305.382812 74.484375,305.382812 C73.6354124,305.382812 72.9947938,305.661456 72.5625,306.21875 C72.1302062,306.776044 71.9140625,307.606765 71.9140625,308.710938 Z M84.6953125,313.15625 C84.138018,313.15625 83.6289086,313.053386 83.1679688,312.847656 C82.7070289,312.641926 82.3203141,312.325523 82.0078125,311.898438 L81.9140625,311.898438 C81.9765628,312.39844 82.0078125,312.872394 82.0078125,313.320312 L82.0078125,316.84375 L80.7109375,316.84375 L80.7109375,304.4375 L81.765625,304.4375 L81.9453125,305.609375 L82.0078125,305.609375 C82.3411475,305.140623 82.7291645,304.802084 83.171875,304.59375 C83.6145855,304.385416 84.122393,304.28125 84.6953125,304.28125 C85.8307348,304.28125 86.7070282,304.669267 87.3242188,305.445312 C87.9414093,306.221358 88.25,307.309889 88.25,308.710938 C88.25,310.117195 87.9362011,311.209632 87.3085938,311.988281 C86.6809864,312.766931 85.8099014,313.15625 84.6953125,313.15625 Z M84.5078125,305.382812 C83.6328081,305.382812 83.000002,305.624998 82.609375,306.109375 C82.218748,306.593752 82.0182292,307.364578 82.0078125,308.421875 L82.0078125,308.710938 C82.0078125,309.914069 82.2083313,310.774737 82.609375,311.292969 C83.0104187,311.811201 83.6536414,312.070312 84.5390625,312.070312 C85.2786495,312.070312 85.8580708,311.770836 86.2773438,311.171875 C86.6966167,310.572914 86.90625,309.747401 86.90625,308.695312 C86.90625,307.627599 86.6966167,306.808597 86.2773438,306.238281 C85.8580708,305.667966 85.268233,305.382812 84.5078125,305.382812 Z M96.0390625,310.664062 C96.0390625,311.460941 95.7421905,312.075519 95.1484375,312.507812 C94.5546845,312.940106 93.7213595,313.15625 92.6484375,313.15625 C91.5130152,313.15625 90.6276073,312.976564 89.9921875,312.617188 L89.9921875,311.414062 C90.4036479,311.622397 90.8450497,311.786458 91.3164062,311.90625 C91.7877628,312.026042 92.2421853,312.085938 92.6796875,312.085938 C93.3567742,312.085938 93.8776023,311.977866 94.2421875,311.761719 C94.6067727,311.545572 94.7890625,311.216148 94.7890625,310.773438 C94.7890625,310.440103 94.6445327,310.154949 94.3554688,309.917969 C94.0664048,309.680988 93.5026084,309.401043 92.6640625,309.078125 C91.8671835,308.781249 91.3007829,308.522137 90.9648438,308.300781 C90.6289046,308.079426 90.3789071,307.828126 90.2148438,307.546875 C90.0507804,307.265624 89.96875,306.929689 89.96875,306.539062 C89.96875,305.841142 90.2526013,305.290367 90.8203125,304.886719 C91.3880237,304.483071 92.1666617,304.28125 93.15625,304.28125 C94.0781296,304.28125 94.9791623,304.468748 95.859375,304.84375 L95.3984375,305.898438 C94.5390582,305.544269 93.7604202,305.367188 93.0625,305.367188 C92.4479136,305.367188 91.9843766,305.463541 91.671875,305.65625 C91.3593734,305.848959 91.203125,306.114582 91.203125,306.453125 C91.203125,306.682293 91.2617182,306.877603 91.3789062,307.039062 C91.4960943,307.200522 91.6848945,307.354166 91.9453125,307.5 C92.2057305,307.645834 92.7057255,307.856769 93.4453125,308.132812 C94.4609426,308.502606 95.1471336,308.874998 95.5039062,309.25 C95.8606789,309.625002 96.0390625,310.096351 96.0390625,310.664062 Z" id="#bizops" fill="#C9CAED"></path>
            <path d="M45.6640625,338.976562 L45.1484375,341.632812 L47.359375,341.632812 L47.359375,342.640625 L44.9609375,342.640625 L44.3046875,346 L43.234375,346 L43.890625,342.640625 L41.5234375,342.640625 L40.8828125,346 L39.8203125,346 L40.4453125,342.640625 L38.3984375,342.640625 L38.3984375,341.632812 L40.640625,341.632812 L41.171875,338.976562 L39.0078125,338.976562 L39.0078125,337.984375 L41.34375,337.984375 L41.984375,334.578125 L43.0703125,334.578125 L42.4296875,337.984375 L44.8125,337.984375 L45.46875,334.578125 L46.515625,334.578125 L45.859375,337.984375 L47.921875,337.984375 L47.921875,338.976562 L45.6640625,338.976562 Z M41.7109375,341.632812 L44.078125,341.632812 L44.59375,338.976562 L42.2265625,338.976562 L41.7109375,341.632812 Z M55.5390625,344.851562 L55.46875,344.851562 C54.8697887,345.721359 53.9739643,346.15625 52.78125,346.15625 C51.6614527,346.15625 50.7903677,345.773441 50.1679688,345.007812 C49.5455698,344.242184 49.234375,343.153653 49.234375,341.742188 C49.234375,340.330722 49.5468719,339.234379 50.171875,338.453125 C50.7968781,337.671871 51.6666611,337.28125 52.78125,337.28125 C53.9427141,337.28125 54.8333302,337.703121 55.453125,338.546875 L55.5546875,338.546875 L55.5,337.929688 L55.46875,337.328125 L55.46875,333.84375 L56.765625,333.84375 L56.765625,346 L55.7109375,346 L55.5390625,344.851562 Z M52.9453125,345.070312 C53.8307336,345.070312 54.4726543,344.829429 54.8710938,344.347656 C55.2695332,343.865883 55.46875,343.088547 55.46875,342.015625 L55.46875,341.742188 C55.46875,340.52864 55.2669291,339.662763 54.8632812,339.144531 C54.4596334,338.626299 53.8151086,338.367188 52.9296875,338.367188 C52.169267,338.367188 51.5872416,338.662757 51.1835938,339.253906 C50.7799459,339.845055 50.578125,340.679682 50.578125,341.757812 C50.578125,342.851568 50.7786438,343.677081 51.1796875,344.234375 C51.5807312,344.791669 52.169267,345.070312 52.9453125,345.070312 Z M63.1328125,346.15625 C61.8671812,346.15625 60.8684932,345.770837 60.1367188,345 C59.4049443,344.229163 59.0390625,343.158861 59.0390625,341.789062 C59.0390625,340.408847 59.3789029,339.312504 60.0585938,338.5 C60.7382846,337.687496 61.6510359,337.28125 62.796875,337.28125 C63.869797,337.28125 64.7187469,337.634111 65.34375,338.339844 C65.9687531,339.045576 66.28125,339.976557 66.28125,341.132812 L66.28125,341.953125 L60.3828125,341.953125 C60.4088543,342.958338 60.662758,343.721352 61.1445312,344.242188 C61.6263045,344.763023 62.3046831,345.023438 63.1796875,345.023438 C64.1015671,345.023438 65.0130163,344.830731 65.9140625,344.445312 L65.9140625,345.601562 C65.4557269,345.79948 65.0221375,345.941406 64.6132812,346.027344 C64.204425,346.113282 63.7109404,346.15625 63.1328125,346.15625 Z M62.78125,338.367188 C62.0937466,338.367188 61.545575,338.591144 61.1367188,339.039062 C60.7278625,339.486981 60.4869795,340.106767 60.4140625,340.898438 L64.890625,340.898438 C64.890625,340.080725 64.7083352,339.454429 64.34375,339.019531 C63.9791648,338.584633 63.4583367,338.367188 62.78125,338.367188 Z M70.3671875,346 L67.1171875,337.4375 L68.5078125,337.4375 L70.3515625,342.515625 C70.7682312,343.703131 71.0130205,344.473957 71.0859375,344.828125 L71.1484375,344.828125 C71.2057295,344.552082 71.3867172,343.980473 71.6914062,343.113281 C71.9960953,342.246089 72.6796822,340.354181 73.7421875,337.4375 L75.1328125,337.4375 L71.8828125,346 L70.3671875,346 Z" id="#dev" fill="#C9CAED"></path>
            <path d="M45.6640625,371.976562 L45.1484375,374.632812 L47.359375,374.632812 L47.359375,375.640625 L44.9609375,375.640625 L44.3046875,379 L43.234375,379 L43.890625,375.640625 L41.5234375,375.640625 L40.8828125,379 L39.8203125,379 L40.4453125,375.640625 L38.3984375,375.640625 L38.3984375,374.632812 L40.640625,374.632812 L41.171875,371.976562 L39.0078125,371.976562 L39.0078125,370.984375 L41.34375,370.984375 L41.984375,367.578125 L43.0703125,367.578125 L42.4296875,370.984375 L44.8125,370.984375 L45.46875,367.578125 L46.515625,367.578125 L45.859375,370.984375 L47.921875,370.984375 L47.921875,371.976562 L45.6640625,371.976562 Z M41.7109375,374.632812 L44.078125,374.632812 L44.59375,371.976562 L42.2265625,371.976562 L41.7109375,374.632812 Z M60.625,379 L60.625,373.429688 C60.625,372.747392 60.4791681,372.235679 60.1875,371.894531 C59.8958319,371.553384 59.4427114,371.382812 58.828125,371.382812 C58.0208293,371.382812 57.4244811,371.614581 57.0390625,372.078125 C56.6536439,372.541669 56.4609375,373.255204 56.4609375,374.21875 L56.4609375,379 L55.1640625,379 L55.1640625,373.429688 C55.1640625,372.747392 55.0182306,372.235679 54.7265625,371.894531 C54.4348944,371.553384 53.9791698,371.382812 53.359375,371.382812 C52.5468709,371.382812 51.9518248,371.6263 51.5742188,372.113281 C51.1966127,372.600263 51.0078125,373.398432 51.0078125,374.507812 L51.0078125,379 L49.7109375,379 L49.7109375,370.4375 L50.765625,370.4375 L50.9765625,371.609375 L51.0390625,371.609375 C51.2838554,371.192706 51.628904,370.867189 52.0742188,370.632812 C52.5195335,370.398436 53.0182264,370.28125 53.5703125,370.28125 C54.9088609,370.28125 55.7838521,370.76562 56.1953125,371.734375 L56.2578125,371.734375 C56.5130221,371.286456 56.8828101,370.932293 57.3671875,370.671875 C57.8515649,370.411457 58.4036427,370.28125 59.0234375,370.28125 C59.9921923,370.28125 60.7174455,370.529945 61.1992188,371.027344 C61.680992,371.524742 61.921875,372.320307 61.921875,373.414062 L61.921875,379 L60.625,379 Z M69.859375,379 L69.6015625,377.78125 L69.5390625,377.78125 C69.111977,378.317711 68.6862,378.680989 68.2617188,378.871094 C67.8372375,379.061199 67.3072948,379.15625 66.671875,379.15625 C65.8229124,379.15625 65.1575545,378.937502 64.6757812,378.5 C64.194008,378.062498 63.953125,377.440108 63.953125,376.632812 C63.953125,374.903637 65.3359237,373.997396 68.1015625,373.914062 L69.5546875,373.867188 L69.5546875,373.335938 C69.5546875,372.664059 69.4101577,372.16797 69.1210938,371.847656 C68.8320298,371.527342 68.3697948,371.367188 67.734375,371.367188 C67.0208298,371.367188 66.2135462,371.585935 65.3125,372.023438 L64.9140625,371.03125 C65.3359396,370.802082 65.7981746,370.622396 66.3007812,370.492188 C66.8033879,370.361979 67.3072891,370.296875 67.8125,370.296875 C68.8333384,370.296875 69.5898413,370.523435 70.0820312,370.976562 C70.5742212,371.42969 70.8203125,372.156245 70.8203125,373.15625 L70.8203125,379 L69.859375,379 Z M66.9296875,378.085938 C67.7369832,378.085938 68.3710914,377.864586 68.8320312,377.421875 C69.2929711,376.979164 69.5234375,376.359379 69.5234375,375.5625 L69.5234375,374.789062 L68.2265625,374.84375 C67.1953073,374.880209 66.4518252,375.040363 65.9960938,375.324219 C65.5403623,375.608074 65.3125,376.049476 65.3125,376.648438 C65.3125,377.11719 65.4544257,377.473957 65.7382812,377.71875 C66.0221368,377.963543 66.4192683,378.085938 66.9296875,378.085938 Z M77.3984375,370.28125 C77.7786477,370.28125 78.1197902,370.3125 78.421875,370.375 L78.2421875,371.578125 C77.8880191,371.5 77.5755222,371.460938 77.3046875,371.460938 C76.6119757,371.460938 76.0195337,371.742185 75.5273438,372.304688 C75.0351538,372.86719 74.7890625,373.567704 74.7890625,374.40625 L74.7890625,379 L73.4921875,379 L73.4921875,370.4375 L74.5625,370.4375 L74.7109375,372.023438 L74.7734375,372.023438 C75.0911474,371.466143 75.4739561,371.03646 75.921875,370.734375 C76.3697939,370.43229 76.8619765,370.28125 77.3984375,370.28125 Z M81.3046875,374.617188 C81.528647,374.299478 81.8697894,373.882815 82.328125,373.367188 L85.09375,370.4375 L86.6328125,370.4375 L83.1640625,374.085938 L86.875,379 L85.3046875,379 L82.28125,374.953125 L81.3046875,375.796875 L81.3046875,379 L80.0234375,379 L80.0234375,366.84375 L81.3046875,366.84375 L81.3046875,373.289062 C81.3046875,373.575522 81.2838544,374.018226 81.2421875,374.617188 L81.3046875,374.617188 Z M92.0390625,379.15625 C90.7734312,379.15625 89.7747432,378.770837 89.0429688,378 C88.3111943,377.229163 87.9453125,376.158861 87.9453125,374.789062 C87.9453125,373.408847 88.2851529,372.312504 88.9648438,371.5 C89.6445346,370.687496 90.5572859,370.28125 91.703125,370.28125 C92.776047,370.28125 93.6249969,370.634111 94.25,371.339844 C94.8750031,372.045576 95.1875,372.976557 95.1875,374.132812 L95.1875,374.953125 L89.2890625,374.953125 C89.3151043,375.958338 89.569008,376.721352 90.0507812,377.242188 C90.5325545,377.763023 91.2109331,378.023438 92.0859375,378.023438 C93.0078171,378.023438 93.9192663,377.830731 94.8203125,377.445312 L94.8203125,378.601562 C94.3619769,378.79948 93.9283875,378.941406 93.5195312,379.027344 C93.110675,379.113282 92.6171904,379.15625 92.0390625,379.15625 Z M91.6875,371.367188 C90.9999966,371.367188 90.451825,371.591144 90.0429688,372.039062 C89.6341125,372.486981 89.3932295,373.106767 89.3203125,373.898438 L93.796875,373.898438 C93.796875,373.080725 93.6145852,372.454429 93.25,372.019531 C92.8854148,371.584633 92.3645867,371.367188 91.6875,371.367188 Z M100.164062,378.085938 C100.39323,378.085938 100.614582,378.069011 100.828125,378.035156 C101.041668,378.001302 101.210937,377.966146 101.335938,377.929688 L101.335938,378.921875 C101.195312,378.989584 100.988283,379.045573 100.714844,379.089844 C100.441405,379.134115 100.195314,379.15625 99.9765625,379.15625 C98.3203042,379.15625 97.4921875,378.283863 97.4921875,376.539062 L97.4921875,371.445312 L96.265625,371.445312 L96.265625,370.820312 L97.4921875,370.28125 L98.0390625,368.453125 L98.7890625,368.453125 L98.7890625,370.4375 L101.273438,370.4375 L101.273438,371.445312 L98.7890625,371.445312 L98.7890625,376.484375 C98.7890625,377.000003 98.9114571,377.395832 99.15625,377.671875 C99.4010429,377.947918 99.736977,378.085938 100.164062,378.085938 Z M104.34375,379 L103.046875,379 L103.046875,370.4375 L104.34375,370.4375 L104.34375,379 Z M102.9375,368.117188 C102.9375,367.820311 103.010416,367.602865 103.15625,367.464844 C103.302084,367.326822 103.484374,367.257812 103.703125,367.257812 C103.911459,367.257812 104.091145,367.328124 104.242188,367.46875 C104.39323,367.609376 104.46875,367.825519 104.46875,368.117188 C104.46875,368.408856 104.39323,368.626301 104.242188,368.769531 C104.091145,368.912761 103.911459,368.984375 103.703125,368.984375 C103.484374,368.984375 103.302084,368.912761 103.15625,368.769531 C103.010416,368.626301 102.9375,368.408856 102.9375,368.117188 Z M112.953125,379 L112.953125,373.460938 C112.953125,372.763017 112.794272,372.242189 112.476562,371.898438 C112.158853,371.554686 111.661462,371.382812 110.984375,371.382812 C110.088537,371.382812 109.432294,371.624998 109.015625,372.109375 C108.598956,372.593752 108.390625,373.393224 108.390625,374.507812 L108.390625,379 L107.09375,379 L107.09375,370.4375 L108.148438,370.4375 L108.359375,371.609375 L108.421875,371.609375 C108.687501,371.187498 109.059893,370.860678 109.539062,370.628906 C110.018232,370.397134 110.55208,370.28125 111.140625,370.28125 C112.17188,370.28125 112.947914,370.529945 113.46875,371.027344 C113.989586,371.524742 114.25,372.320307 114.25,373.414062 L114.25,379 L112.953125,379 Z M123.921875,370.4375 L123.921875,371.257812 L122.335938,371.445312 C122.481772,371.627605 122.611979,371.865884 122.726562,372.160156 C122.841146,372.454429 122.898438,372.786456 122.898438,373.15625 C122.898438,373.994796 122.611982,374.66406 122.039062,375.164062 C121.466143,375.664065 120.679693,375.914062 119.679688,375.914062 C119.424478,375.914062 119.184897,375.893229 118.960938,375.851562 C118.408851,376.143231 118.132812,376.510414 118.132812,376.953125 C118.132812,377.187501 118.229166,377.360677 118.421875,377.472656 C118.614584,377.584636 118.94531,377.640625 119.414062,377.640625 L120.929688,377.640625 C121.856775,377.640625 122.569008,377.835936 123.066406,378.226562 C123.563805,378.617189 123.8125,379.184892 123.8125,379.929688 C123.8125,380.877609 123.432295,381.600258 122.671875,382.097656 C121.911455,382.595055 120.802091,382.84375 119.34375,382.84375 C118.223953,382.84375 117.36068,382.635419 116.753906,382.21875 C116.147132,381.802081 115.84375,381.213545 115.84375,380.453125 C115.84375,379.932289 116.010415,379.481773 116.34375,379.101562 C116.677085,378.721352 117.14583,378.463542 117.75,378.328125 C117.531249,378.229166 117.347657,378.075522 117.199219,377.867188 C117.050781,377.658853 116.976562,377.416668 116.976562,377.140625 C116.976562,376.828123 117.059895,376.554689 117.226562,376.320312 C117.39323,376.085936 117.656248,375.859376 118.015625,375.640625 C117.572914,375.458332 117.212241,375.14844 116.933594,374.710938 C116.654947,374.273435 116.515625,373.77344 116.515625,373.210938 C116.515625,372.273433 116.796872,371.550784 117.359375,371.042969 C117.921878,370.535154 118.718745,370.28125 119.75,370.28125 C120.197919,370.28125 120.601561,370.333333 120.960938,370.4375 L123.921875,370.4375 Z M117.09375,380.4375 C117.09375,380.901044 117.289061,381.252603 117.679688,381.492188 C118.070314,381.731772 118.630205,381.851562 119.359375,381.851562 C120.447922,381.851562 121.253904,381.688804 121.777344,381.363281 C122.300784,381.037759 122.5625,380.596357 122.5625,380.039062 C122.5625,379.575519 122.419272,379.253907 122.132812,379.074219 C121.846353,378.89453 121.307296,378.804688 120.515625,378.804688 L118.960938,378.804688 C118.372393,378.804688 117.914064,378.945311 117.585938,379.226562 C117.257811,379.507814 117.09375,379.911456 117.09375,380.4375 Z M117.796875,373.179688 C117.796875,373.778649 117.966144,374.231769 118.304688,374.539062 C118.643231,374.846356 119.11458,375 119.71875,375 C120.984381,375 121.617188,374.385423 121.617188,373.15625 C121.617188,371.869785 120.976569,371.226562 119.695312,371.226562 C119.085934,371.226562 118.617189,371.390623 118.289062,371.71875 C117.960936,372.046877 117.796875,372.533851 117.796875,373.179688 Z" id="#marketing" fill="#C9CAED"></path>
            <path d="M45.6640625,399.976562 L45.1484375,402.632812 L47.359375,402.632812 L47.359375,403.640625 L44.9609375,403.640625 L44.3046875,407 L43.234375,407 L43.890625,403.640625 L41.5234375,403.640625 L40.8828125,407 L39.8203125,407 L40.4453125,403.640625 L38.3984375,403.640625 L38.3984375,402.632812 L40.640625,402.632812 L41.171875,399.976562 L39.0078125,399.976562 L39.0078125,398.984375 L41.34375,398.984375 L41.984375,395.578125 L43.0703125,395.578125 L42.4296875,398.984375 L44.8125,398.984375 L45.46875,395.578125 L46.515625,395.578125 L45.859375,398.984375 L47.921875,398.984375 L47.921875,399.976562 L45.6640625,399.976562 Z M41.7109375,402.632812 L44.078125,402.632812 L44.59375,399.976562 L42.2265625,399.976562 L41.7109375,402.632812 Z M55.234375,404.664062 C55.234375,405.460941 54.937503,406.075519 54.34375,406.507812 C53.749997,406.940106 52.916672,407.15625 51.84375,407.15625 C50.7083277,407.15625 49.8229198,406.976564 49.1875,406.617188 L49.1875,405.414062 C49.5989604,405.622397 50.0403622,405.786458 50.5117188,405.90625 C50.9830753,406.026042 51.4374978,406.085938 51.875,406.085938 C52.5520867,406.085938 53.0729148,405.977866 53.4375,405.761719 C53.8020852,405.545572 53.984375,405.216148 53.984375,404.773438 C53.984375,404.440103 53.8398452,404.154949 53.5507812,403.917969 C53.2617173,403.680988 52.6979209,403.401043 51.859375,403.078125 C51.062496,402.781249 50.4960954,402.522137 50.1601562,402.300781 C49.8242171,402.079426 49.5742196,401.828126 49.4101562,401.546875 C49.2460929,401.265624 49.1640625,400.929689 49.1640625,400.539062 C49.1640625,399.841142 49.4479138,399.290367 50.015625,398.886719 C50.5833362,398.483071 51.3619742,398.28125 52.3515625,398.28125 C53.2734421,398.28125 54.1744748,398.468748 55.0546875,398.84375 L54.59375,399.898438 C53.7343707,399.544269 52.9557327,399.367188 52.2578125,399.367188 C51.6432261,399.367188 51.1796891,399.463541 50.8671875,399.65625 C50.5546859,399.848959 50.3984375,400.114582 50.3984375,400.453125 C50.3984375,400.682293 50.4570307,400.877603 50.5742188,401.039062 C50.6914068,401.200522 50.880207,401.354166 51.140625,401.5 C51.401043,401.645834 51.901038,401.856769 52.640625,402.132812 C53.6562551,402.502606 54.3424461,402.874998 54.6992188,403.25 C55.0559914,403.625002 55.234375,404.096351 55.234375,404.664062 Z M62.609375,407 L62.3515625,405.78125 L62.2890625,405.78125 C61.861977,406.317711 61.4362,406.680989 61.0117188,406.871094 C60.5872375,407.061199 60.0572948,407.15625 59.421875,407.15625 C58.5729124,407.15625 57.9075545,406.937502 57.4257812,406.5 C56.944008,406.062498 56.703125,405.440108 56.703125,404.632812 C56.703125,402.903637 58.0859237,401.997396 60.8515625,401.914062 L62.3046875,401.867188 L62.3046875,401.335938 C62.3046875,400.664059 62.1601577,400.16797 61.8710938,399.847656 C61.5820298,399.527342 61.1197948,399.367188 60.484375,399.367188 C59.7708298,399.367188 58.9635462,399.585935 58.0625,400.023438 L57.6640625,399.03125 C58.0859396,398.802082 58.5481746,398.622396 59.0507812,398.492188 C59.5533879,398.361979 60.0572891,398.296875 60.5625,398.296875 C61.5833384,398.296875 62.3398413,398.523435 62.8320312,398.976562 C63.3242212,399.42969 63.5703125,400.156245 63.5703125,401.15625 L63.5703125,407 L62.609375,407 Z M59.6796875,406.085938 C60.4869832,406.085938 61.1210914,405.864586 61.5820312,405.421875 C62.0429711,404.979164 62.2734375,404.359379 62.2734375,403.5625 L62.2734375,402.789062 L60.9765625,402.84375 C59.9453073,402.880209 59.2018252,403.040363 58.7460938,403.324219 C58.2903623,403.608074 58.0625,404.049476 58.0625,404.648438 C58.0625,405.11719 58.2044257,405.473957 58.4882812,405.71875 C58.7721368,405.963543 59.1692683,406.085938 59.6796875,406.085938 Z M67.5390625,407 L66.2421875,407 L66.2421875,394.84375 L67.5390625,394.84375 L67.5390625,407 Z M73.90625,407.15625 C72.6406187,407.15625 71.6419307,406.770837 70.9101562,406 C70.1783818,405.229163 69.8125,404.158861 69.8125,402.789062 C69.8125,401.408847 70.1523404,400.312504 70.8320312,399.5 C71.5117221,398.687496 72.4244734,398.28125 73.5703125,398.28125 C74.6432345,398.28125 75.4921844,398.634111 76.1171875,399.339844 C76.7421906,400.045576 77.0546875,400.976557 77.0546875,402.132812 L77.0546875,402.953125 L71.15625,402.953125 C71.1822918,403.958338 71.4361955,404.721352 71.9179688,405.242188 C72.399742,405.763023 73.0781206,406.023438 73.953125,406.023438 C74.8750046,406.023438 75.7864538,405.830731 76.6875,405.445312 L76.6875,406.601562 C76.2291644,406.79948 75.795575,406.941406 75.3867188,407.027344 C74.9778625,407.113282 74.4843779,407.15625 73.90625,407.15625 Z M73.5546875,399.367188 C72.8671841,399.367188 72.3190125,399.591144 71.9101562,400.039062 C71.5013,400.486981 71.260417,401.106767 71.1875,401.898438 L75.6640625,401.898438 C75.6640625,401.080725 75.4817727,400.454429 75.1171875,400.019531 C74.7526023,399.584633 74.2317742,399.367188 73.5546875,399.367188 Z M84.7890625,404.664062 C84.7890625,405.460941 84.4921905,406.075519 83.8984375,406.507812 C83.3046845,406.940106 82.4713595,407.15625 81.3984375,407.15625 C80.2630152,407.15625 79.3776073,406.976564 78.7421875,406.617188 L78.7421875,405.414062 C79.1536479,405.622397 79.5950497,405.786458 80.0664062,405.90625 C80.5377628,406.026042 80.9921853,406.085938 81.4296875,406.085938 C82.1067742,406.085938 82.6276023,405.977866 82.9921875,405.761719 C83.3567727,405.545572 83.5390625,405.216148 83.5390625,404.773438 C83.5390625,404.440103 83.3945327,404.154949 83.1054688,403.917969 C82.8164048,403.680988 82.2526084,403.401043 81.4140625,403.078125 C80.6171835,402.781249 80.0507829,402.522137 79.7148438,402.300781 C79.3789046,402.079426 79.1289071,401.828126 78.9648438,401.546875 C78.8007804,401.265624 78.71875,400.929689 78.71875,400.539062 C78.71875,399.841142 79.0026013,399.290367 79.5703125,398.886719 C80.1380237,398.483071 80.9166617,398.28125 81.90625,398.28125 C82.8281296,398.28125 83.7291623,398.468748 84.609375,398.84375 L84.1484375,399.898438 C83.2890582,399.544269 82.5104202,399.367188 81.8125,399.367188 C81.1979136,399.367188 80.7343766,399.463541 80.421875,399.65625 C80.1093734,399.848959 79.953125,400.114582 79.953125,400.453125 C79.953125,400.682293 80.0117182,400.877603 80.1289062,401.039062 C80.2460943,401.200522 80.4348945,401.354166 80.6953125,401.5 C80.9557305,401.645834 81.4557255,401.856769 82.1953125,402.132812 C83.2109426,402.502606 83.8971336,402.874998 84.2539062,403.25 C84.6106789,403.625002 84.7890625,404.096351 84.7890625,404.664062 Z" id="#sales" fill="#C9CAED"></path>
            <path d="M45.6640625,432.976562 L45.1484375,435.632812 L47.359375,435.632812 L47.359375,436.640625 L44.9609375,436.640625 L44.3046875,440 L43.234375,440 L43.890625,436.640625 L41.5234375,436.640625 L40.8828125,440 L39.8203125,440 L40.4453125,436.640625 L38.3984375,436.640625 L38.3984375,435.632812 L40.640625,435.632812 L41.171875,432.976562 L39.0078125,432.976562 L39.0078125,431.984375 L41.34375,431.984375 L41.984375,428.578125 L43.0703125,428.578125 L42.4296875,431.984375 L44.8125,431.984375 L45.46875,428.578125 L46.515625,428.578125 L45.859375,431.984375 L47.921875,431.984375 L47.921875,432.976562 L45.6640625,432.976562 Z M41.7109375,435.632812 L44.078125,435.632812 L44.59375,432.976562 L42.2265625,432.976562 L41.7109375,435.632812 Z M55.5390625,438.851562 L55.46875,438.851562 C54.8697887,439.721359 53.9739643,440.15625 52.78125,440.15625 C51.6614527,440.15625 50.7903677,439.773441 50.1679688,439.007812 C49.5455698,438.242184 49.234375,437.153653 49.234375,435.742188 C49.234375,434.330722 49.5468719,433.234379 50.171875,432.453125 C50.7968781,431.671871 51.6666611,431.28125 52.78125,431.28125 C53.9427141,431.28125 54.8333302,431.703121 55.453125,432.546875 L55.5546875,432.546875 L55.5,431.929688 L55.46875,431.328125 L55.46875,427.84375 L56.765625,427.84375 L56.765625,440 L55.7109375,440 L55.5390625,438.851562 Z M52.9453125,439.070312 C53.8307336,439.070312 54.4726543,438.829429 54.8710938,438.347656 C55.2695332,437.865883 55.46875,437.088547 55.46875,436.015625 L55.46875,435.742188 C55.46875,434.52864 55.2669291,433.662763 54.8632812,433.144531 C54.4596334,432.626299 53.8151086,432.367188 52.9296875,432.367188 C52.169267,432.367188 51.5872416,432.662757 51.1835938,433.253906 C50.7799459,433.845055 50.578125,434.679682 50.578125,435.757812 C50.578125,436.851568 50.7786438,437.677081 51.1796875,438.234375 C51.5807312,438.791669 52.169267,439.070312 52.9453125,439.070312 Z M63.1328125,440.15625 C61.8671812,440.15625 60.8684932,439.770837 60.1367188,439 C59.4049443,438.229163 59.0390625,437.158861 59.0390625,435.789062 C59.0390625,434.408847 59.3789029,433.312504 60.0585938,432.5 C60.7382846,431.687496 61.6510359,431.28125 62.796875,431.28125 C63.869797,431.28125 64.7187469,431.634111 65.34375,432.339844 C65.9687531,433.045576 66.28125,433.976557 66.28125,435.132812 L66.28125,435.953125 L60.3828125,435.953125 C60.4088543,436.958338 60.662758,437.721352 61.1445312,438.242188 C61.6263045,438.763023 62.3046831,439.023438 63.1796875,439.023438 C64.1015671,439.023438 65.0130163,438.830731 65.9140625,438.445312 L65.9140625,439.601562 C65.4557269,439.79948 65.0221375,439.941406 64.6132812,440.027344 C64.204425,440.113282 63.7109404,440.15625 63.1328125,440.15625 Z M62.78125,432.367188 C62.0937466,432.367188 61.545575,432.591144 61.1367188,433.039062 C60.7278625,433.486981 60.4869795,434.106767 60.4140625,434.898438 L64.890625,434.898438 C64.890625,434.080725 64.7083352,433.454429 64.34375,433.019531 C63.9791648,432.584633 63.4583367,432.367188 62.78125,432.367188 Z M74.015625,437.664062 C74.015625,438.460941 73.718753,439.075519 73.125,439.507812 C72.531247,439.940106 71.697922,440.15625 70.625,440.15625 C69.4895777,440.15625 68.6041698,439.976564 67.96875,439.617188 L67.96875,438.414062 C68.3802104,438.622397 68.8216122,438.786458 69.2929688,438.90625 C69.7643253,439.026042 70.2187478,439.085938 70.65625,439.085938 C71.3333367,439.085938 71.8541648,438.977866 72.21875,438.761719 C72.5833352,438.545572 72.765625,438.216148 72.765625,437.773438 C72.765625,437.440103 72.6210952,437.154949 72.3320312,436.917969 C72.0429673,436.680988 71.4791709,436.401043 70.640625,436.078125 C69.843746,435.781249 69.2773454,435.522137 68.9414062,435.300781 C68.6054671,435.079426 68.3554696,434.828126 68.1914062,434.546875 C68.0273429,434.265624 67.9453125,433.929689 67.9453125,433.539062 C67.9453125,432.841142 68.2291638,432.290367 68.796875,431.886719 C69.3645862,431.483071 70.1432242,431.28125 71.1328125,431.28125 C72.0546921,431.28125 72.9557248,431.468748 73.8359375,431.84375 L73.375,432.898438 C72.5156207,432.544269 71.7369827,432.367188 71.0390625,432.367188 C70.4244761,432.367188 69.9609391,432.463541 69.6484375,432.65625 C69.3359359,432.848959 69.1796875,433.114582 69.1796875,433.453125 C69.1796875,433.682293 69.2382807,433.877603 69.3554688,434.039062 C69.4726568,434.200522 69.661457,434.354166 69.921875,434.5 C70.182293,434.645834 70.682288,434.856769 71.421875,435.132812 C72.4375051,435.502606 73.1236961,435.874998 73.4804688,436.25 C73.8372414,436.625002 74.015625,437.096351 74.015625,437.664062 Z M77.421875,440 L76.125,440 L76.125,431.4375 L77.421875,431.4375 L77.421875,440 Z M76.015625,429.117188 C76.015625,428.820311 76.0885409,428.602865 76.234375,428.464844 C76.3802091,428.326822 76.5624989,428.257812 76.78125,428.257812 C76.9895844,428.257812 77.1692701,428.328124 77.3203125,428.46875 C77.4713549,428.609376 77.546875,428.825519 77.546875,429.117188 C77.546875,429.408856 77.4713549,429.626301 77.3203125,429.769531 C77.1692701,429.912761 76.9895844,429.984375 76.78125,429.984375 C76.5624989,429.984375 76.3802091,429.912761 76.234375,429.769531 C76.0885409,429.626301 76.015625,429.408856 76.015625,429.117188 Z M87.1796875,431.4375 L87.1796875,432.257812 L85.59375,432.445312 C85.7395841,432.627605 85.8697911,432.865884 85.984375,433.160156 C86.0989589,433.454429 86.15625,433.786456 86.15625,434.15625 C86.15625,434.994796 85.8697945,435.66406 85.296875,436.164062 C84.7239555,436.664065 83.937505,436.914062 82.9375,436.914062 C82.6822904,436.914062 82.4427095,436.893229 82.21875,436.851562 C81.6666639,437.143231 81.390625,437.510414 81.390625,437.953125 C81.390625,438.187501 81.4869782,438.360677 81.6796875,438.472656 C81.8723968,438.584636 82.2031227,438.640625 82.671875,438.640625 L84.1875,438.640625 C85.114588,438.640625 85.8268204,438.835936 86.3242188,439.226562 C86.8216171,439.617189 87.0703125,440.184892 87.0703125,440.929688 C87.0703125,441.877609 86.690108,442.600258 85.9296875,443.097656 C85.169267,443.595055 84.0599031,443.84375 82.6015625,443.84375 C81.4817652,443.84375 80.6184926,443.635419 80.0117188,443.21875 C79.4049449,442.802081 79.1015625,442.213545 79.1015625,441.453125 C79.1015625,440.932289 79.2682275,440.481773 79.6015625,440.101562 C79.9348975,439.721352 80.4036428,439.463542 81.0078125,439.328125 C80.7890614,439.229166 80.6054695,439.075522 80.4570312,438.867188 C80.308593,438.658853 80.234375,438.416668 80.234375,438.140625 C80.234375,437.828123 80.3177075,437.554689 80.484375,437.320312 C80.6510425,437.085936 80.9140607,436.859376 81.2734375,436.640625 C80.830727,436.458332 80.4700535,436.14844 80.1914062,435.710938 C79.912759,435.273435 79.7734375,434.77344 79.7734375,434.210938 C79.7734375,433.273433 80.0546847,432.550784 80.6171875,432.042969 C81.1796903,431.535154 81.9765573,431.28125 83.0078125,431.28125 C83.4557314,431.28125 83.8593732,431.333333 84.21875,431.4375 L87.1796875,431.4375 Z M80.3515625,441.4375 C80.3515625,441.901044 80.546873,442.252603 80.9375,442.492188 C81.328127,442.731772 81.8880172,442.851562 82.6171875,442.851562 C83.7057346,442.851562 84.5117161,442.688804 85.0351562,442.363281 C85.5585964,442.037759 85.8203125,441.596357 85.8203125,441.039062 C85.8203125,440.575519 85.6770848,440.253907 85.390625,440.074219 C85.1041652,439.89453 84.5651081,439.804688 83.7734375,439.804688 L82.21875,439.804688 C81.6302054,439.804688 81.1718766,439.945311 80.84375,440.226562 C80.5156234,440.507814 80.3515625,440.911456 80.3515625,441.4375 Z M81.0546875,434.179688 C81.0546875,434.778649 81.2239566,435.231769 81.5625,435.539062 C81.9010434,435.846356 82.3723928,436 82.9765625,436 C84.2421938,436 84.875,435.385423 84.875,434.15625 C84.875,432.869785 84.2343814,432.226562 82.953125,432.226562 C82.343747,432.226562 81.8750016,432.390623 81.546875,432.71875 C81.2187484,433.046877 81.0546875,433.533851 81.0546875,434.179688 Z M94.796875,440 L94.796875,434.460938 C94.796875,433.763017 94.6380224,433.242189 94.3203125,432.898438 C94.0026026,432.554686 93.5052117,432.382812 92.828125,432.382812 C91.9322872,432.382812 91.2760437,432.624998 90.859375,433.109375 C90.4427063,433.593752 90.234375,434.393224 90.234375,435.507812 L90.234375,440 L88.9375,440 L88.9375,431.4375 L89.9921875,431.4375 L90.203125,432.609375 L90.265625,432.609375 C90.5312513,432.187498 90.9036434,431.860678 91.3828125,431.628906 C91.8619816,431.397134 92.3958304,431.28125 92.984375,431.28125 C94.0156302,431.28125 94.7916641,431.529945 95.3125,432.027344 C95.8333359,432.524742 96.09375,433.320307 96.09375,434.414062 L96.09375,440 L94.796875,440 Z" id="#design" fill="#C9CAED"></path>
            <path d="M45.6640625,465.976562 L45.1484375,468.632812 L47.359375,468.632812 L47.359375,469.640625 L44.9609375,469.640625 L44.3046875,473 L43.234375,473 L43.890625,469.640625 L41.5234375,469.640625 L40.8828125,473 L39.8203125,473 L40.4453125,469.640625 L38.3984375,469.640625 L38.3984375,468.632812 L40.640625,468.632812 L41.171875,465.976562 L39.0078125,465.976562 L39.0078125,464.984375 L41.34375,464.984375 L41.984375,461.578125 L43.0703125,461.578125 L42.4296875,464.984375 L44.8125,464.984375 L45.46875,461.578125 L46.515625,461.578125 L45.859375,464.984375 L47.921875,464.984375 L47.921875,465.976562 L45.6640625,465.976562 Z M41.7109375,468.632812 L44.078125,468.632812 L44.59375,465.976562 L42.2265625,465.976562 L41.7109375,468.632812 Z M55.234375,470.664062 C55.234375,471.460941 54.937503,472.075519 54.34375,472.507812 C53.749997,472.940106 52.916672,473.15625 51.84375,473.15625 C50.7083277,473.15625 49.8229198,472.976564 49.1875,472.617188 L49.1875,471.414062 C49.5989604,471.622397 50.0403622,471.786458 50.5117188,471.90625 C50.9830753,472.026042 51.4374978,472.085938 51.875,472.085938 C52.5520867,472.085938 53.0729148,471.977866 53.4375,471.761719 C53.8020852,471.545572 53.984375,471.216148 53.984375,470.773438 C53.984375,470.440103 53.8398452,470.154949 53.5507812,469.917969 C53.2617173,469.680988 52.6979209,469.401043 51.859375,469.078125 C51.062496,468.781249 50.4960954,468.522137 50.1601562,468.300781 C49.8242171,468.079426 49.5742196,467.828126 49.4101562,467.546875 C49.2460929,467.265624 49.1640625,466.929689 49.1640625,466.539062 C49.1640625,465.841142 49.4479138,465.290367 50.015625,464.886719 C50.5833362,464.483071 51.3619742,464.28125 52.3515625,464.28125 C53.2734421,464.28125 54.1744748,464.468748 55.0546875,464.84375 L54.59375,465.898438 C53.7343707,465.544269 52.9557327,465.367188 52.2578125,465.367188 C51.6432261,465.367188 51.1796891,465.463541 50.8671875,465.65625 C50.5546859,465.848959 50.3984375,466.114582 50.3984375,466.453125 C50.3984375,466.682293 50.4570307,466.877603 50.5742188,467.039062 C50.6914068,467.200522 50.880207,467.354166 51.140625,467.5 C51.401043,467.645834 51.901038,467.856769 52.640625,468.132812 C53.6562551,468.502606 54.3424461,468.874998 54.6992188,469.25 C55.0559914,469.625002 55.234375,470.096351 55.234375,470.664062 Z M58.5625,464.4375 L58.5625,469.992188 C58.5625,470.690108 58.7213526,471.210936 59.0390625,471.554688 C59.3567724,471.898439 59.8541633,472.070312 60.53125,472.070312 C61.4270878,472.070312 62.0820292,471.825523 62.4960938,471.335938 C62.9101583,470.846352 63.1171875,470.046881 63.1171875,468.9375 L63.1171875,464.4375 L64.4140625,464.4375 L64.4140625,473 L63.34375,473 L63.15625,471.851562 L63.0859375,471.851562 C62.8203112,472.27344 62.4518253,472.596353 61.9804688,472.820312 C61.5091122,473.044272 60.9713572,473.15625 60.3671875,473.15625 C59.3255156,473.15625 58.5455755,472.908857 58.0273438,472.414062 C57.509112,471.919268 57.25,471.12761 57.25,470.039062 L57.25,464.4375 L58.5625,464.4375 Z M71.1484375,473.15625 C70.591143,473.15625 70.0820336,473.053386 69.6210938,472.847656 C69.1601539,472.641926 68.7734391,472.325523 68.4609375,471.898438 L68.3671875,471.898438 C68.4296878,472.39844 68.4609375,472.872394 68.4609375,473.320312 L68.4609375,476.84375 L67.1640625,476.84375 L67.1640625,464.4375 L68.21875,464.4375 L68.3984375,465.609375 L68.4609375,465.609375 C68.7942725,465.140623 69.1822895,464.802084 69.625,464.59375 C70.0677105,464.385416 70.575518,464.28125 71.1484375,464.28125 C72.2838598,464.28125 73.1601532,464.669267 73.7773438,465.445312 C74.3945343,466.221358 74.703125,467.309889 74.703125,468.710938 C74.703125,470.117195 74.3893261,471.209632 73.7617188,471.988281 C73.1341114,472.766931 72.2630264,473.15625 71.1484375,473.15625 Z M70.9609375,465.382812 C70.0859331,465.382812 69.453127,465.624998 69.0625,466.109375 C68.671873,466.593752 68.4713542,467.364578 68.4609375,468.421875 L68.4609375,468.710938 C68.4609375,469.914069 68.6614563,470.774737 69.0625,471.292969 C69.4635437,471.811201 70.1067664,472.070312 70.9921875,472.070312 C71.7317745,472.070312 72.3111958,471.770836 72.7304688,471.171875 C73.1497417,470.572914 73.359375,469.747401 73.359375,468.695312 C73.359375,467.627599 73.1497417,466.808597 72.7304688,466.238281 C72.3111958,465.667966 71.721358,465.382812 70.9609375,465.382812 Z M80.953125,473.15625 C80.3958305,473.15625 79.8867211,473.053386 79.4257812,472.847656 C78.9648414,472.641926 78.5781266,472.325523 78.265625,471.898438 L78.171875,471.898438 C78.2343753,472.39844 78.265625,472.872394 78.265625,473.320312 L78.265625,476.84375 L76.96875,476.84375 L76.96875,464.4375 L78.0234375,464.4375 L78.203125,465.609375 L78.265625,465.609375 C78.59896,465.140623 78.986977,464.802084 79.4296875,464.59375 C79.872398,464.385416 80.3802055,464.28125 80.953125,464.28125 C82.0885473,464.28125 82.9648407,464.669267 83.5820312,465.445312 C84.1992218,466.221358 84.5078125,467.309889 84.5078125,468.710938 C84.5078125,470.117195 84.1940136,471.209632 83.5664062,471.988281 C82.9387989,472.766931 82.0677139,473.15625 80.953125,473.15625 Z M80.765625,465.382812 C79.8906206,465.382812 79.2578145,465.624998 78.8671875,466.109375 C78.4765605,466.593752 78.2760417,467.364578 78.265625,468.421875 L78.265625,468.710938 C78.265625,469.914069 78.4661438,470.774737 78.8671875,471.292969 C79.2682312,471.811201 79.9114539,472.070312 80.796875,472.070312 C81.536462,472.070312 82.1158833,471.770836 82.5351562,471.171875 C82.9544292,470.572914 83.1640625,469.747401 83.1640625,468.695312 C83.1640625,467.627599 82.9544292,466.808597 82.5351562,466.238281 C82.1158833,465.667966 81.5260455,465.382812 80.765625,465.382812 Z M94.1640625,468.710938 C94.1640625,470.106778 93.8125035,471.196611 93.109375,471.980469 C92.4062465,472.764327 91.434902,473.15625 90.1953125,473.15625 C89.4296837,473.15625 88.750003,472.976564 88.15625,472.617188 C87.562497,472.257811 87.1041683,471.742191 86.78125,471.070312 C86.4583317,470.398434 86.296875,469.611984 86.296875,468.710938 C86.296875,467.315097 86.6458298,466.227868 87.34375,465.449219 C88.0416702,464.670569 89.0104105,464.28125 90.25,464.28125 C91.4479227,464.28125 92.3997361,464.679684 93.1054688,465.476562 C93.8112014,466.273441 94.1640625,467.351556 94.1640625,468.710938 Z M87.640625,468.710938 C87.640625,469.804693 87.8593728,470.638018 88.296875,471.210938 C88.7343772,471.783857 89.3775999,472.070312 90.2265625,472.070312 C91.0755251,472.070312 91.7200499,471.785159 92.1601562,471.214844 C92.6002626,470.644528 92.8203125,469.809901 92.8203125,468.710938 C92.8203125,467.62239 92.6002626,466.795576 92.1601562,466.230469 C91.7200499,465.665362 91.0703168,465.382812 90.2109375,465.382812 C89.3619749,465.382812 88.7213563,465.661456 88.2890625,466.21875 C87.8567687,466.776044 87.640625,467.606765 87.640625,468.710938 Z M100.34375,464.28125 C100.72396,464.28125 101.065103,464.3125 101.367188,464.375 L101.1875,465.578125 C100.833332,465.5 100.520835,465.460938 100.25,465.460938 C99.5572882,465.460938 98.9648462,465.742185 98.4726562,466.304688 C97.9804663,466.86719 97.734375,467.567704 97.734375,468.40625 L97.734375,473 L96.4375,473 L96.4375,464.4375 L97.5078125,464.4375 L97.65625,466.023438 L97.71875,466.023438 C98.0364599,465.466143 98.4192686,465.03646 98.8671875,464.734375 C99.3151064,464.43229 99.807289,464.28125 100.34375,464.28125 Z M105.734375,472.085938 C105.963543,472.085938 106.184895,472.069011 106.398438,472.035156 C106.61198,472.001302 106.781249,471.966146 106.90625,471.929688 L106.90625,472.921875 C106.765624,472.989584 106.558595,473.045573 106.285156,473.089844 C106.011717,473.134115 105.765626,473.15625 105.546875,473.15625 C103.890617,473.15625 103.0625,472.283863 103.0625,470.539062 L103.0625,465.445312 L101.835938,465.445312 L101.835938,464.820312 L103.0625,464.28125 L103.609375,462.453125 L104.359375,462.453125 L104.359375,464.4375 L106.84375,464.4375 L106.84375,465.445312 L104.359375,465.445312 L104.359375,470.484375 C104.359375,471.000003 104.48177,471.395832 104.726562,471.671875 C104.971355,471.947918 105.30729,472.085938 105.734375,472.085938 Z" id="#support" fill="#C9CAED"></path>
            <path d="M32.3369141,260.519531 C30.9957615,260.519531 29.9410846,260.994787 29.1728516,261.945312 C28.4046186,262.895838 28.0205078,264.207674 28.0205078,265.880859 C28.0205078,267.63217 28.3899703,268.957027 29.1289062,269.855469 C29.8678422,270.753911 30.9371675,271.203125 32.3369141,271.203125 C32.9423858,271.203125 33.5283175,271.142904 34.0947266,271.022461 C34.6611356,270.902018 35.2503225,270.747397 35.8623047,270.558594 L35.8623047,272.560547 C34.7425074,272.983726 33.4729889,273.195312 32.0537109,273.195312 C29.9638567,273.195312 28.3590551,272.562181 27.2392578,271.295898 C26.1194605,270.029616 25.5595703,268.218111 25.5595703,265.861328 C25.5595703,264.376946 25.8313775,263.078131 26.375,261.964844 C26.9186225,260.851557 27.7047475,259.998701 28.7333984,259.40625 C29.7620494,258.813799 30.9697196,258.517578 32.3564453,258.517578 C33.8147859,258.517578 35.1624287,258.823565 36.3994141,259.435547 L35.5595703,261.378906 C35.0777971,261.151041 34.5683621,260.950847 34.03125,260.77832 C33.4941379,260.605793 32.9293649,260.519531 32.3369141,260.519531 Z M50.1982422,273 L47.8544922,273 L47.8544922,266.564453 L41.2724609,266.564453 L41.2724609,273 L38.9384766,273 L38.9384766,258.722656 L41.2724609,258.722656 L41.2724609,264.5625 L47.8544922,264.5625 L47.8544922,258.722656 L50.1982422,258.722656 L50.1982422,273 Z M62.8154297,273 L61.3896484,269.035156 L55.9306641,269.035156 L54.5341797,273 L52.0732422,273 L57.4150391,258.664062 L59.9541016,258.664062 L65.2958984,273 L62.8154297,273 Z M60.7744141,267.023438 L59.4365234,263.136719 C59.3388667,262.876301 59.2037769,262.466149 59.03125,261.90625 C58.8587231,261.346351 58.7399092,260.936199 58.6748047,260.675781 C58.4990226,261.476567 58.2418637,262.352209 57.9033203,263.302734 L56.6142578,267.023438 L60.7744141,267.023438 Z M79.0751953,273 L76.2138672,273 L69.1923828,261.623047 L69.1142578,261.623047 L69.1630859,262.257812 C69.2542322,263.468756 69.2998047,264.575516 69.2998047,265.578125 L69.2998047,273 L67.1806641,273 L67.1806641,258.722656 L70.0126953,258.722656 L77.0146484,270.041016 L77.0732422,270.041016 C77.0602213,269.891275 77.0341799,269.346033 76.9951172,268.405273 C76.9560545,267.464514 76.9365234,266.730471 76.9365234,266.203125 L76.9365234,258.722656 L79.0751953,258.722656 L79.0751953,273 Z M94.7392578,273 L91.8779297,273 L84.8564453,261.623047 L84.7783203,261.623047 L84.8271484,262.257812 C84.9182947,263.468756 84.9638672,264.575516 84.9638672,265.578125 L84.9638672,273 L82.8447266,273 L82.8447266,258.722656 L85.6767578,258.722656 L92.6787109,270.041016 L92.7373047,270.041016 C92.7242838,269.891275 92.6982424,269.346033 92.6591797,268.405273 C92.620117,267.464514 92.6005859,266.730471 92.6005859,266.203125 L92.6005859,258.722656 L94.7392578,258.722656 L94.7392578,273 Z M106.584961,273 L98.5087891,273 L98.5087891,258.722656 L106.584961,258.722656 L106.584961,260.695312 L100.842773,260.695312 L100.842773,264.582031 L106.223633,264.582031 L106.223633,266.535156 L100.842773,266.535156 L100.842773,271.017578 L106.584961,271.017578 L106.584961,273 Z M109.670898,273 L109.670898,258.722656 L112.004883,258.722656 L112.004883,270.998047 L118.049805,270.998047 L118.049805,273 L109.670898,273 Z M128.743164,269.123047 C128.743164,270.392584 128.284184,271.388668 127.366211,272.111328 C126.448238,272.833988 125.181974,273.195312 123.567383,273.195312 C121.952791,273.195312 120.63119,272.944664 119.602539,272.443359 L119.602539,270.236328 C120.253584,270.542319 120.945309,270.783202 121.677734,270.958984 C122.41016,271.134767 123.092119,271.222656 123.723633,271.222656 C124.648117,271.222656 125.330076,271.046877 125.769531,270.695312 C126.208987,270.343748 126.428711,269.871748 126.428711,269.279297 C126.428711,268.74544 126.22689,268.292971 125.823242,267.921875 C125.419594,267.550779 124.586269,267.111331 123.323242,266.603516 C122.021152,266.076169 121.103193,265.473962 120.569336,264.796875 C120.035479,264.119788 119.768555,263.305994 119.768555,262.355469 C119.768555,261.164057 120.191728,260.226566 121.038086,259.542969 C121.884444,258.859372 123.020501,258.517578 124.446289,258.517578 C125.813483,258.517578 127.174147,258.817054 128.52832,259.416016 L127.786133,261.320312 C126.516595,260.786456 125.383794,260.519531 124.387695,260.519531 C123.632483,260.519531 123.059572,260.683918 122.668945,261.012695 C122.278318,261.341473 122.083008,261.776039 122.083008,262.316406 C122.083008,262.687502 122.161132,263.004881 122.317383,263.268555 C122.473634,263.532228 122.730792,263.781249 123.088867,264.015625 C123.446942,264.250001 124.091467,264.559243 125.022461,264.943359 C126.070643,265.379559 126.838865,265.786456 127.327148,266.164062 C127.815432,266.541669 128.173501,266.968097 128.401367,267.443359 C128.629233,267.918622 128.743164,268.478512 128.743164,269.123047 Z" id="Channels" fill="#C9CAED"></path>
            <path d="M32.0566406,126 L27.9160156,114.076172 L27.8378906,114.076172 C27.9485683,115.847014 28.0039062,117.507154 28.0039062,119.056641 L28.0039062,126 L25.8847656,126 L25.8847656,111.722656 L29.1757812,111.722656 L33.140625,123.080078 L33.1992188,123.080078 L37.28125,111.722656 L40.5820312,111.722656 L40.5820312,126 L38.3359375,126 L38.3359375,118.939453 C38.3359375,118.229814 38.353841,117.305344 38.3896484,116.166016 C38.4254559,115.026687 38.4563801,114.33659 38.4824219,114.095703 L38.4042969,114.095703 L34.1171875,126 L32.0566406,126 Z M48.375,118.236328 L51.7539062,111.722656 L54.2929688,111.722656 L49.5371094,120.462891 L49.5371094,126 L47.1933594,126 L47.1933594,120.541016 L42.4570312,111.722656 L44.9960938,111.722656 L48.375,118.236328 Z M74.546875,126 L72.0078125,126 L69.5859375,117.484375 C69.4817703,117.113279 69.3515633,116.577803 69.1953125,115.87793 C69.0390617,115.178056 68.9446616,114.691408 68.9121094,114.417969 C68.8470049,114.834637 68.7412117,115.374997 68.5947266,116.039062 C68.4482415,116.703128 68.3261724,117.197915 68.2285156,117.523438 L65.8652344,126 L63.3261719,126 L61.4804688,118.851562 L59.6054688,111.722656 L61.9882812,111.722656 L64.0292969,120.042969 C64.3483089,121.377611 64.5761712,122.555984 64.7128906,123.578125 C64.7845056,123.024737 64.8919264,122.406253 65.0351562,121.722656 C65.1783861,121.039059 65.3085932,120.485679 65.4257812,120.0625 L67.75,111.722656 L70.0644531,111.722656 L72.4472656,120.101562 C72.6751313,120.876306 72.9160144,122.035149 73.1699219,123.578125 C73.2675786,122.647131 73.5019513,121.462247 73.8730469,120.023438 L75.9042969,111.722656 L78.2675781,111.722656 L74.546875,126 Z M92.9648438,118.841797 C92.9648438,121.166027 92.3837949,122.97265 91.2216797,124.261719 C90.0595645,125.550788 88.4140731,126.195312 86.2851562,126.195312 C84.1301976,126.195312 82.4749407,125.55567 81.3193359,124.276367 C80.1637312,122.997064 79.5859375,121.179048 79.5859375,118.822266 C79.5859375,116.465483 80.1669864,114.655605 81.3291016,113.392578 C82.4912167,112.129551 84.1497288,111.498047 86.3046875,111.498047 C88.4270939,111.498047 90.0677025,112.139317 91.2265625,113.421875 C92.3854225,114.704433 92.9648438,116.511056 92.9648438,118.841797 Z M82.0664062,118.841797 C82.0664062,120.599618 82.4212204,121.932613 83.1308594,122.84082 C83.8404983,123.749028 84.8919201,124.203125 86.2851562,124.203125 C87.6718819,124.203125 88.7184209,123.753911 89.4248047,122.855469 C90.1311884,121.957027 90.484375,120.61915 90.484375,118.841797 C90.484375,117.090486 90.1344436,115.762374 89.4345703,114.857422 C88.734697,113.952469 87.6914132,113.5 86.3046875,113.5 C84.9049409,113.5 83.8486364,113.952469 83.1357422,114.857422 C82.422848,115.762374 82.0664062,117.090486 82.0664062,118.841797 Z M98.3652344,118.363281 L99.9863281,118.363281 C101.073573,118.363281 101.861326,118.16146 102.349609,117.757812 C102.837893,117.354165 103.082031,116.755212 103.082031,115.960938 C103.082031,115.153642 102.818362,114.574221 102.291016,114.222656 C101.763669,113.871092 100.969406,113.695312 99.9082031,113.695312 L98.3652344,113.695312 L98.3652344,118.363281 Z M98.3652344,120.296875 L98.3652344,126 L96.03125,126 L96.03125,111.722656 L100.064453,111.722656 C101.90691,111.722656 103.270829,112.067705 104.15625,112.757812 C105.041671,113.44792 105.484375,114.489576 105.484375,115.882812 C105.484375,117.660165 104.559905,118.926429 102.710938,119.681641 L106.744141,126 L104.087891,126 L100.669922,120.296875 L98.3652344,120.296875 Z M119.712891,126 L117.007812,126 L112.525391,119.535156 L111.148438,120.658203 L111.148438,126 L108.814453,126 L108.814453,111.722656 L111.148438,111.722656 L111.148438,118.539062 C111.786462,117.757809 112.421221,117.005863 113.052734,116.283203 L116.910156,111.722656 L119.566406,111.722656 C117.072904,114.652358 115.285813,116.738926 114.205078,117.982422 L119.712891,126 Z" id="My-work" fill="#C9CAED"></path>
            <g id="Rectangle-2">
                <use fill="black" fill-opacity="1" filter="url(#filter-6)" xlink:href="#path-5"></use>
                <use fill="#FFFFFF" fill-rule="evenodd" xlink:href="#path-5"></use>
            </g>
            <text id="Uber" font-family="OpenSans-Semibold, Open Sans" font-size="26" font-weight="500" fill="#505050">
                <tspan x="270" y="48">Uber</tspan>
            </text>
            <g id="Group-2-Copy-4" transform="translate(564.000000, 178.000000)">
                <g id="Rectangle-5-Copy-7">
                    <use fill="black" fill-opacity="1" filter="url(#filter-8)" xlink:href="#path-7"></use>
                    <use fill="#FFFFFF" fill-rule="evenodd" xlink:href="#path-7"></use>
                </g>
                <text id="Find-prospects-Copy" font-family="OpenSans, Open Sans" font-size="16" font-weight="normal" fill="#505050">
                    <tspan x="31.3007812" y="33">Find prospects</tspan>
                </text>
            </g>
            <g id="Group-3-Copy" transform="translate(564.000000, 246.000000)">
                <g id="Rectangle-5">
                    <use fill="black" fill-opacity="1" filter="url(#filter-10)" xlink:href="#path-9"></use>
                    <use fill="#FFFFFF" fill-rule="evenodd" xlink:href="#path-9"></use>
                </g>
                <text id="Find-prospects" font-family="OpenSans, Open Sans" font-size="16" font-weight="normal" fill="#505050">
                    <tspan x="31.3007812" y="32">Find prospects</tspan>
                </text>
                <circle id="Oval-Copy-4" fill="#EE7F6B" cx="47.5" cy="63.5" r="16.5"></circle>
                <circle id="Oval-Copy-3" fill="#FFC782" cx="89.5" cy="63.5" r="16.5"></circle>
            </g>
            <g id="Group-3-Copy-2" transform="translate(270.000000, 627.000000)">
                <g id="Rectangle-5">
                    <use fill="black" fill-opacity="1" filter="url(#filter-12)" xlink:href="#path-11"></use>
                    <use fill="#FFFFFF" fill-rule="evenodd" xlink:href="#path-11"></use>
                </g>
                <text id="Find-prospects" font-family="OpenSans, Open Sans" font-size="16" font-weight="normal" fill="#505050">
                    <tspan x="31.3007812" y="32">Find prospects</tspan>
                </text>
                <circle id="Oval-Copy-4" fill="#EE7F6B" cx="47.5" cy="63.5" r="16.5"></circle>
                <circle id="Oval-Copy-3" fill="#FFC782" cx="89.5" cy="63.5" r="16.5"></circle>
            </g>
            <g id="Group-2-Copy-4" transform="translate(270.000000, 178.000000)">
                <g id="Rectangle-5-Copy-7">
                    <use fill="black" fill-opacity="1" filter="url(#filter-14)" xlink:href="#path-13"></use>
                    <use fill="#FFFFFF" fill-rule="evenodd" xlink:href="#path-13"></use>
                </g>
                <text id="Find-prospects-Copy" font-family="OpenSans, Open Sans" font-size="16" font-weight="normal" fill="#505050">
                    <tspan x="31.3007812" y="33">Find prospects</tspan>
                </text>
            </g>
            <g id="Group-2-Copy-5" transform="translate(270.000000, 355.000000)">
                <g id="Rectangle-5-Copy-7">
                    <use fill="black" fill-opacity="1" filter="url(#filter-16)" xlink:href="#path-15"></use>
                    <use fill="#FFFFFF" fill-rule="evenodd" xlink:href="#path-15"></use>
                </g>
                <text id="Find-prospects-Copy" font-family="OpenSans, Open Sans" font-size="16" font-weight="normal" fill="#505050">
                    <tspan x="31.3007812" y="33">Find prospects</tspan>
                </text>
            </g>
            <g id="Group-2-Copy-7" transform="translate(270.000000, 423.000000)">
                <g id="Rectangle-5-Copy-7">
                    <use fill="black" fill-opacity="1" filter="url(#filter-18)" xlink:href="#path-17"></use>
                    <use fill="#FFFFFF" fill-rule="evenodd" xlink:href="#path-17"></use>
                </g>
                <text id="Find-prospects-Copy" font-family="OpenSans, Open Sans" font-size="16" font-weight="normal" fill="#505050">
                    <tspan x="31.3007812" y="33">Find prospects</tspan>
                </text>
            </g>
            <g id="Group-2-Copy-5" transform="translate(564.000000, 355.000000)">
                <g id="Rectangle-5-Copy-7">
                    <use fill="black" fill-opacity="1" filter="url(#filter-20)" xlink:href="#path-19"></use>
                    <use fill="#FFFFFF" fill-rule="evenodd" xlink:href="#path-19"></use>
                </g>
                <text id="Find-prospects-Copy" font-family="OpenSans, Open Sans" font-size="16" font-weight="normal" fill="#505050">
                    <tspan x="31.3007812" y="33">Find prospects</tspan>
                </text>
            </g>
            <g id="Group-2-Copy-7" transform="translate(564.000000, 423.000000)">
                <g id="Rectangle-5-Copy-7">
                    <use fill="black" fill-opacity="1" filter="url(#filter-22)" xlink:href="#path-21"></use>
                    <use fill="#FFFFFF" fill-rule="evenodd" xlink:href="#path-21"></use>
                </g>
                <text id="Find-prospects-Copy" font-family="OpenSans, Open Sans" font-size="16" font-weight="normal" fill="#505050">
                    <tspan x="31.3007812" y="33">Find prospects</tspan>
                </text>
            </g>
            <g id="Group-2-Copy-9" transform="translate(270.000000, 491.000000)">
                <g id="Rectangle-5-Copy-7">
                    <use fill="black" fill-opacity="1" filter="url(#filter-24)" xlink:href="#path-23"></use>
                    <use fill="#FFFFFF" fill-rule="evenodd" xlink:href="#path-23"></use>
                </g>
                <text id="Find-prospects-Copy" font-family="OpenSans, Open Sans" font-size="16" font-weight="normal" fill="#505050">
                    <tspan x="31.3007812" y="33">Find prospects</tspan>
                </text>
            </g>
            <g id="Group-2-Copy-8" transform="translate(270.000000, 559.000000)">
                <g id="Rectangle-5-Copy-7">
                    <use fill="black" fill-opacity="1" filter="url(#filter-26)" xlink:href="#path-25"></use>
                    <use fill="#FFFFFF" fill-rule="evenodd" xlink:href="#path-25"></use>
                </g>
                <text id="Find-prospects-Copy" font-family="OpenSans, Open Sans" font-size="16" font-weight="normal" fill="#505050">
                    <tspan x="31.3007812" y="33">Find prospects</tspan>
                </text>
            </g>
            <g id="Group-3" transform="translate(385.000000, 292.000000)">
                <text id="+-copy" transform="translate(16.000000, 16.500000) scale(-1, 1) translate(-16.000000, -16.500000) " font-family="OpenSans, Open Sans" font-size="24" font-weight="normal" fill="#C9CAED">
                    <tspan x="9.13867188" y="26">+</tspan>
                </text>
                <circle id="Oval-Copy-5" stroke="#D8D8D8" stroke-width="2" cx="16.5" cy="17.5" r="15.5"></circle>
            </g>
            <g id="Group-2-Copy-6" transform="translate(859.000000, 180.000000)">
                <g id="Rectangle-5-Copy-7">
                    <use fill="black" fill-opacity="1" filter="url(#filter-28)" xlink:href="#path-27"></use>
                    <use fill="#FFFFFF" fill-rule="evenodd" xlink:href="#path-27"></use>
                </g>
                <text id="Find-prospects-Copy" font-family="OpenSans, Open Sans" font-size="16" font-weight="normal" fill="#505050">
                    <tspan x="31.3007812" y="33">Find prospects</tspan>
                </text>
            </g>
            <g id="Rectangle-5">
                <use fill="black" fill-opacity="1" filter="url(#filter-30)" xlink:href="#path-29"></use>
                <use fill="#FFFFFF" fill-rule="evenodd" xlink:href="#path-29"></use>
            </g>
            <text id="Find-prospects" font-family="OpenSans, Open Sans" font-size="16" font-weight="normal" fill="#505050">
                <tspan x="890.300781" y="280">Find prospects</tspan>
            </text>
            <text id="pencil" font-family="FontAwesome" font-size="20" font-weight="normal" fill="#467ADB">
                <tspan x="1082.42857" y="282"></tspan>
            </text>
            <text id="" font-family="FontAwesome" font-size="20" font-weight="normal" fill="#3AC89E">
                <tspan x="1053.42857" y="282"></tspan>
            </text>
            <circle id="Oval-Copy-4" fill="#EE7F6B" cx="909.5" cy="309.5" r="16.5"></circle>
            <circle id="Oval-Copy-3" fill="#FFC782" cx="951.5" cy="309.5" r="16.5"></circle>
            <text id="+" font-family="OpenSans, Open Sans" font-size="24" font-weight="normal" fill="#B8B8B8">
                <tspan x="393.138672" y="158">+</tspan>
            </text>
            <text id="+-copy-2" font-family="OpenSans, Open Sans" font-size="24" font-weight="normal" fill="#B8B8B8">
                <tspan x="687.138672" y="158">+</tspan>
            </text>
            <g id="Rectangle-5-Copy-10">
                <use fill="black" fill-opacity="1" filter="url(#filter-32)" xlink:href="#path-31"></use>
                <use fill="#FFFFFF" fill-rule="evenodd" xlink:href="#path-31"></use>
            </g>
            <text id="+-copy-3" font-family="OpenSans, Open Sans" font-size="24" font-weight="normal" fill="#B8B8B8">
                <tspan x="982.138672" y="160">+</tspan>
            </text>
            <g id="Group-6" transform="translate(1172.000000, 22.000000)">
                <rect id="Rectangle-7" fill="#FFC782" opacity="0.333956069" x="0" y="0" width="244" height="33" rx="16.5"></rect>
                <text id="Search" font-family="OpenSans, Open Sans" font-size="14" font-weight="normal" fill="#828282">
                    <tspan x="39.3515625" y="22">Search</tspan>
                </text>
                <text id="search" font-family="FontAwesome" font-size="16" font-weight="normal" fill="#828282">
                    <tspan x="13.0714286" y="23"></tspan>
                </text>
            </g>
            <g id="Group-4" opacity="0.746603261" transform="translate(203.000000, 255.000000)">
                <text id="+-copy" font-family="OpenSans, Open Sans" font-size="16" font-weight="normal" fill="#C9CAED">
                    <tspan x="4.42578125" y="17">+</tspan>
                </text>
                <circle id="Oval-2" stroke="#C9CAED" cx="8.5" cy="11.5" r="8.5"></circle>
            </g>
            <text id="undo" font-family="FontAwesome" font-size="26" font-weight="normal" fill="#3BB9C9">
                <tspan x="1058.35714" y="47"></tspan>
            </text>
            <text id="cog" font-family="FontAwesome" font-size="28" font-weight="normal" fill="#3BB9C9">
                <tspan x="1115" y="48"></tspan>
            </text>
            <g id="Rectangle-5-Copy-9">
                <use fill="black" fill-opacity="1" filter="url(#filter-34)" xlink:href="#path-33"></use>
                <use fill="#FFFFFF" fill-rule="evenodd" xlink:href="#path-33"></use>
            </g>
            <text id="Dev" font-family="OpenSans-Semibold, Open Sans" font-size="20" font-weight="500" fill="#505050">
                <tspan x="1154.04785" y="117">Dev</tspan>
            </text>
            <g id="Group-2-Copy-4" transform="translate(1154.000000, 178.000000)">
                <g id="Rectangle-5-Copy-7">
                    <use fill="black" fill-opacity="1" filter="url(#filter-36)" xlink:href="#path-35"></use>
                    <use fill="#FFFFFF" fill-rule="evenodd" xlink:href="#path-35"></use>
                </g>
                <text id="Find-prospects-Copy" font-family="OpenSans, Open Sans" font-size="16" font-weight="normal" fill="#505050">
                    <tspan x="31.3007812" y="33">Find prospects</tspan>
                </text>
            </g>
            <g id="Group-3-Copy" transform="translate(1154.000000, 246.000000)">
                <g id="Rectangle-5">
                    <use fill="black" fill-opacity="1" filter="url(#filter-38)" xlink:href="#path-37"></use>
                    <use fill="#FFFFFF" fill-rule="evenodd" xlink:href="#path-37"></use>
                </g>
                <text id="Find-prospects" font-family="OpenSans, Open Sans" font-size="16" font-weight="normal" fill="#505050">
                    <tspan x="31.3007812" y="32">Find prospects</tspan>
                </text>
                <circle id="Oval-Copy-4" fill="#EE7F6B" cx="47.5" cy="63.5" r="16.5"></circle>
                <circle id="Oval-Copy-3" fill="#FFC782" cx="89.5" cy="63.5" r="16.5"></circle>
            </g>
            <g id="Group-2-Copy-5" transform="translate(1154.000000, 355.000000)">
                <g id="Rectangle-5-Copy-7">
                    <use fill="black" fill-opacity="1" filter="url(#filter-40)" xlink:href="#path-39"></use>
                    <use fill="#FFFFFF" fill-rule="evenodd" xlink:href="#path-39"></use>
                </g>
                <text id="Find-prospects-Copy" font-family="OpenSans, Open Sans" font-size="16" font-weight="normal" fill="#505050">
                    <tspan x="31.3007812" y="33">Find prospects</tspan>
                </text>
            </g>
            <g id="Group-2-Copy-7" transform="translate(1154.000000, 423.000000)">
                <g id="Rectangle-5-Copy-7">
                    <use fill="black" fill-opacity="1" filter="url(#filter-42)" xlink:href="#path-41"></use>
                    <use fill="#FFFFFF" fill-rule="evenodd" xlink:href="#path-41"></use>
                </g>
                <text id="Find-prospects-Copy" font-family="OpenSans, Open Sans" font-size="16" font-weight="normal" fill="#505050">
                    <tspan x="31.3007812" y="33">Find prospects</tspan>
                </text>
            </g>
            <text id="+-copy-2" font-family="OpenSans, Open Sans" font-size="24" font-weight="normal" fill="#B8B8B8">
                <tspan x="1277.13867" y="158">+</tspan>
            </text>
            <rect id="Rectangle-11" fill="#424365" opacity="0.328577899" x="244" y="76" width="1196" height="824"></rect>
            <g id="Group-3-Copy" transform="translate(270.000000, 246.000000)">
                <g id="Rectangle-5">
                    <use fill="black" fill-opacity="1" filter="url(#filter-44)" xlink:href="#path-43"></use>
                    <use fill="#FFFFFF" fill-rule="evenodd" xlink:href="#path-43"></use>
                </g>
                <text id="Find-prospects" font-family="OpenSans, Open Sans" font-size="16" font-weight="normal" fill="#505050">
                    <tspan x="31.3007812" y="32">Find prospects</tspan>
                </text>
                <text id="" font-family="FontAwesome" font-size="16" font-weight="normal" fill="#A5A5A5">
                    <tspan x="224.142857" y="29"></tspan>
                </text>
                <text id="" font-family="FontAwesome" font-size="20" font-weight="normal" fill="#3AC89E">
                    <tspan x="7.42857143" y="33"></tspan>
                </text>
                <circle id="Oval-Copy-4" fill="#EE7F6B" cx="47.5" cy="63.5" r="16.5"></circle>
                <circle id="Oval-Copy-3" fill="#FFC782" cx="89.5" cy="63.5" r="16.5"></circle>
            </g>
            <g id="Group-3" transform="translate(385.000000, 292.000000)">
                <text id="+-copy" transform="translate(16.000000, 16.500000) scale(-1, 1) translate(-16.000000, -16.500000) " font-family="OpenSans, Open Sans" font-size="24" font-weight="normal" fill="#D8D8D8">
                    <tspan x="9.13867188" y="26">+</tspan>
                </text>
                <circle id="Oval-Copy-5" stroke="#D8D8D8" stroke-width="2" cx="16.5" cy="17.5" r="15.5"></circle>
            </g>
            <g id="Rectangle-10">
                <use fill="black" fill-opacity="1" filter="url(#filter-46)" xlink:href="#path-45"></use>
                <use fill="#FFFFFF" fill-rule="evenodd" xlink:href="#path-45"></use>
            </g>
            <g id="Rectangle-10-Copy">
                <use fill="black" fill-opacity="1" filter="url(#filter-48)" xlink:href="#path-47"></use>
                <use fill="#FFFFFF" fill-rule="evenodd" xlink:href="#path-47"></use>
            </g>
            <g id="Rectangle-10-Copy-2">
                <use fill="black" fill-opacity="1" filter="url(#filter-50)" xlink:href="#path-49"></use>
                <use fill="#FFFFFF" fill-rule="evenodd" xlink:href="#path-49"></use>
            </g>
            <text id="comment" font-family="FontAwesome" font-size="20" font-weight="normal" fill="#A5A5A5">
                <tspan x="548" y="276"></tspan>
            </text>
            <text id="spinner" font-family="FontAwesome" font-size="20" font-weight="normal" fill="#A5A5A5">
                <tspan x="548" y="326"></tspan>
            </text>
            <text id="hand-paper-o---fontawesome" font-family="FontAwesome" font-size="20" font-weight="normal" fill="#A5A5A5">
                <tspan x="548" y="376"></tspan>
            </text>
        </g>
    </g>
</svg>