<?xml version="1.0" encoding="UTF-8"?>
<svg width="1304px" height="580px" viewBox="0 0 1304 580" version="1.1" xmlns="http://www.w3.org/2000/svg" xmlns:xlink="http://www.w3.org/1999/xlink" style="background: #FFFFFF;">
    <!-- Generator: Sketch 46.2 (44496) - http://www.bohemiancoding.com/sketch -->
    <title>logowhite</title>
    <desc>Created with Sketch.</desc>
    <defs></defs>
    <g id="Page-1" stroke="none" stroke-width="1" fill="none" fill-rule="evenodd">
        <g id="logowhite">
            <rect id="Rectangle-2-Copy-16" fill="#424365" x="0" y="0" width="1310" height="580"></rect>
            <g id="Group-2" transform="translate(117.000000, 183.000000)">
                <g id="ff" transform="translate(0.000000, 69.000000)">
                    <g id="icon-copy-17">
                        <g id="icon" transform="translate(0.660771, 0.309881)">
                            <g id="Asset-5">
                                <g id="Layer_2">
                                    <g id="Layer_1-2">
                                        <path d="M132.026747,100.923365 C122.458615,116.249519 105.54257,125.580513 87.3261027,125.580513 C69.1096358,125.580513 52.1935899,116.249519 42.6254579,100.923365 C59.0130991,98.4764545 74.3494543,91.4414076 86.8213275,80.649968 L88.0103534,81.1157681 C100.487936,91.7083004 115.752789,98.5775601 132.026747,100.923365 L132.026747,100.923365 Z" id="Shape" fill="#FFFFFF"></path>
                                        <path d="M87.9991362,81.1157681 L86.8101103,80.649968" id="Shape" stroke="#FFFFFF" stroke-width="14.3730001"></path>
                                        <path d="M42.6254579,104.562254 C52.1924338,119.893529 69.1114436,129.228388 87.3317113,129.228388 C105.551979,129.228388 122.470989,119.893529 132.037965,104.562254" id="Shape" stroke="#FFFFFF" stroke-width="17.3729992"></path>
                                        <path d="M87.1354098,80.372706 L87.9991362,81.1157681 C100.479835,91.7101992 115.748838,98.5795761 132.026747,100.923365 C136.2306,101.539646 140.474836,101.847324 144.724647,101.843875 C154.541812,101.848044 164.288885,100.20939 173.552917,96.997335 C178.806508,56.6845835 154.780572,18.2443681 115.96368,4.85763008" id="Shape" stroke="#FFFFFF" stroke-width="14.3730001"></path>
                                        <path d="M58.329574,4.85763008 C23.3944509,16.9600245 0.00456211594,49.5626744 0,86.1619364 C0.00831351774,89.7994649 0.244326436,93.4329978 0.706685224,97.0416969 C9.97459544,100.253742 19.7253509,101.892378 29.5461727,101.888237 C33.9241324,101.888526 38.2960183,101.566008 42.6254579,100.923365 C59.0130991,98.4764545 74.3494543,91.4414076 86.8213275,80.649968 L87.1466271,80.372706" id="Shape" stroke="#FFFFFF" stroke-width="14.3730001"></path>
                                        <path d="M87.1354098,80.372706 C108.865039,61.5185804 119.673789,33.2052761 115.96368,4.85763008 C97.3093781,-1.61122812 76.983876,-1.61122812 58.329574,4.85763008 C57.8627199,8.46602793 57.6229576,12.0996075 57.6116716,15.7373906 C57.5818647,40.4802528 68.3410696,64.0350141 87.1354098,80.372706 L87.1354098,80.372706 Z" id="Shape" stroke="#FFFFFF" stroke-width="14.3730001"></path>
                                    </g>
                                </g>
                            </g>
                        </g>
                    </g>
                </g>
                <text id="fireflies.ai-copy-14" font-family="Avenir-Roman, Avenir" font-size="200" font-weight="normal" fill="#FFFFFF">
                    <tspan x="220.3" y="200">fireflies.ai</tspan>
                </text>
            </g>
        </g>
    </g>
</svg>