<?xml version="1.0" encoding="UTF-8"?>
<svg width="1304px" height="580px" viewBox="0 0 1304 580" version="1.1" xmlns="http://www.w3.org/2000/svg" xmlns:xlink="http://www.w3.org/1999/xlink" style="background: #FFFFFF;">
    <!-- Generator: Sketch 46.2 (44496) - http://www.bohemiancoding.com/sketch -->
    <title>logocolor</title>
    <desc>Created with Sketch.</desc>
    <defs>
        <linearGradient x1="50%" y1="50%" x2="50%" y2="100%" id="linearGradient-1">
            <stop stop-color="#E3385B" offset="0%"></stop>
            <stop stop-color="#EB6A66" offset="100%"></stop>
        </linearGradient>
    </defs>
    <g id="Page-1" stroke="none" stroke-width="1" fill="none" fill-rule="evenodd">
        <g id="logocolor">
            <g id="logoColor" transform="translate(78.000000, 163.000000)">
                <rect id="Rectangle-2-Copy-18" fill="url(#linearGradient-1)" x="0" y="0" width="254" height="254" rx="24"></rect>
                <path d="M321.1,129.6 L300.7,129.6 L300.7,116.4 L321.1,116.4 L321.1,95.4 C321.1,89.666638 321.633328,84.433357 322.7,79.7 C323.766672,74.966643 325.599987,70.866684 328.2,67.4 C330.800013,63.933316 334.233312,61.233343 338.5,59.3 C342.766688,57.366657 348.033302,56.4 354.3,56.4 C356.30001,56.4 358.433322,56.599998 360.7,57 C362.966678,57.400002 364.833326,57.999996 366.3,58.8 L364.1,72.8 C360.366648,71.46666 356.83335,70.8 353.5,70.8 C349.49998,70.8 346.366678,71.499993 344.1,72.9 C341.833322,74.300007 340.133339,76.233321 339,78.7 C337.866661,81.166679 337.200001,84.133316 337,87.6 C336.799999,91.066684 336.7,94.79998 336.7,98.8 L336.7,116.4 L359.5,116.4 L359.5,129.6 L336.7,129.6 L336.7,210 L321.1,210 L321.1,129.6 Z M377.5,116.4 L393.1,116.4 L393.1,210 L377.5,210 L377.5,116.4 Z M373.9,79.8 C373.9,76.733318 374.999989,74.066678 377.2,71.8 C379.400011,69.533322 382.099984,68.4 385.3,68.4 C388.500016,68.4 391.199989,69.533322 393.4,71.8 C395.600011,74.066678 396.7,76.733318 396.7,79.8 C396.7,83.13335 395.633344,85.866656 393.5,88 C391.366656,90.133344 388.63335,91.2 385.3,91.2 C381.96665,91.2 379.233344,90.133344 377.1,88 C374.966656,85.866656 373.9,83.13335 373.9,79.8 Z M424.1,138.6 C424.1,134.333312 423.966668,130.333352 423.7,126.6 C423.433332,122.866648 423.3,119.466682 423.3,116.4 L438.1,116.4 C438.1,118.933346 438.166666,121.466654 438.3,124 C438.433334,126.533346 438.5,129.13332 438.5,131.8 L438.9,131.8 C439.966672,129.533322 441.466657,127.333344 443.4,125.2 C445.333343,123.066656 447.63332,121.166675 450.3,119.5 C452.96668,117.833325 455.96665,116.500005 459.3,115.5 C462.63335,114.499995 466.233314,114 470.1,114 C471.166672,114 472.233328,114.066666 473.3,114.2 C474.366672,114.333334 475.433328,114.599998 476.5,115 L475.5,130.8 C472.83332,129.999996 470.033348,129.6 467.1,129.6 C457.499952,129.6 450.533355,132.699969 446.2,138.9 C441.866645,145.100031 439.7,153.599946 439.7,164.4 L439.7,210 L424.1,210 L424.1,138.6 Z M578.1,193 C572.499972,200.200036 566.3667,205.233319 559.7,208.1 C553.0333,210.966681 545.300044,212.4 536.5,212.4 C529.16663,212.4 522.566696,211.100013 516.7,208.5 C510.833304,205.899987 505.866687,202.400022 501.8,198 C497.733313,193.599978 494.600011,188.40003 492.4,182.4 C490.199989,176.39997 489.1,170.000034 489.1,163.2 C489.1,155.999964 490.299988,149.366697 492.7,143.3 C495.100012,137.233303 498.433312,132.033355 502.7,127.7 C506.966688,123.366645 512.033304,120.000012 517.9,117.6 C523.766696,115.199988 530.166632,114 537.1,114 C543.633366,114 549.633306,115.099989 555.1,117.3 C560.566694,119.500011 565.266647,122.699979 569.2,126.9 C573.133353,131.100021 576.166656,136.233303 578.3,142.3 C580.433344,148.366697 581.5,155.266628 581.5,163 L581.5,168 L505.9,168 C506.166668,172.00002 507.133325,175.833315 508.8,179.5 C510.466675,183.166685 512.63332,186.366653 515.3,189.1 C517.96668,191.833347 521.099982,193.999992 524.7,195.6 C528.300018,197.200008 532.233312,198 536.5,198 C543.300034,198 549.03331,196.800012 553.7,194.4 C558.36669,191.999988 562.566648,188.46669 566.3,183.8 L578.1,193 Z M564.7,154.8 C564.433332,146.79996 561.833358,140.400024 556.9,135.6 C551.966642,130.799976 545.16671,128.4 536.5,128.4 C527.83329,128.4 520.83336,130.799976 515.5,135.6 C510.16664,140.400024 506.966672,146.79996 505.9,154.8 L564.7,154.8 Z M613.7,129.6 L593.3,129.6 L593.3,116.4 L613.7,116.4 L613.7,95.4 C613.7,89.666638 614.233328,84.433357 615.3,79.7 C616.366672,74.966643 618.199987,70.866684 620.8,67.4 C623.400013,63.933316 626.833312,61.233343 631.1,59.3 C635.366688,57.366657 640.633302,56.4 646.9,56.4 C648.90001,56.4 651.033322,56.599998 653.3,57 C655.566678,57.400002 657.433326,57.999996 658.9,58.8 L656.7,72.8 C652.966648,71.46666 649.43335,70.8 646.1,70.8 C642.09998,70.8 638.966678,71.499993 636.7,72.9 C634.433322,74.300007 632.733339,76.233321 631.6,78.7 C630.466661,81.166679 629.800001,84.133316 629.6,87.6 C629.399999,91.066684 629.3,94.79998 629.3,98.8 L629.3,116.4 L652.1,116.4 L652.1,129.6 L629.3,129.6 L629.3,210 L613.7,210 L613.7,129.6 Z M670.1,58.8 L685.7,58.8 L685.7,210 L670.1,210 L670.1,58.8 Z M718.1,116.4 L733.7,116.4 L733.7,210 L718.1,210 L718.1,116.4 Z M714.5,79.8 C714.5,76.733318 715.599989,74.066678 717.8,71.8 C720.000011,69.533322 722.699984,68.4 725.9,68.4 C729.100016,68.4 731.799989,69.533322 734,71.8 C736.200011,74.066678 737.3,76.733318 737.3,79.8 C737.3,83.13335 736.233344,85.866656 734.1,88 C731.966656,90.133344 729.23335,91.2 725.9,91.2 C722.56665,91.2 719.833344,90.133344 717.7,88 C715.566656,85.866656 714.5,83.13335 714.5,79.8 Z M848.3,193 C842.699972,200.200036 836.5667,205.233319 829.9,208.1 C823.2333,210.966681 815.500044,212.4 806.7,212.4 C799.36663,212.4 792.766696,211.100013 786.9,208.5 C781.033304,205.899987 776.066687,202.400022 772,198 C767.933313,193.599978 764.800011,188.40003 762.6,182.4 C760.399989,176.39997 759.3,170.000034 759.3,163.2 C759.3,155.999964 760.499988,149.366697 762.9,143.3 C765.300012,137.233303 768.633312,132.033355 772.9,127.7 C777.166688,123.366645 782.233304,120.000012 788.1,117.6 C793.966696,115.199988 800.366632,114 807.3,114 C813.833366,114 819.833306,115.099989 825.3,117.3 C830.766694,119.500011 835.466647,122.699979 839.4,126.9 C843.333353,131.100021 846.366656,136.233303 848.5,142.3 C850.633344,148.366697 851.7,155.266628 851.7,163 L851.7,168 L776.1,168 C776.366668,172.00002 777.333325,175.833315 779,179.5 C780.666675,183.166685 782.83332,186.366653 785.5,189.1 C788.16668,191.833347 791.299982,193.999992 794.9,195.6 C798.500018,197.200008 802.433312,198 806.7,198 C813.500034,198 819.23331,196.800012 823.9,194.4 C828.56669,191.999988 832.766648,188.46669 836.5,183.8 L848.3,193 Z M834.9,154.8 C834.633332,146.79996 832.033358,140.400024 827.1,135.6 C822.166642,130.799976 815.36671,128.4 806.7,128.4 C798.03329,128.4 791.03336,130.799976 785.7,135.6 C780.36664,140.400024 777.166672,146.79996 776.1,154.8 L834.9,154.8 Z M877.9,185.4 C880.966682,189.266686 884.333315,192.333322 888,194.6 C891.666685,196.866678 896.299972,198 901.9,198 C904.300012,198 906.733321,197.733336 909.2,197.2 C911.666679,196.666664 913.89999,195.800006 915.9,194.6 C917.90001,193.399994 919.499994,191.900009 920.7,190.1 C921.900006,188.299991 922.5,186.133346 922.5,183.6 C922.5,181.066654 921.933339,179.000008 920.8,177.4 C919.666661,175.799992 918.166676,174.433339 916.3,173.3 C914.433324,172.166661 912.300012,171.26667 909.9,170.6 C907.499988,169.93333 905.033346,169.333336 902.5,168.8 C898.099978,167.866662 893.90002,166.800006 889.9,165.6 C885.89998,164.399994 882.400015,162.833343 879.4,160.9 C876.399985,158.966657 874.000009,156.466682 872.2,153.4 C870.399991,150.333318 869.5,146.400024 869.5,141.6 C869.5,137.066644 870.49999,133.066684 872.5,129.6 C874.50001,126.133316 877.16665,123.266678 880.5,121 C883.83335,118.733322 887.566646,117.000006 891.7,115.8 C895.833354,114.599994 900.099978,114 904.5,114 C911.1667,114 917.333305,115.33332 923,118 C928.666695,120.66668 933.099984,124.99997 936.3,131 L923.3,139.6 C921.29999,136.26665 918.666683,133.566677 915.4,131.5 C912.133317,129.433323 908.16669,128.4 903.5,128.4 C901.366656,128.4 899.200011,128.666664 897,129.2 C894.799989,129.733336 892.833342,130.533328 891.1,131.6 C889.366658,132.666672 887.933339,134.033325 886.8,135.7 C885.666661,137.366675 885.1,139.266656 885.1,141.4 C885.1,143.40001 885.733327,145.099993 887,146.5 C888.266673,147.900007 889.999989,149.133328 892.2,150.2 C894.400011,151.266672 896.933319,152.199996 899.8,153 C902.666681,153.800004 905.633318,154.466664 908.7,155 C912.833354,155.800004 916.766648,156.833327 920.5,158.1 C924.233352,159.366673 927.499986,161.066656 930.3,163.2 C933.100014,165.333344 935.299992,167.999984 936.9,171.2 C938.500008,174.400016 939.3,178.33331 939.3,183 C939.3,188.33336 938.233344,192.866648 936.1,196.6 C933.966656,200.333352 931.133351,203.366655 927.6,205.7 C924.066649,208.033345 920.066689,209.733328 915.6,210.8 C911.133311,211.866672 906.56669,212.4 901.9,212.4 C893.89996,212.4 887.000029,211.166679 881.2,208.7 C875.399971,206.233321 870.16669,201.6667 865.5,195 L877.9,185.4 Z M974.1,187.2 C977.43335,187.2 980.266655,188.366655 982.6,190.7 C984.933345,193.033345 986.1,195.86665 986.1,199.2 C986.1,202.53335 984.866679,205.366655 982.4,207.7 C979.933321,210.033345 977.166682,211.2 974.1,211.2 C971.033318,211.2 968.266679,210.033345 965.8,207.7 C963.333321,205.366655 962.1,202.53335 962.1,199.2 C962.1,195.86665 963.266655,193.033345 965.6,190.7 C967.933345,188.366655 970.76665,187.2 974.1,187.2 Z M1015.5,128.4 C1020.30002,123.466642 1025.99997,119.833345 1032.6,117.5 C1039.20003,115.166655 1045.89997,114 1052.7,114 C1066.56674,114 1076.56664,117.266634 1082.7,123.8 C1088.83336,130.333366 1091.9,140.2666 1091.9,153.6 L1091.9,193.8 C1091.9,196.46668 1092.03333,199.233319 1092.3,202.1 C1092.56667,204.966681 1092.9,207.599988 1093.3,210 L1078.3,210 C1077.76666,207.866656 1077.46667,205.500013 1077.4,202.9 C1077.33333,200.299987 1077.3,198.00001 1077.3,196 L1076.9,196 C1073.83332,200.800024 1069.73336,204.733318 1064.6,207.8 C1059.46664,210.866682 1053.30004,212.4 1046.1,212.4 C1041.29998,212.4 1036.80002,211.800006 1032.6,210.6 C1028.39998,209.399994 1024.73335,207.633345 1021.6,205.3 C1018.46665,202.966655 1015.96668,200.066684 1014.1,196.6 C1012.23332,193.133316 1011.3,189.133356 1011.3,184.6 C1011.3,176.866628 1013.29998,170.800022 1017.3,166.4 C1021.30002,161.999978 1026.26664,158.733344 1032.2,156.6 C1038.13336,154.466656 1044.5333,153.133336 1051.4,152.6 C1058.2667,152.066664 1064.56664,151.8 1070.3,151.8 L1076.3,151.8 L1076.3,149 C1076.3,142.199966 1074.26669,137.066684 1070.2,133.6 C1066.13331,130.133316 1060.43337,128.4 1053.1,128.4 C1048.03331,128.4 1043.06669,129.233325 1038.2,130.9 C1033.33331,132.566675 1029.03335,135.133316 1025.3,138.6 L1015.5,128.4 Z M1060.7,165 C1050.69995,165 1042.7667,166.399986 1036.9,169.2 C1031.0333,172.000014 1028.1,176.599968 1028.1,183 C1028.1,188.866696 1030.06665,193.033321 1034,195.5 C1037.93335,197.966679 1042.8333,199.2 1048.7,199.2 C1053.23336,199.2 1057.19998,198.433341 1060.6,196.9 C1064.00002,195.366659 1066.83332,193.333346 1069.1,190.8 C1071.36668,188.266654 1073.09999,185.300017 1074.3,181.9 C1075.50001,178.499983 1076.16667,174.866686 1076.3,171 L1076.3,165 L1060.7,165 Z M1121.9,116.4 L1137.5,116.4 L1137.5,210 L1121.9,210 L1121.9,116.4 Z M1118.3,79.8 C1118.3,76.733318 1119.39999,74.066678 1121.6,71.8 C1123.80001,69.533322 1126.49998,68.4 1129.7,68.4 C1132.90002,68.4 1135.59999,69.533322 1137.8,71.8 C1140.00001,74.066678 1141.1,76.733318 1141.1,79.8 C1141.1,83.13335 1140.03334,85.866656 1137.9,88 C1135.76666,90.133344 1133.03335,91.2 1129.7,91.2 C1126.36665,91.2 1123.63334,90.133344 1121.5,88 C1119.36666,85.866656 1118.3,83.13335 1118.3,79.8 Z" id="fireflies.ai" fill="#E3385A"></path>
                <g id="ff" transform="translate(51.000000, 70.000000)">
                    <g id="icon-copy-17">
                        <g id="icon" transform="translate(0.574420, 0.269667)">
                            <g id="Asset-5">
                                <g id="Layer_2">
                                    <g id="Layer_1-2">
                                        <path d="M114.773252,87.8264396 C106.455501,101.163703 91.7500747,109.283805 75.9141688,109.283805 C60.0782629,109.283805 45.3728366,101.163703 37.0550856,87.8264396 C51.30116,85.6970672 64.6333324,79.5749654 75.4753586,70.1839416 L76.5090004,70.5892944 C87.3559899,79.8072233 100.626004,85.7850523 114.773252,87.8264396 L114.773252,87.8264396 Z" id="Shape" fill="#FFFFFF"></path>
                                        <path d="M76.4992491,70.5892944 L75.4656072,70.1839416" id="Shape" stroke="#FFFFFF" stroke-width="14.3730001"></path>
                                        <path d="M37.0550856,90.9931062 C45.3718317,104.334827 60.0798345,112.458291 75.9190445,112.458291 C91.7582545,112.458291 106.466257,104.334827 114.783003,90.9931062" id="Shape" stroke="#FFFFFF" stroke-width="17.3729992"></path>
                                        <path d="M75.748396,69.9426602 L76.4992491,70.5892944 C87.3489474,79.8088757 100.622569,85.7868067 114.773252,87.8264396 C118.427737,88.3627453 122.117329,88.6304954 125.811767,88.6274939 C134.346007,88.6311224 142.819315,87.2051177 150.872706,84.4098946 C155.439749,49.3285689 134.553566,15.8767783 100.809336,4.22725061" id="Shape" stroke="#FFFFFF" stroke-width="14.3730001"></path>
                                        <path d="M50.7069592,4.22725061 C20.3372215,14.7591053 0.00396593034,43.130877 0,74.9806164 C0.00722709213,78.1460992 0.212397413,81.308105 0.614334314,84.4484996 C8.67109717,87.2437142 17.1476062,88.6697028 25.6850251,88.6660989 C29.4908651,88.666351 33.291425,88.3856862 37.0550856,87.8264396 C51.30116,85.6970672 64.6333324,79.5749654 75.4753586,70.1839416 L75.7581474,69.9426602" id="Shape" stroke="#FFFFFF" stroke-width="14.3730001"></path>
                                        <path d="M75.748396,69.9426602 C94.6383576,53.5352532 104.034601,28.8961944 100.809336,4.22725061 C84.5928117,-1.40213745 66.9234831,-1.40213745 50.7069592,4.22725061 C50.3011144,7.36738309 50.0926848,10.5294295 50.0828736,13.6951338 C50.0569619,35.2270903 59.4101344,55.7251268 75.748396,69.9426602 L75.748396,69.9426602 Z" id="Shape" stroke="#FFFFFF" stroke-width="14.3730001"></path>
                                    </g>
                                </g>
                            </g>
                        </g>
                    </g>
                </g>
            </g>
        </g>
    </g>
</svg>